SplineFontDB: 3.0
FontName: Oxygen
FullName: Oxygen
FamilyName: Oxygen
Weight: Book
Copyright: Copyright (c) 2011 by vernon adams. All rights reserved.
Version: 1.000
ItalicAngle: 0
UnderlinePosition: -103
UnderlineWidth: 102
Ascent: 1638
Descent: 410
sfntRevision: 0x00000000
LayerCount: 2
Layer: 0 1 "Back"  1
Layer: 1 1 "Fore"  0
NeedsXUIDChange: 1
XUID: [1021 14 500265001 6017209]
FSType: 0
OS2Version: 1
OS2_WeightWidthSlopeOnly: 0
OS2_UseTypoMetrics: 1
CreationTime: 1331810513
ModificationTime: 1331810869
PfmFamily: 17
TTFWeight: 400
TTFWidth: 5
LineGap: 0
VLineGap: 0
Panose: 2 0 5 3 0 0 0 9 0 4
OS2TypoAscent: 881
OS2TypoAOffset: 1
OS2TypoDescent: -262
OS2TypoDOffset: 1
OS2TypoLinegap: 0
OS2WinAscent: 0
OS2WinAOffset: 1
OS2WinDescent: 0
OS2WinDOffset: 1
HheadAscent: 0
HheadAOffset: 1
HheadDescent: 0
HheadDOffset: 1
OS2SubXSize: 1331
OS2SubYSize: 1433
OS2SubXOff: 0
OS2SubYOff: 286
OS2SupXSize: 1331
OS2SupYSize: 1433
OS2SupXOff: 0
OS2SupYOff: 983
OS2StrikeYSize: 102
OS2StrikeYPos: 530
OS2Vendor: 'newt'
OS2CodePages: 20000007.00000000
OS2UnicodeRanges: 00000007.00000000.00000000.00000000
Lookup: 258 0 0 "'kern' Horizontal Kerning in Latin lookup 0"  {"'kern' Horizontal Kerning in Latin lookup 0 subtable"  } ['kern' ('latn' <'dflt' > ) ]
MarkAttachClasses: 1
DEI: 91125
ShortTable: maxp 16
  1
  0
  607
  88
  16
  96
  23
  2
  0
  1
  1
  0
  64
  0
  3
  2
EndShort
LangName: 1033 "" "" "Regular" "vernonadams: Oxygen: 2011" "" "Version 1.000" "" "Oxygen is a trademark of vernon adams." "vernon adams" "vernon adams" "Copyright (c) 2011 by vernon adams. All rights reserved." "newtypography.co.uk" "newtypography.co.uk" "" "" "" "" "" "Oxygen" 
GaspTable: 1 65535 2
Encoding: UnicodeBmp
Compacted: 1
UnicodeInterp: none
NameList: Adobe Glyph List
DisplaySize: -48
AntiAlias: 1
FitToEm: 1
WinInfo: 19 19 13
BeginChars: 65543 607

StartChar: exclam
Encoding: 33 33 4
Width: 586
GlyphClass: 2
Flags: HW
LayerCount: 2
Fore
SplineSet
391 1496 m 1,0,-1
 391 1354 l 1,1,-1
 335 435 l 1,2,-1
 256 435 l 1,3,-1
 194 1354 l 1,4,-1
 194 1496 l 1,5,-1
 391 1496 l 1,0,-1
160 120 m 128,-1,7
 160 173 160 173 195.5 212.5 c 128,-1,8
 231 252 231 252 293.5 252 c 0,9,10
 356 252 356 252 391 213 c 128,-1,11
 426 174 426 174 426 120 c 128,-1,12
 426 66 426 66 391 27 c 128,-1,13
 356 -12 356 -12 293.5 -12 c 0,14,15
 231 -12 231 -12 195.5 27.5 c 128,-1,6
 160 67 160 67 160 120 c 128,-1,7
EndSplineSet
EndChar

StartChar: quotedbl
Encoding: 34 34 5
Width: 710
GlyphClass: 2
Flags: HW
LayerCount: 2
Fore
SplineSet
160 1016 m 1,0,-1
 139 1510 l 1,1,-1
 290 1510 l 1,2,-1
 261 1016 l 1,3,-1
 160 1016 l 1,0,-1
446 1016 m 1,4,-1
 425 1510 l 1,5,-1
 576 1510 l 1,6,-1
 547 1016 l 1,7,-1
 446 1016 l 1,4,-1
EndSplineSet
EndChar

StartChar: numbersign
Encoding: 35 35 6
Width: 1134
GlyphClass: 2
Flags: HW
LayerCount: 2
Fore
SplineSet
737 931 m 1,0,-1
 502 931 l 1,1,-1
 422 536 l 1,2,-1
 658 536 l 1,3,-1
 737 931 l 1,0,-1
1032 1055 m 1,4,-1
 1018 931 l 1,5,-1
 871 931 l 1,6,-1
 804 536 l 1,7,-1
 951 536 l 1,8,-1
 941 410 l 1,9,-1
 786 410 l 1,10,-1
 700 -23 l 1,11,-1
 549 -23 l 1,12,-1
 633 410 l 1,13,-1
 398 410 l 1,14,-1
 318 -23 l 1,15,-1
 189 -23 l 1,16,-1
 262 410 l 1,17,-1
 91 410 l 1,18,-1
 101 536 l 1,19,-1
 284 536 l 1,20,-1
 345 930 l 1,21,-1
 168 930 l 1,22,-1
 177 1055 l 1,23,-1
 370 1055 l 1,24,-1
 453 1462 l 1,25,-1
 606 1462 l 1,26,-1
 527 1055 l 1,27,-1
 761 1055 l 1,28,-1
 832 1462 l 1,29,-1
 960 1462 l 1,30,-1
 894 1055 l 1,31,-1
 1032 1055 l 1,4,-1
EndSplineSet
EndChar

StartChar: dollar
Encoding: 36 36 7
Width: 1241
GlyphClass: 2
Flags: HW
LayerCount: 2
Fore
SplineSet
580 1693 m 1,0,-1
 675 1693 l 1,1,-1
 675 -195 l 1,2,-1
 580 -195 l 1,3,-1
 580 1693 l 1,0,-1
1089 1418 m 1,4,5
 916.489795918 1525 916.489795918 1525 651.244897959 1525 c 128,-1,6
 386 1525 386 1525 241 1422.5 c 128,-1,7
 96 1320 96 1320 96 1109 c 0,8,9
 96 834 96 834 433 749 c 2,10,-1
 727 675 l 2,11,12
 863 641 863 641 914.5 581.5 c 128,-1,13
 966 522 966 522 966 426 c 0,14,15
 966 130 966 130 641 130 c 0,16,17
 377 130 377 130 146 244 c 1,18,-1
 94 100 l 1,19,20
 175 50 175 50 313.5 13.5 c 128,-1,21
 452 -23 452 -23 630 -23 c 0,22,23
 868 -23 868 -23 1006.5 91.5 c 128,-1,24
 1145 206 1145 206 1145 432 c 0,25,26
 1145 606 1145 606 1052 700.5 c 128,-1,27
 959 795 959 795 779 838 c 2,28,-1
 498 906 l 2,29,30
 387 933 387 933 331.5 984.5 c 128,-1,31
 276 1036 276 1036 276 1121 c 0,32,33
 276 1372 276 1372 638 1372 c 0,34,35
 751 1372 751 1372 861.5 1343 c 128,-1,36
 972 1314 972 1314 1039 1277 c 1,37,-1
 1089 1418 l 1,4,5
615 1489 m 0,38,-1
615 0 m 0,39,-1
EndSplineSet
EndChar

StartChar: percent
Encoding: 37 37 8
Width: 1877
GlyphClass: 2
Flags: HW
LayerCount: 2
Fore
SplineSet
560 1298.5 m 128,-1,1
 509 1378 509 1378 419.5 1378 c 128,-1,2
 330 1378 330 1378 280 1298 c 128,-1,3
 230 1218 230 1218 230 1103.5 c 128,-1,4
 230 989 230 989 279.5 916.5 c 128,-1,5
 329 844 329 844 420 844 c 128,-1,6
 511 844 511 844 561 918.5 c 128,-1,7
 611 993 611 993 611 1106 c 128,-1,0
 611 1219 611 1219 560 1298.5 c 128,-1,1
401 -4 m 1,8,-1
 1196 1462 l 1,9,-1
 1358 1462 l 1,10,-1
 536 -4 l 1,11,-1
 401 -4 l 1,8,-1
189.5 1380 m 128,-1,13
 276 1489 276 1489 420.5 1489 c 128,-1,14
 565 1489 565 1489 652.5 1380.5 c 128,-1,15
 740 1272 740 1272 740 1106 c 128,-1,16
 740 940 740 940 652 834 c 128,-1,17
 564 728 564 728 419.5 728 c 128,-1,18
 275 728 275 728 189 833.5 c 128,-1,19
 103 939 103 939 103 1105 c 128,-1,12
 103 1271 103 1271 189.5 1380 c 128,-1,13
1431 640 m 128,-1,21
 1324 640 1324 640 1264.5 561 c 128,-1,22
 1205 482 1205 482 1205 368 c 128,-1,23
 1205 254 1205 254 1264.5 176 c 128,-1,24
 1324 98 1324 98 1431 98 c 128,-1,25
 1538 98 1538 98 1597.5 177 c 128,-1,26
 1657 256 1657 256 1657 370 c 128,-1,27
 1657 484 1657 484 1597.5 562 c 128,-1,20
 1538 640 1538 640 1431 640 c 128,-1,21
1172 646 m 128,-1,29
 1265 754 1265 754 1432.5 754 c 128,-1,30
 1600 754 1600 754 1692 647.5 c 128,-1,31
 1784 541 1784 541 1784 371 c 128,-1,32
 1784 201 1784 201 1690.5 93 c 128,-1,33
 1597 -15 1597 -15 1430 -15 c 128,-1,34
 1263 -15 1263 -15 1171 92.5 c 128,-1,35
 1079 200 1079 200 1079 369 c 128,-1,28
 1079 538 1079 538 1172 646 c 128,-1,29
EndSplineSet
EndChar

StartChar: ampersand
Encoding: 38 38 9
Width: 1477
GlyphClass: 2
Flags: HW
LayerCount: 2
Fore
SplineSet
801 1299.5 m 128,-1,1
 744 1345 744 1345 655.5 1345 c 128,-1,2
 567 1345 567 1345 511 1297.5 c 128,-1,3
 455 1250 455 1250 455 1173.5 c 128,-1,4
 455 1097 455 1097 491.5 1040.5 c 128,-1,5
 528 984 528 984 605 910 c 1,6,7
 800.023539421 1005.91321611 800.023539421 1005.91321611 839.5 1087 c 0,8,9
 858 1125 858 1125 858 1171 c 0,10,0
 858 1254 858 1254 801 1299.5 c 128,-1,1
985 259 m 1,11,-1
 544 726 l 1,12,13
 418 662 418 662 349.5 586 c 128,-1,14
 281 510 281 510 281 393.5 c 128,-1,15
 281 277 281 277 373 204.5 c 128,-1,16
 465 132 465 132 645 132 c 128,-1,17
 825 132 825 132 985 259 c 1,11,-1
441 839 m 1,18,19
 348 940 348 940 308 1008 c 128,-1,20
 268 1076 268 1076 268 1165 c 0,21,22
 268 1314 268 1314 373.5 1401.5 c 128,-1,23
 479 1489 479 1489 657 1489 c 0,24,25
 884.545454545 1489 884.545454545 1489 990.5 1352.5 c 0,26,27
 1046 1281 1046 1281 1046 1199.5 c 0,28,29
 1046 1053.37113402 1046 1053.37113402 950.439949958 962.736859754 c 128,-1,30
 854.879899917 872.102585488 854.879899917 872.102585488 707 804 c 1,31,-1
 1108 375 l 1,32,33
 1188 459 1188 459 1250 599 c 1,34,-1
 1371 507 l 1,35,36
 1309 371 1309 371 1212 257 c 1,37,-1
 1393 41 l 1,38,39
 1319 13 1319 13 1236 -11 c 1,40,-1
 1100 143 l 1,41,42
 894 -23 894 -23 630.5 -23 c 128,-1,43
 367 -23 367 -23 235.5 87.5 c 128,-1,44
 104 198 104 198 104 395 c 0,45,46
 104 548 104 548 190.5 652 c 128,-1,47
 277 756 277 756 441 839 c 1,18,19
EndSplineSet
EndChar

StartChar: quotesingle
Encoding: 39 39 10
Width: 393
GlyphClass: 2
Flags: HW
LayerCount: 2
Fore
SplineSet
248 1016 m 1,0,-1
 143 1016 l 1,1,-1
 122 1510 l 1,2,-1
 277 1510 l 1,3,-1
 248 1016 l 1,0,-1
EndSplineSet
EndChar

StartChar: parenleft
Encoding: 40 40 11
Width: 612
GlyphClass: 2
Flags: HW
LayerCount: 2
Fore
SplineSet
125 636 m 0,0,1
 125 1068 125 1068 370 1510 c 1,2,-1
 518 1510 l 1,3,4
 290 1090 290 1090 290 642 c 0,5,6
 290 430 290 430 351.5 201 c 128,-1,7
 413 -28 413 -28 520 -218 c 1,8,-1
 373 -218 l 1,9,10
 261 -27 261 -27 193 195 c 128,-1,11
 125 417 125 417 125 636 c 0,0,1
EndSplineSet
EndChar

StartChar: parenright
Encoding: 41 41 12
Width: 612
GlyphClass: 2
Flags: HW
LayerCount: 2
Fore
SplineSet
238 -218 m 1,0,-1
 93 -218 l 1,1,2
 199 -27 199 -27 260.5 201.5 c 128,-1,3
 322 430 322 430 322 642 c 0,4,5
 322 1088 322 1088 93 1510 c 1,6,-1
 241 1510 l 1,7,8
 488 1056 488 1056 488 636 c 0,9,10
 488 418 488 418 419.5 198 c 128,-1,11
 351 -22 351 -22 238 -218 c 1,0,-1
EndSplineSet
EndChar

StartChar: asterisk
Encoding: 42 42 13
Width: 1081
GlyphClass: 2
Flags: HW
LayerCount: 2
Fore
SplineSet
897 617 m 1,0,-1
 762 523 l 1,1,-1
 537 886 l 1,2,-1
 320 523 l 1,3,-1
 184 617 l 1,4,-1
 438 958 l 1,5,-1
 89 1093 l 1,6,-1
 159 1253 l 1,7,-1
 483 1062 l 1,8,-1
 451 1489 l 1,9,-1
 629 1489 l 1,10,-1
 600 1062 l 1,11,-1
 921 1253 l 1,12,-1
 994 1093 l 1,13,-1
 641 958 l 1,14,-1
 687 898 l 2,15,16
 733 837 733 837 797.5 752 c 128,-1,17
 862 667 862 667 897 617 c 1,0,-1
EndSplineSet
EndChar

StartChar: plus
Encoding: 43 43 14
Width: 1081
GlyphClass: 2
Flags: HW
LayerCount: 2
Fore
SplineSet
101 646 m 1,0,-1
 101 512 l 1,1,-1
 484 512 l 1,2,-1
 484 80 l 1,3,-1
 619 80 l 1,4,-1
 619 512 l 1,5,-1
 989 512 l 1,6,-1
 989 646 l 1,7,-1
 621 646 l 1,8,-1
 621 1065 l 1,9,-1
 487 1065 l 1,10,-1
 487 646 l 1,11,-1
 101 646 l 1,0,-1
EndSplineSet
EndChar

StartChar: comma
Encoding: 44 44 15
Width: 508
GlyphClass: 2
Flags: HW
LayerCount: 2
Fore
SplineSet
367 230 m 1,0,-1
 241 -292 l 1,1,-1
 135 -292 l 1,2,-1
 155 230 l 1,3,-1
 367 230 l 1,0,-1
EndSplineSet
EndChar

StartChar: hyphen
Encoding: 45 45 16
Width: 686
GlyphClass: 2
Flags: HW
LayerCount: 2
Fore
SplineSet
89 521 m 1,0,-1
 89 663 l 1,1,-1
 597 663 l 1,2,-1
 597 521 l 1,3,-1
 89 521 l 1,0,-1
EndSplineSet
EndChar

StartChar: period
Encoding: 46 46 17
Width: 494
GlyphClass: 2
Flags: HW
LayerCount: 2
Fore
SplineSet
163.5 27.5 m 128,-1,1
 199 -12 199 -12 261.5 -12 c 128,-1,2
 324 -12 324 -12 359 27 c 128,-1,3
 394 66 394 66 394 120 c 128,-1,4
 394 174 394 174 359 213 c 128,-1,5
 324 252 324 252 261 252 c 128,-1,6
 198 252 198 252 163 213 c 128,-1,7
 128 174 128 174 128 120.5 c 128,-1,0
 128 67 128 67 163.5 27.5 c 128,-1,1
EndSplineSet
EndChar

StartChar: slash
Encoding: 47 47 18
Width: 952
GlyphClass: 2
Flags: HW
LayerCount: 2
Fore
SplineSet
194 -218 m 1,0,-1
 50 -218 l 1,1,-1
 726 1466 l 1,2,-1
 872 1466 l 1,3,-1
 194 -218 l 1,0,-1
EndSplineSet
EndChar

StartChar: zero
Encoding: 48 48 19
Width: 1241
GlyphClass: 2
Flags: HW
LayerCount: 2
Fore
SplineSet
622 1373 m 128,-1,1
 520 1373 520 1373 447 1292.5 c 0,2,3
 301 1131.5 301 1131.5 301 753.25 c 0,4,5
 301 375 301 375 447 211 c 0,6,7
 520 129 520 129 622 129 c 128,-1,8
 724 129 724 129 797 211 c 0,9,10
 943 375 943 375 943 753.25 c 0,11,12
 943 1131.5 943 1131.5 797 1292.5 c 0,13,0
 724 1373 724 1373 622 1373 c 128,-1,1
622 -23 m 0,14,15
 489 -23 489 -23 389 35.5 c 128,-1,16
 289 94 289 94 228.5 200 c 0,17,18
 109 409.371900826 109 409.371900826 109 751 c 0,19,20
 109 1184 109 1184 290.5 1385 c 0,21,22
 416.917910448 1525 416.917910448 1525 622 1525 c 0,23,24
 880.449275362 1525 880.449275362 1525 1006.22463768 1313.3292683 c 0,25,26
 1132 1101.65853659 1132 1101.65853659 1132 755.062601629 c 0,27,28
 1132 408.466666667 1132 408.466666667 1009.88679245 192.733333334 c 0,29,30
 887.773584906 -23 887.773584906 -23 622 -23 c 0,14,15
EndSplineSet
EndChar

StartChar: one
Encoding: 49 49 20
Width: 626
GlyphClass: 2
Flags: HW
LayerCount: 2
Fore
SplineSet
302 1496 m 1,0,-1
 461 1496 l 1,1,-1
 461 0 l 1,2,-1
 284 0 l 1,3,-1
 284 1311 l 1,4,5
 183 1245 183 1245 37 1198 c 1,6,-1
 37 1365 l 1,7,8
 53 1372 53 1372 102 1393 c 128,-1,9
 151 1414 151 1414 199.730769231 1435.87912088 c 0,10,11
 248.461538462 1457.75824176 248.461538462 1457.75824176 302 1496 c 1,0,-1
EndSplineSet
EndChar

StartChar: two
Encoding: 50 50 21
Width: 1116
GlyphClass: 2
Flags: HW
LayerCount: 2
Fore
SplineSet
144 1395 m 1,0,1
 283 1525 283 1525 548 1525 c 0,2,3
 683 1525 683 1525 784 1475 c 128,-1,4
 885 1425 885 1425 939.5 1333 c 128,-1,5
 994 1241 994 1241 994 1119 c 2,6,-1
 994 1113 l 1,7,8
 993 981 993 981 928 866 c 128,-1,9
 863 751 863 751 728 605 c 1,10,-1
 306 154 l 1,11,-1
 999 154 l 1,12,-1
 988 0 l 1,13,-1
 113 0 l 1,14,-1
 90 164 l 1,15,-1
 607 738 l 2,16,17
 702 843 702 843 750.5 928.5 c 128,-1,18
 799 1014 799 1014 801 1097 c 1,19,-1
 801 1107 l 2,20,21
 801 1231 801 1231 732 1299.5 c 128,-1,22
 663 1368 663 1368 536 1368 c 0,23,24
 324 1368 324 1368 202 1245 c 1,25,-1
 144 1395 l 1,0,1
EndSplineSet
EndChar

StartChar: three
Encoding: 51 51 22
Width: 1103
GlyphClass: 2
Flags: HW
LayerCount: 2
Fore
SplineSet
496 1373 m 0,0,1
 296.387755102 1373 296.387755102 1373 161 1266 c 1,2,-1
 105 1412 l 1,3,4
 254 1525 254 1525 534 1525 c 0,5,6
 778.812865497 1525 778.812865497 1525 901 1356.5 c 0,7,8
 963 1271 963 1271 963 1143.5 c 128,-1,9
 963 1016 963 1016 894 926 c 128,-1,10
 825 836 825 836 700 797 c 1,11,12
 840 767 840 767 919.5 666 c 128,-1,13
 999 565 999 565 999 410 c 0,14,15
 999 213 999 213 858 95 c 128,-1,16
 717 -23 717 -23 496 -23 c 0,17,18
 362 -23 362 -23 257.5 12 c 128,-1,19
 153 47 153 47 105 93 c 1,20,-1
 161 240 l 1,21,22
 302 129 302 129 497 129 c 0,23,24
 647 129 647 129 735.5 203.5 c 128,-1,25
 824 278 824 278 824 427 c 0,26,27
 824 576 824 576 714.5 646.5 c 0,28,29
 644.269621904 691.716818774 644.269621904 691.716818774 548.075987423 706.858409387 c 0,30,31
 451.882352941 722 451.882352941 722 323 722 c 1,32,-1
 323 871 l 1,33,34
 506.782608696 871 506.782608696 871 596 899.5 c 0,35,36
 771 955.402777778 771 955.402777778 771 1133 c 0,37,38
 771 1373 771 1373 496 1373 c 0,0,1
EndSplineSet
EndChar

StartChar: four
Encoding: 52 52 23
Width: 1211
GlyphClass: 2
Flags: HW
LayerCount: 2
Fore
SplineSet
784 1269 m 1,0,-1
 284 516 l 1,1,-1
 784 516 l 1,2,-1
 784 1269 l 1,0,-1
1122 371 m 1,3,-1
 952 371 l 1,4,-1
 952 0 l 1,5,-1
 784 0 l 1,6,-1
 784 371 l 1,7,-1
 108 371 l 1,8,-1
 108 524 l 1,9,-1
 765 1496 l 1,10,-1
 952 1496 l 1,11,-1
 952 516 l 1,12,-1
 1136 516 l 1,13,-1
 1122 371 l 1,3,-1
EndSplineSet
EndChar

StartChar: five
Encoding: 53 53 24
Width: 1177
GlyphClass: 2
Flags: HW
LayerCount: 2
Fore
SplineSet
1004 1496 m 1,0,-1
 990 1332 l 1,1,-1
 379 1332 l 1,2,3
 369 1041 369 1041 364 861 c 1,4,5
 477 933 477 933 598.5 933 c 0,6,7
 831.443548387 933 831.443548387 933 947.721774194 803.103603604 c 128,-1,8
 1064 673.207207207 1064 673.207207207 1064 461.603603604 c 128,-1,9
 1064 250 1064 250 918.5 113.5 c 128,-1,10
 773 -23 773 -23 522.5 -23 c 128,-1,11
 272 -23 272 -23 121 114 c 1,12,-1
 186 255 l 1,13,14
 334 139 334 139 513.5 139 c 128,-1,15
 693 139 693 139 788 232 c 128,-1,16
 883 325 883 325 883 467 c 128,-1,17
 883 609 883 609 803 692.5 c 128,-1,18
 723 776 723 776 575 776 c 128,-1,19
 427 776 427 776 337 677 c 1,20,-1
 198 696 l 1,21,-1
 237 1496 l 1,22,-1
 1004 1496 l 1,0,-1
EndSplineSet
EndChar

StartChar: six
Encoding: 54 54 25
Width: 1199
GlyphClass: 2
Flags: HW
LayerCount: 2
Fore
SplineSet
292 453 m 0,0,1
 292 262.636363636 292 262.636363636 430.5 174.5 c 0,2,3
 502 129 502 129 601 129 c 0,4,5
 749 129 749 129 833.5 220 c 128,-1,6
 918 311 918 311 918 449.5 c 128,-1,7
 918 588 918 588 833.5 679.5 c 128,-1,8
 749 771 749 771 596.5 771 c 128,-1,9
 444 771 444 771 368 682 c 128,-1,10
 292 593 292 593 292 453 c 0,0,1
412 861 m 1,11,12
 525 921 525 921 644 921 c 128,-1,13
 763 921 763 921 870 861.5 c 128,-1,14
 977 802 977 802 1042 692.5 c 128,-1,15
 1107 583 1107 583 1107 449 c 0,16,17
 1107 245 1107 245 969.5 111 c 128,-1,18
 832 -23 832 -23 607 -23 c 0,19,20
 490 -23 490 -23 393.5 16.5 c 128,-1,21
 297 56 297 56 234.5 123.5 c 0,22,23
 103 265.52 103 265.52 103 472 c 0,24,25
 103 635 103 635 162.5 763.5 c 128,-1,26
 222 892 222 892 353.695652174 1058.32608695 c 0,27,28
 485.391304348 1224.65217391 485.391304348 1224.65217391 644 1413 c 1,29,-1
 707 1489 l 1,30,-1
 938 1489 l 1,31,-1
 412 861 l 1,11,12
EndSplineSet
EndChar

StartChar: seven
Encoding: 55 55 26
Width: 1052
GlyphClass: 2
Flags: HW
LayerCount: 2
Fore
SplineSet
261 0 m 1,0,-1
 775 1341 l 1,1,-1
 100 1341 l 1,2,-1
 111 1496 l 1,3,-1
 978 1496 l 1,4,-1
 978 1360 l 1,5,-1
 443 0 l 1,6,-1
 261 0 l 1,0,-1
EndSplineSet
EndChar

StartChar: eight
Encoding: 56 56 27
Width: 1182
GlyphClass: 2
Flags: HW
LayerCount: 2
Fore
SplineSet
792 1314 m 128,-1,1
 711 1373 711 1373 593.5 1373 c 128,-1,2
 476 1373 476 1373 393.5 1314 c 128,-1,3
 311 1255 311 1255 311 1152 c 0,4,5
 311 916 311 916 594 853 c 1,6,7
 873 916 873 916 873 1152 c 0,8,0
 873 1255 873 1255 792 1314 c 128,-1,1
594 703 m 1,9,10
 451 670 451 670 365 592.5 c 128,-1,11
 279 515 279 515 279 394.5 c 128,-1,12
 279 274 279 274 368 201.5 c 128,-1,13
 457 129 457 129 594 129 c 128,-1,14
 731 129 731 129 817.5 201.5 c 128,-1,15
 904 274 904 274 904 395 c 128,-1,16
 904 516 904 516 820 593.5 c 128,-1,17
 736 671 736 671 594 703 c 1,9,10
1049 1148 m 0,18,19
 1049 889.508196721 1049 889.508196721 791 788 c 1,20,21
 926 740 926 740 1003 634 c 128,-1,22
 1080 528 1080 528 1080 385 c 0,23,24
 1080 193 1080 193 941.5 85 c 128,-1,25
 803 -23 803 -23 594 -23 c 0,26,27
 304.829787234 -23 304.829787234 -23 171 162 c 0,28,29
 103 256 103 256 103 392 c 128,-1,30
 103 528 103 528 185 634 c 128,-1,31
 267 740 267 740 414 788 c 1,32,33
 134 887 134 887 134 1148 c 0,34,35
 134 1325 134 1325 262 1425 c 128,-1,36
 390 1525 390 1525 593.5 1525 c 128,-1,37
 797 1525 797 1525 923 1425 c 128,-1,38
 1049 1325 1049 1325 1049 1148 c 0,18,19
EndSplineSet
EndChar

StartChar: nine
Encoding: 57 57 28
Width: 1165
GlyphClass: 2
Flags: HW
LayerCount: 2
Fore
SplineSet
825.5 835 m 128,-1,1
 901 922 901 922 901 1060 c 128,-1,2
 901 1198 901 1198 823.5 1285.5 c 128,-1,3
 746 1373 746 1373 597.5 1373 c 128,-1,4
 449 1373 449 1373 362 1281.5 c 128,-1,5
 275 1190 275 1190 275 1053 c 128,-1,6
 275 916 275 916 359 832 c 128,-1,7
 443 748 443 748 596.5 748 c 128,-1,0
 750 748 750 748 825.5 835 c 128,-1,1
781 658 m 1,8,9
 668 598 668 598 548.5 598 c 128,-1,10
 429 598 429 598 322.5 653.5 c 128,-1,11
 216 709 216 709 151 814 c 128,-1,12
 86 919 86 919 86 1053 c 0,13,14
 86 1257 86 1257 226 1391 c 128,-1,15
 366 1525 366 1525 597.790076336 1525 c 0,16,17
 829.580152672 1525 829.580152672 1525 959.790076336 1386.32113821 c 0,18,19
 1090 1247.64227642 1090 1247.64227642 1090 1042 c 0,20,21
 1090 899 1090 899 1041 783 c 128,-1,22
 992 667 992 667 889.151051625 528.185468451 c 0,23,24
 786.30210325 389.370936902 786.30210325 389.370936902 549 98 c 1,25,-1
 470 0 l 1,26,-1
 250 0 l 1,27,-1
 781 658 l 1,8,9
EndSplineSet
EndChar

StartChar: colon
Encoding: 58 58 29
Width: 494
GlyphClass: 2
Flags: HW
LayerCount: 2
Fore
SplineSet
146 -25 m 1,0,-1
 146 208 l 1,1,-1
 352 208 l 1,2,-1
 352 -25 l 1,3,-1
 146 -25 l 1,0,-1
146 893 m 1,4,-1
 146 1124 l 1,5,-1
 352 1124 l 1,6,-1
 352 893 l 1,7,-1
 146 893 l 1,4,-1
EndSplineSet
EndChar

StartChar: semicolon
Encoding: 59 59 30
Width: 518
GlyphClass: 2
Flags: HW
LayerCount: 2
Fore
SplineSet
376 197 m 1,0,-1
 251 -310 l 1,1,-1
 138 -310 l 1,2,-1
 194 197 l 1,3,-1
 376 197 l 1,0,-1
174 893 m 1,4,-1
 174 1124 l 1,5,-1
 380 1124 l 1,6,-1
 380 893 l 1,7,-1
 174 893 l 1,4,-1
EndSplineSet
EndChar

StartChar: less
Encoding: 60 60 31
Width: 1179
GlyphClass: 2
Flags: HW
LayerCount: 2
Fore
SplineSet
1061 982 m 1,0,-1
 294 596 l 1,1,-1
 1057 216 l 1,2,-1
 1057 50 l 1,3,-1
 103 547 l 1,4,-1
 103 642 l 1,5,-1
 1061 1149 l 1,6,-1
 1061 982 l 1,0,-1
EndSplineSet
EndChar

StartChar: equal
Encoding: 61 61 32
Width: 1286
GlyphClass: 2
Flags: HW
LayerCount: 2
Fore
SplineSet
145 452 m 1,0,-1
 1146 452 l 1,1,-1
 1146 305 l 1,2,-1
 145 305 l 1,3,-1
 145 452 l 1,0,-1
143 891 m 1,4,-1
 1146 891 l 1,5,-1
 1146 741 l 1,6,-1
 143 741 l 1,7,-1
 143 891 l 1,4,-1
EndSplineSet
EndChar

StartChar: greater
Encoding: 62 62 33
Width: 1182
GlyphClass: 2
Flags: HW
LayerCount: 2
Fore
SplineSet
126 230 m 1,0,-1
 891 598 l 1,1,-1
 130 997 l 1,2,-1
 130 1160 l 1,3,-1
 1086 640 l 1,4,-1
 1086 544 l 1,5,-1
 126 62 l 1,6,-1
 126 230 l 1,0,-1
EndSplineSet
EndChar

StartChar: question
Encoding: 63 63 34
Width: 865
GlyphClass: 2
Flags: HW
LayerCount: 2
Fore
SplineSet
242 120 m 128,-1,1
 242 173 242 173 277.5 212.5 c 128,-1,2
 313 252 313 252 375.5 252 c 128,-1,3
 438 252 438 252 473 213 c 128,-1,4
 508 174 508 174 508 120 c 128,-1,5
 508 66 508 66 473 27 c 128,-1,6
 438 -12 438 -12 375.5 -12 c 128,-1,7
 313 -12 313 -12 277.5 27.5 c 128,-1,0
 242 67 242 67 242 120 c 128,-1,1
601.502475248 1185.00235256 m 0,8,9
 601.502475248 1373 601.502475248 1373 364.5 1373 c 0,10,11
 248 1373 248 1373 118 1292 c 1,12,-1
 73 1427 l 1,13,14
 196 1524 196 1524 381 1524 c 128,-1,15
 566 1524 566 1524 665.5 1438.5 c 128,-1,16
 765 1353 765 1353 765 1204.09375 c 128,-1,17
 765 1055.1875 765 1055.1875 680 907.5 c 0,18,19
 640 838 640 838 556.312913907 711.988410596 c 128,-1,20
 472.625827815 585.976821192 472.625827815 585.976821192 404 435 c 1,21,-1
 317 435 l 1,22,23
 317 553.321428571 317 553.321428571 418 744.5 c 0,24,25
 460 824 460 824 501.5 902 c 0,26,27
 601.502475248 1089.95645951 601.502475248 1089.95645951 601.502475248 1185.00235256 c 0,8,9
EndSplineSet
EndChar

StartChar: at
Encoding: 64 64 35
Width: 1788
GlyphClass: 2
Flags: HW
LayerCount: 2
Fore
SplineSet
814 442 m 0,0,1
 933 442 933 442 1001 629 c 0,2,3
 1038.72020725 732.461139896 1038.72020725 732.461139896 1087 998 c 1,4,5
 1046 1019 1046 1019 961.5 1019 c 0,6,7
 802.779661017 1019 802.779661017 1019 738.889830508 897.403225807 c 128,-1,8
 675 775.806451613 675 775.806451613 675 621 c 0,9,10
 675 539 675 539 711.5 490.5 c 128,-1,11
 748 442 748 442 814 442 c 0,0,1
1414 97 m 1,12,13
 1227.83529412 -75 1227.83529412 -75 886 -75 c 0,14,15
 665 -75 665 -75 487 21.5 c 128,-1,16
 309 118 309 118 205 300.5 c 128,-1,17
 101 483 101 483 101 720 c 0,18,19
 101 885 101 885 165 1034 c 128,-1,20
 229 1183 229 1183 337.5 1291 c 128,-1,21
 446 1399 446 1399 597 1462 c 128,-1,22
 748 1525 748 1525 939.5 1525 c 128,-1,23
 1131 1525 1131 1525 1305.5 1442 c 128,-1,24
 1480 1359 1480 1359 1583.5 1201 c 128,-1,25
 1687 1043 1687 1043 1687 839 c 0,26,27
 1687 715 1687 715 1642 609 c 128,-1,28
 1597 503 1597 503 1526.5 437 c 0,29,30
 1376.95454545 297 1376.95454545 297 1213.97727273 297 c 128,-1,31
 1051 297 1051 297 1028 455 c 1,32,33
 933 316 933 316 790 316 c 0,34,35
 680 316 680 316 611 401 c 128,-1,36
 542 486 542 486 542 609 c 128,-1,37
 542 732 542 732 566 820.5 c 128,-1,38
 590 909 590 909 638 981 c 128,-1,39
 686 1053 686 1053 766 1095 c 128,-1,40
 846 1137 846 1137 960 1137 c 128,-1,41
 1074 1137 1074 1137 1249 1075 c 1,42,43
 1238 1021 1238 1021 1220 938 c 0,44,45
 1144 587.555555556 1144 587.555555556 1144 524 c 0,46,47
 1144 418 1144 418 1233 418 c 0,48,49
 1282 418 1282 418 1339 451.5 c 128,-1,50
 1396 485 1396 485 1445 540.5 c 128,-1,51
 1494 596 1494 596 1527 676.5 c 128,-1,52
 1560 757 1560 757 1560 864 c 128,-1,53
 1560 971 1560 971 1511 1077.5 c 128,-1,54
 1462 1184 1462 1184 1375.5 1255.5 c 0,55,56
 1194.63636364 1405 1194.63636364 1405 911 1405 c 0,57,58
 773 1405 773 1405 647 1351.5 c 128,-1,59
 521 1298 521 1298 429.5 1207 c 128,-1,60
 338 1116 338 1116 284 989 c 128,-1,61
 230 862 230 862 230 714 c 128,-1,62
 230 566 230 566 282 438 c 128,-1,63
 334 310 334 310 423 224.5 c 0,64,65
 608.807017544 46 608.807017544 46 892.903508772 46 c 128,-1,66
 1177 46 1177 46 1344 185 c 1,67,-1
 1414 97 l 1,12,13
EndSplineSet
EndChar

StartChar: A
Encoding: 65 65 36
Width: 1309
GlyphClass: 2
Flags: HW
LayerCount: 2
Fore
SplineSet
420 611 m 1,0,-1
 899 611 l 1,1,-1
 671 1324 l 1,2,-1
 420 611 l 1,0,-1
1123 0 m 1,3,-1
 958 473 l 1,4,-1
 365 473 l 1,5,-1
 187 0 l 1,6,-1
 6 0 l 1,7,-1
 564 1496 l 1,8,-1
 776 1496 l 1,9,-1
 1303 0 l 1,10,-1
 1123 0 l 1,3,-1
655 1489 m 0,11,-1
1172 10 m 0,12,-1
655 1489 m 0,13,-1
1172 10 m 0,14,-1
655 1489 m 0,15,-1
1188 10 m 0,16,-1
655 1489 m 0,17,-1
1175 10 m 0,18,-1
EndSplineSet
EndChar

StartChar: B
Encoding: 66 66 37
Width: 1286
GlyphClass: 2
Flags: HW
LayerCount: 2
Fore
SplineSet
637 139 m 2,0,1
 1033 139 1033 139 1033 424 c 0,2,3
 1033 569 1033 569 944.5 642.5 c 128,-1,4
 856 716 856 716 688 716 c 2,5,-1
 324 716 l 1,6,-1
 324 139 l 1,7,-1
 637 139 l 2,0,1
324 1352 m 1,8,-1
 324 850 l 1,9,-1
 678 850 l 2,10,11
 884.650485437 850 884.650485437 850 941.5 969.5 c 0,12,13
 966 1021 966 1021 966 1091.5 c 128,-1,14
 966 1162 966 1162 946 1209 c 0,15,16
 908.4 1297.36 908.4 1297.36 811.458064516 1324.68 c 128,-1,17
 714.516129032 1352 714.516129032 1352 557 1352 c 2,18,-1
 324 1352 l 1,8,-1
147 0 m 1,19,-1
 147 1496 l 1,20,-1
 583 1496 l 2,21,22
 864 1496 864 1496 1007.5 1409.5 c 128,-1,23
 1151 1323 1151 1323 1151 1131 c 0,24,25
 1151 1016 1151 1016 1098.5 926.5 c 128,-1,26
 1046 837 1046 837 939 801 c 1,27,28
 1029 782 1029 782 1092.5 721.5 c 0,29,30
 1213 606.692913386 1213 606.692913386 1213 426 c 0,31,32
 1213 0 1213 0 670 0 c 2,33,-1
 147 0 l 1,19,-1
EndSplineSet
EndChar

StartChar: C
Encoding: 67 67 38
Width: 1289
GlyphClass: 2
Flags: HW
LayerCount: 2
Fore
SplineSet
1188 252 m 1,0,-1
 1246 107 l 1,1,2
 1100 -23 1100 -23 815 -23 c 0,3,4
 643 -23 643 -23 505.5 37.5 c 128,-1,5
 368 98 368 98 280 203 c 0,6,7
 99 418.965909091 99 418.965909091 99 750.67677477 c 0,8,9
 99 1082.38764045 99 1082.38764045 283 1300.5 c 0,10,11
 372 1406 372 1406 508.5 1465.5 c 128,-1,12
 645 1525 645 1525 814 1525 c 0,13,14
 1084 1525 1084 1525 1251 1389 c 1,15,-1
 1187 1254 l 1,16,17
 1034.32075472 1373 1034.32075472 1373 819 1373 c 0,18,19
 687 1373 687 1373 583.5 1322 c 128,-1,20
 480 1271 480 1271 416.5 1183.5 c 0,21,22
 288 1006.43307087 288 1006.43307087 288 746 c 0,23,24
 288 424.172131148 288 424.172131148 468 254.5 c 0,25,26
 601.139130435 129 601.139130435 129 818.264009662 129 c 128,-1,27
 1035.38888889 129 1035.38888889 129 1188 252 c 1,0,-1
640 1489 m 0,28,-1
640 0 m 0,29,-1
640 1489 m 0,30,-1
640 0 m 0,31,-1
640 1489 m 0,32,-1
640 0 m 0,33,-1
640 1489 m 0,34,-1
640 0 m 0,35,-1
EndSplineSet
EndChar

StartChar: D
Encoding: 68 68 39
Width: 1511
GlyphClass: 2
Flags: HW
LayerCount: 2
Fore
SplineSet
324 1341 m 1,0,-1
 324 155 l 1,1,-1
 639 155 l 2,2,3
 918 155 918 155 1070.5 301.5 c 128,-1,4
 1223 448 1223 448 1223 734 c 0,5,6
 1223 1131.52873563 1223 1131.52873563 957 1263 c 0,7,8
 799.186046512 1341 799.186046512 1341 540 1341 c 2,9,-1
 324 1341 l 1,0,-1
147 0 m 1,10,-1
 147 1496 l 1,11,-1
 519 1496 l 2,12,13
 1029.50877193 1496 1029.50877193 1496 1247 1254.5 c 0,14,15
 1412 1071.28571429 1412 1071.28571429 1412 720.500000002 c 0,16,17
 1412 369.714285714 1412 369.714285714 1196.33333333 184.857142857 c 0,18,19
 980.666666667 7.1054273576e-14 980.666666667 7.1054273576e-14 621 0 c 2,20,-1
 147 0 l 1,10,-1
761 1489 m 0,21,-1
761 745 m 0,22,-1
761 1489 m 0,23,-1
761 745 m 0,24,-1
761 1489 m 0,25,-1
761 745 m 0,26,-1
761 1489 m 0,27,-1
761 745 m 0,28,-1
EndSplineSet
EndChar

StartChar: E
Encoding: 69 69 40
Width: 1148
GlyphClass: 2
Flags: HW
LayerCount: 2
Fore
SplineSet
987 845 m 1,0,-1
 987 692 l 1,1,-1
 324 692 l 1,2,-1
 324 155 l 1,3,-1
 1058 155 l 1,4,-1
 1043 0 l 1,5,-1
 147 0 l 1,6,-1
 147 1496 l 1,7,-1
 1029 1496 l 1,8,-1
 1015 1341 l 1,9,-1
 324 1341 l 1,10,-1
 324 845 l 1,11,-1
 987 845 l 1,0,-1
570 1489 m 0,12,-1
570 0 m 0,13,-1
1026 10 m 0,14,-1
570 1489 m 0,15,-1
570 0 m 0,16,-1
1026 10 m 0,17,-1
570 1489 m 0,18,-1
570 0 m 0,19,-1
1026 10 m 0,20,-1
570 1489 m 0,21,-1
570 0 m 0,22,-1
1026 10 m 0,23,-1
EndSplineSet
EndChar

StartChar: F
Encoding: 70 70 41
Width: 1025
GlyphClass: 2
Flags: HW
LayerCount: 2
Fore
SplineSet
940 838 m 1,0,-1
 940 695 l 1,1,-1
 324 695 l 1,2,-1
 324 0 l 1,3,-1
 147 0 l 1,4,-1
 147 1496 l 1,5,-1
 974 1496 l 1,6,-1
 960 1341 l 1,7,-1
 324 1341 l 1,8,-1
 324 838 l 1,9,-1
 940 838 l 1,0,-1
EndSplineSet
EndChar

StartChar: G
Encoding: 71 71 42
Width: 1432
GlyphClass: 2
Flags: HW
LayerCount: 2
Fore
SplineSet
501.5 39 m 128,-1,1
 639 -23 639 -23 797.5 -23 c 128,-1,2
 956 -23 956 -23 1072 10 c 128,-1,3
 1188 43 1188 43 1321 123 c 1,4,-1
 1321 764 l 1,5,-1
 809 764 l 1,6,-1
 797 615 l 1,7,-1
 1167 615 l 1,8,-1
 1167 220 l 1,9,10
 1112 186 1112 186 1014.5 157.5 c 128,-1,11
 917 129 917 129 804.5 129 c 128,-1,12
 692 129 692 129 586.5 178 c 128,-1,13
 481 227 481 227 417.5 313 c 0,14,15
 290 485.677165354 290 485.677165354 290 745 c 0,16,17
 290 1071 290 1071 476 1246.5 c 0,18,19
 610.068376068 1373 610.068376068 1373 830 1373 c 0,20,21
 934 1373 934 1373 1039.5 1334.5 c 128,-1,22
 1145 1296 1145 1296 1210 1243 c 1,23,-1
 1275 1380 l 1,24,25
 1095 1525 1095 1525 816 1525 c 0,26,27
 641 1525 641 1525 502 1462.5 c 128,-1,28
 363 1400 363 1400 277 1291.5 c 0,29,30
 101 1069.45348837 101 1069.45348837 101 748.072674418 c 0,31,32
 101 426.691860465 101 426.691860465 278 207.5 c 0,33,0
 364 101 364 101 501.5 39 c 128,-1,1
716 1489 m 0,34,-1
716 0 m 0,35,-1
EndSplineSet
EndChar

StartChar: H
Encoding: 72 72 43
Width: 1465
GlyphClass: 2
Flags: HW
LayerCount: 2
Fore
SplineSet
1141 696 m 1,0,-1
 324 696 l 1,1,-1
 324 0 l 1,2,-1
 147 0 l 1,3,-1
 147 1496 l 1,4,-1
 324 1496 l 1,5,-1
 324 848 l 1,6,-1
 1141 848 l 1,7,-1
 1141 1496 l 1,8,-1
 1318 1496 l 1,9,-1
 1318 0 l 1,10,-1
 1141 0 l 1,11,-1
 1141 696 l 1,0,-1
733 1489 m 0,12,-1
733 745 m 0,13,-1
733 1489 m 0,14,-1
733 745 m 0,15,-1
733 1489 m 0,16,-1
733 745 m 0,17,-1
733 1489 m 0,18,-1
733 745 m 0,19,-1
EndSplineSet
EndChar

StartChar: I
Encoding: 73 73 44
Width: 509
GlyphClass: 2
Flags: HW
LayerCount: 2
Fore
SplineSet
340 1496 m 1,0,-1
 340 0 l 1,1,-1
 163 0 l 1,2,-1
 163 1496 l 1,3,-1
 340 1496 l 1,0,-1
255 1489 m 0,4,-1
458 10 m 0,5,-1
255 1489 m 0,6,-1
458 10 m 0,7,-1
EndSplineSet
EndChar

StartChar: J
Encoding: 74 74 45
Width: 550
GlyphClass: 2
Flags: HW
LayerCount: 2
Fore
SplineSet
226 181 m 2,0,-1
 226 1496 l 1,1,-1
 403 1496 l 1,2,-1
 403 241 l 2,3,4
 403 10.2571428571 403 10.2571428571 360.485311126 -69.9134133045 c 0,5,6
 317.970622253 -150.083969466 317.970622253 -150.083969466 237.591371732 -182.041984733 c 0,7,8
 157.212121212 -214 157.212121212 -214 16 -214 c 2,9,-1
 -19 -214 l 1,10,-1
 -40 -72 l 1,11,-1
 34 -72 l 2,12,13
 181.041666667 -72 181.041666667 -72 210.5 29 c 0,14,15
 226 82.1428571429 226 82.1428571429 226 181 c 2,0,-1
275 1489 m 0,16,-1
275 1489 m 0,17,-1
275 1489 m 0,18,-1
275 1489 m 0,19,-1
EndSplineSet
EndChar

StartChar: K
Encoding: 75 75 46
Width: 1228
GlyphClass: 2
Flags: HW
LayerCount: 2
Fore
SplineSet
582 799 m 1,0,-1
 1263 0 l 1,1,-1
 1040 0 l 1,2,-1
 440 703 l 1,3,-1
 323 602 l 1,4,-1
 323 0 l 1,5,-1
 146 0 l 1,6,-1
 146 1496 l 1,7,-1
 323 1496 l 1,8,-1
 323 770 l 1,9,-1
 961 1496 l 1,10,-1
 1194 1496 l 1,11,-1
 582 799 l 1,0,-1
614 1489 m 0,12,-1
614 0 m 0,13,-1
614 1489 m 0,14,-1
614 0 m 0,15,-1
614 1489 m 0,16,-1
614 0 m 0,17,-1
614 1489 m 0,18,-1
614 0 m 0,19,-1
EndSplineSet
EndChar

StartChar: L
Encoding: 76 76 47
Width: 980
GlyphClass: 2
Flags: HW
LayerCount: 2
Fore
SplineSet
148 1496 m 1,0,-1
 325 1496 l 1,1,-1
 325 155 l 1,2,-1
 982 155 l 1,3,-1
 970 0 l 1,4,-1
 148 0 l 1,5,-1
 148 1496 l 1,0,-1
480 1489 m 0,6,-1
480 0 m 0,7,-1
480 1489 m 0,8,-1
480 0 m 0,9,-1
480 1489 m 0,10,-1
480 0 m 0,11,-1
480 1489 m 0,12,-1
480 0 m 0,13,-1
EndSplineSet
EndChar

StartChar: M
Encoding: 77 77 48
Width: 1785
GlyphClass: 2
Flags: HW
LayerCount: 2
Fore
SplineSet
316 1181 m 1,0,-1
 316 0 l 1,1,-1
 149 0 l 1,2,-1
 149 1496 l 1,3,-1
 341 1496 l 1,4,-1
 900 347 l 1,5,-1
 1453 1496 l 1,6,-1
 1636 1496 l 1,7,-1
 1636 0 l 1,8,-1
 1470 0 l 1,9,-1
 1470 1175 l 1,10,-1
 998 183 l 1,11,-1
 797 183 l 1,12,-1
 316 1181 l 1,0,-1
EndSplineSet
EndChar

StartChar: N
Encoding: 78 78 49
Width: 1488
GlyphClass: 2
Flags: HW
LayerCount: 2
Fore
SplineSet
1341 0 m 1,0,-1
 1144 0 l 1,1,-1
 314 1239 l 1,2,-1
 314 0 l 1,3,-1
 147 0 l 1,4,-1
 147 1496 l 1,5,-1
 341 1496 l 1,6,-1
 1178 253 l 1,7,-1
 1178 1496 l 1,8,-1
 1341 1496 l 1,9,-1
 1341 0 l 1,0,-1
744 1489 m 0,10,-1
744 0 m 0,11,-1
744 1489 m 0,12,-1
744 0 m 0,13,-1
744 1489 m 0,14,-1
744 0 m 0,15,-1
744 1489 m 0,16,-1
744 0 m 0,17,-1
EndSplineSet
EndChar

StartChar: O
Encoding: 79 79 50
Width: 1657
GlyphClass: 2
Flags: HW
LayerCount: 2
Fore
SplineSet
829 1373 m 0,0,1
 565 1373 565 1373 426.5 1204.5 c 128,-1,2
 288 1036 288 1036 288 758.1640625 c 128,-1,3
 288 480.328125 288 480.328125 417 309 c 0,4,5
 481 224 481 224 586.5 176.5 c 128,-1,6
 692 129 692 129 815.5 129 c 128,-1,7
 939 129 939 129 1029 160.5 c 0,8,9
 1199.3960396 220.138613861 1199.3960396 220.138613861 1284.1980198 375.775189284 c 128,-1,10
 1369 531.411764706 1369 531.411764706 1369 733.205882353 c 128,-1,11
 1369 935 1369 935 1310 1074.5 c 128,-1,12
 1251 1214 1251 1214 1128.5 1293.5 c 128,-1,13
 1006 1373 1006 1373 829 1373 c 0,0,1
829 -23 m 128,-1,15
 653 -23 653 -23 513 35.5 c 128,-1,16
 373 94 373 94 283 197.5 c 0,17,18
 99 409.1 99 409.1 99 754.55 c 128,-1,19
 99 1100 99 1100 293 1312.5 c 128,-1,20
 487 1525 487 1525 829 1525 c 128,-1,21
 1171 1525 1171 1525 1364.5 1312.5 c 128,-1,22
 1558 1100 1558 1100 1558 754.55 c 128,-1,23
 1558 409.1 1558 409.1 1374 197.5 c 0,24,25
 1284 94 1284 94 1144.5 35.5 c 128,-1,14
 1005 -23 1005 -23 829 -23 c 128,-1,15
829 1489 m 0,26,-1
829 1489 m 0,27,-1
829 1489 m 0,28,-1
829 1489 m 0,29,-1
EndSplineSet
EndChar

StartChar: P
Encoding: 80 80 51
Width: 1159
GlyphClass: 2
Flags: HW
LayerCount: 2
Fore
SplineSet
323 780 m 1,0,1
 516 778 516 778 599 778 c 128,-1,2
 682 778 682 778 752 797 c 128,-1,3
 822 816 822 816 859.5 844 c 128,-1,4
 897 872 897 872 923.5 927.465116279 c 0,5,6
 950 982.930232558 950 982.930232558 950 1099.96511628 c 128,-1,7
 950 1217 950 1217 864.5 1277 c 128,-1,8
 779 1337 779 1337 632 1337 c 2,9,-1
 323 1337 l 1,10,-1
 323 780 l 1,0,1
323 0 m 1,11,-1
 146 0 l 1,12,-1
 146 1496 l 1,13,-1
 628 1496 l 2,14,15
 848.468085106 1496 848.468085106 1496 989.234042553 1400.11594203 c 0,16,17
 1130 1304.23188406 1130 1304.23188406 1130 1093 c 0,18,19
 1130 817.968253968 1130 817.968253968 957 709.5 c 0,20,21
 822.227848101 625 822.227848101 625 567 625 c 0,22,23
 464 625 464 625 323 638 c 1,24,-1
 323 0 l 1,11,-1
EndSplineSet
EndChar

StartChar: Q
Encoding: 81 81 52
Width: 1657
GlyphClass: 2
Flags: HW
LayerCount: 2
Fore
SplineSet
942 -17 m 1,0,1
 1038 31 1038 31 1089.5 31 c 0,2,3
 1103 31 1103 31 1111 26 c 1,4,5
 1154 -69 1154 -69 1249.5 -191.5 c 128,-1,6
 1345 -314 1345 -314 1385 -350 c 1,7,-1
 1267 -470 l 1,8,9
 1218 -421 1218 -421 1107.5 -276 c 128,-1,10
 997 -131 997 -131 942 -17 c 1,0,1
829 1373 m 0,11,12
 565 1373 565 1373 426.5 1204.5 c 128,-1,13
 288 1036 288 1036 288 758.1640625 c 128,-1,14
 288 480.328125 288 480.328125 417 309 c 0,15,16
 481 224 481 224 586.5 176.5 c 128,-1,17
 692 129 692 129 815.5 129 c 128,-1,18
 939 129 939 129 1029 160.5 c 0,19,20
 1199.3960396 220.138613861 1199.3960396 220.138613861 1284.1980198 375.775189284 c 128,-1,21
 1369 531.411764706 1369 531.411764706 1369 733.205882353 c 128,-1,22
 1369 935 1369 935 1310 1074.5 c 128,-1,23
 1251 1214 1251 1214 1128.5 1293.5 c 128,-1,24
 1006 1373 1006 1373 829 1373 c 0,11,12
829 -23 m 128,-1,26
 653 -23 653 -23 513 35.5 c 128,-1,27
 373 94 373 94 283 197.5 c 0,28,29
 99 409.1 99 409.1 99 754.55 c 128,-1,30
 99 1100 99 1100 293 1312.5 c 128,-1,31
 487 1525 487 1525 829 1525 c 128,-1,32
 1171 1525 1171 1525 1364.5 1312.5 c 128,-1,33
 1558 1100 1558 1100 1558 754.55 c 128,-1,34
 1558 409.1 1558 409.1 1374 197.5 c 0,35,36
 1284 94 1284 94 1144.5 35.5 c 128,-1,25
 1005 -23 1005 -23 829 -23 c 128,-1,26
829 1489 m 0,37,-1
829 1489 m 0,38,-1
829 1489 m 0,39,-1
829 1489 m 0,40,-1
EndSplineSet
EndChar

StartChar: R
Encoding: 82 82 53
Width: 1339
GlyphClass: 2
Flags: HW
LayerCount: 2
Fore
SplineSet
324 1341 m 1,0,-1
 324 841 l 1,1,-1
 679 837 l 2,2,3
 684.806348166 836.942511404 684.806348166 836.942511404 690.508361207 836.942511404 c 0,4,5
 881.586353637 836.942511404 881.586353637 836.942511404 954.793176819 900.882648107 c 128,-1,6
 1028 964.82278481 1028 964.82278481 1028 1093.91139241 c 128,-1,7
 1028 1223 1028 1223 957.5 1282 c 128,-1,8
 887 1341 887 1341 720 1341 c 2,9,-1
 324 1341 l 1,0,-1
1272 0 m 1,10,-1
 1072 0 l 1,11,-1
 868 464 l 2,12,13
 785 651 785 651 762 689 c 1,14,15
 690 684 690 684 589 684 c 1,16,-1
 324 692 l 1,17,-1
 324 0 l 1,18,-1
 147 0 l 1,19,-1
 147 1496 l 1,20,-1
 620 1496 l 2,21,22
 880.891891892 1496 880.891891892 1496 992.395256711 1451.15625546 c 128,-1,23
 1103.89862153 1406.31251091 1103.89862153 1406.31251091 1152.94931077 1324.22768402 c 128,-1,24
 1202 1242.14285714 1202 1242.14285714 1202 1102.07142857 c 128,-1,25
 1202 962 1202 962 1131.5 862 c 1,26,-1
 919.977664251 723.962485389 l 1,27,28
 919.977664251 722.320422954 919.977664251 722.320422954 962.771276595 648.80319149 c 0,29,30
 1006.54255319 573.606382979 1006.54255319 573.606382979 1030 522 c 2,31,-1
 1272 0 l 1,10,-1
642 1489 m 0,32,-1
642 0 m 0,33,-1
642 1489 m 0,34,-1
642 0 m 0,35,-1
642 1489 m 0,36,-1
642 0 m 0,37,-1
642 1489 m 0,38,-1
642 0 m 0,39,-1
EndSplineSet
EndChar

StartChar: S
Encoding: 83 83 54
Width: 1227
GlyphClass: 2
Flags: HW
LayerCount: 2
Fore
SplineSet
1089 1418 m 1,0,1
 916.489795918 1525 916.489795918 1525 651.244897959 1525 c 128,-1,2
 386 1525 386 1525 241 1422.5 c 128,-1,3
 96 1320 96 1320 96 1109 c 0,4,5
 96 834 96 834 433 749 c 2,6,-1
 727 675 l 2,7,8
 863 641 863 641 914.5 581.5 c 128,-1,9
 966 522 966 522 966 426 c 0,10,11
 966 130 966 130 641 130 c 0,12,13
 377 130 377 130 146 244 c 1,14,-1
 94 100 l 1,15,16
 175 50 175 50 313.5 13.5 c 128,-1,17
 452 -23 452 -23 630 -23 c 0,18,19
 868 -23 868 -23 1006.5 91.5 c 128,-1,20
 1145 206 1145 206 1145 432 c 0,21,22
 1145 606 1145 606 1052 700.5 c 128,-1,23
 959 795 959 795 779 838 c 2,24,-1
 498 906 l 2,25,26
 387 933 387 933 331.5 984.5 c 128,-1,27
 276 1036 276 1036 276 1121 c 0,28,29
 276 1372 276 1372 638 1372 c 0,30,31
 751 1372 751 1372 861.5 1343 c 128,-1,32
 972 1314 972 1314 1039 1277 c 1,33,-1
 1089 1418 l 1,0,1
615 1489 m 0,34,-1
615 0 m 0,35,-1
EndSplineSet
EndChar

StartChar: T
Encoding: 84 84 55
Width: 1066
GlyphClass: 2
Flags: HW
LayerCount: 2
Fore
SplineSet
-3 1341 m 1,0,-1
 -3 1496 l 1,1,-1
 1069 1496 l 1,2,-1
 1069 1341 l 1,3,-1
 621 1341 l 1,4,-1
 621 0 l 1,5,-1
 444 0 l 1,6,-1
 444 1341 l 1,7,-1
 -3 1341 l 1,0,-1
533 1489 m 0,8,-1
533 0 m 0,9,-1
533 745 m 0,10,-1
533 1489 m 0,11,-1
533 0 m 0,12,-1
533 745 m 0,13,-1
533 1489 m 0,14,-1
533 0 m 0,15,-1
533 745 m 0,16,-1
533 1489 m 0,17,-1
533 0 m 0,18,-1
533 745 m 0,19,-1
EndSplineSet
EndChar

StartChar: U
Encoding: 85 85 56
Width: 1386
GlyphClass: 2
Flags: HW
LayerCount: 2
Fore
SplineSet
688 -23 m 0,0,1
 321.978417266 -23 321.978417266 -23 199.5 192.5 c 0,2,3
 127 320.063291139 127 320.063291139 127 523 c 2,4,-1
 127 1496 l 1,5,-1
 304 1496 l 1,6,-1
 304 529 l 2,7,8
 304 312 304 312 394 218.5 c 128,-1,9
 484 125 484 125 688 125 c 128,-1,10
 892 125 892 125 982.5 218.5 c 128,-1,11
 1073 312 1073 312 1073 529 c 2,12,-1
 1073 1496 l 1,13,-1
 1250 1496 l 1,14,-1
 1250 523 l 2,15,16
 1250 205.015748031 1250 205.015748031 1074.5 76.5 c 0,17,18
 938.623655914 -23 938.623655914 -23 688 -23 c 0,0,1
693 1489 m 0,19,-1
1247 10 m 0,20,-1
693 1489 m 0,21,-1
1247 10 m 0,22,-1
693 1489 m 0,23,-1
1247 10 m 0,24,-1
693 1489 m 0,25,-1
1247 10 m 0,26,-1
EndSplineSet
EndChar

StartChar: V
Encoding: 86 86 57
Width: 1265
GlyphClass: 2
Flags: HW
LayerCount: 2
Fore
SplineSet
632 194 m 1,0,1
 930 1053 930 1053 1089 1496 c 1,2,-1
 1275 1496 l 1,3,-1
 728 0 l 1,4,-1
 536 0 l 1,5,-1
 -10 1496 l 1,6,-1
 181 1496 l 1,7,-1
 632 194 l 1,0,1
EndSplineSet
EndChar

StartChar: W
Encoding: 87 87 58
Width: 2131
GlyphClass: 2
Flags: HW
LayerCount: 2
Fore
SplineSet
1541 195 m 1,0,-1
 1976 1496 l 1,1,-1
 2158 1496 l 1,2,-1
 1645 0 l 1,3,-1
 1435 0 l 1,4,-1
 1084 1225 l 1,5,-1
 684 0 l 1,6,-1
 476 0 l 1,7,-1
 -27 1496 l 1,8,-1
 156 1496 l 1,9,-1
 586 197 l 1,10,-1
 976 1442 l 1,11,-1
 1186 1442 l 1,12,-1
 1541 195 l 1,0,-1
1061 1489 m 0,13,-1
1066 1489 m 0,14,-1
EndSplineSet
EndChar

StartChar: X
Encoding: 88 88 59
Width: 1299
GlyphClass: 2
Flags: HW
LayerCount: 2
Fore
SplineSet
11 0 m 1,0,-1
 536 781 l 1,1,-1
 43 1496 l 1,2,-1
 257 1496 l 1,3,-1
 660 892 l 1,4,-1
 1090 1496 l 1,5,-1
 1280 1496 l 1,6,-1
 781 781 l 1,7,-1
 1288 0 l 1,8,-1
 1083 0 l 1,9,-1
 653 680 l 1,10,-1
 206 0 l 1,11,-1
 11 0 l 1,0,-1
EndSplineSet
EndChar

StartChar: Y
Encoding: 89 89 60
Width: 1242
GlyphClass: 2
Flags: HW
LayerCount: 2
Fore
SplineSet
1243 1496 m 1,0,-1
 687 614 l 1,1,-1
 687 0 l 1,2,-1
 510 0 l 1,3,-1
 510 614 l 1,4,-1
 -1 1496 l 1,5,-1
 187 1496 l 1,6,-1
 610 778 l 1,7,-1
 1051 1496 l 1,8,-1
 1243 1496 l 1,0,-1
621 1489 m 0,9,-1
621 1489 m 0,10,-1
621 1489 m 0,11,-1
621 1489 m 0,12,-1
EndSplineSet
EndChar

StartChar: Z
Encoding: 90 90 61
Width: 1200
GlyphClass: 2
Flags: HW
LayerCount: 2
Fore
SplineSet
1157 1496 m 1,0,-1
 1157 1372 l 1,1,-1
 315 155 l 1,2,-1
 1149 155 l 1,3,-1
 1137 0 l 1,4,-1
 91 0 l 1,5,-1
 91 139 l 1,6,-1
 922 1341 l 1,7,-1
 125 1341 l 1,8,-1
 125 1496 l 1,9,-1
 1157 1496 l 1,0,-1
600 1489 m 0,10,-1
600 1489 m 0,11,-1
600 1489 m 0,12,-1
600 1489 m 0,13,-1
EndSplineSet
EndChar

StartChar: bracketleft
Encoding: 91 91 62
Width: 678
GlyphClass: 2
Flags: HW
LayerCount: 2
Fore
SplineSet
570 -139 m 1,0,-1
 570 -261 l 1,1,-1
 121 -261 l 1,2,-1
 121 1505 l 1,3,-1
 570 1505 l 1,4,-1
 570 1381 l 1,5,-1
 299 1381 l 1,6,-1
 299 -139 l 1,7,-1
 570 -139 l 1,0,-1
EndSplineSet
EndChar

StartChar: backslash
Encoding: 92 92 63
Width: 935
GlyphClass: 2
Flags: HW
LayerCount: 2
Fore
SplineSet
881 -120 m 1,0,-1
 735 -120 l 1,1,-1
 82 1466 l 1,2,-1
 230 1466 l 1,3,-1
 881 -120 l 1,0,-1
EndSplineSet
EndChar

StartChar: bracketright
Encoding: 93 93 64
Width: 678
GlyphClass: 2
Flags: HW
LayerCount: 2
Fore
SplineSet
109 -139 m 1,0,-1
 380 -139 l 1,1,-1
 380 1381 l 1,2,-1
 109 1381 l 1,3,-1
 109 1505 l 1,4,-1
 558 1505 l 1,5,-1
 558 -261 l 1,6,-1
 109 -261 l 1,7,-1
 109 -139 l 1,0,-1
EndSplineSet
EndChar

StartChar: asciicircum
Encoding: 94 94 65
Width: 1204
GlyphClass: 2
Flags: HW
LayerCount: 2
Fore
SplineSet
227 627 m 1,0,-1
 90 627 l 1,1,-1
 546 1559 l 1,2,-1
 651 1559 l 1,3,-1
 1113 627 l 1,4,-1
 979 627 l 1,5,-1
 595 1375 l 1,6,-1
 227 627 l 1,0,-1
EndSplineSet
EndChar

StartChar: underscore
Encoding: 95 95 66
Width: 1252
GlyphClass: 2
Flags: HW
LayerCount: 2
Fore
SplineSet
1102 -156 m 1,0,-1
 1102 -292 l 1,1,-1
 150 -292 l 1,2,-1
 150 -156 l 1,3,-1
 1102 -156 l 1,0,-1
EndSplineSet
EndChar

StartChar: grave
Encoding: 96 96 67
Width: 643
GlyphClass: 2
Flags: HW
LayerCount: 2
Fore
SplineSet
408 1251 m 1,0,-1
 85 1638 l 1,1,-1
 335 1638 l 1,2,-1
 520 1251 l 1,3,-1
 408 1251 l 1,0,-1
302 1098 m 0,4,-1
302 1098 m 0,5,-1
302 1098 m 0,6,-1
302 1098 m 0,7,-1
EndSplineSet
EndChar

StartChar: a
Encoding: 97 97 68
Width: 1046
GlyphClass: 2
Flags: HW
LayerCount: 2
Fore
SplineSet
303.5 149.5 m 128,-1,1
 353 107 353 107 436 107 c 128,-1,2
 519 107 519 107 612.5 152 c 128,-1,3
 706 197 706 197 757 269 c 1,4,-1
 757 539 l 2,5,6
 757 537.61 757 537.61 658.5 524.805 c 128,-1,7
 560 512 560 512 495 498 c 0,8,9
 352.753980288 467.362395754 352.753980288 467.362395754 303.376990144 418.917046934 c 128,-1,10
 254 370.471698113 254 370.471698113 254 281.235849057 c 128,-1,0
 254 192 254 192 303.5 149.5 c 128,-1,1
541 983 m 0,11,12
 352.727272727 983 352.727272727 983 198 909 c 1,13,-1
 152 1041 l 1,14,15
 217 1077 217 1077 321 1100.5 c 128,-1,16
 425 1124 425 1124 537 1124 c 0,17,18
 924 1124 924 1124 924 806 c 2,19,-1
 924 0 l 1,20,-1
 787 0 l 1,21,-1
 762 120 l 1,22,23
 633 -25 633 -25 419 -25 c 0,24,25
 278.277777778 -25 278.277777778 -25 182.138888889 50.239130435 c 128,-1,26
 86 125.47826087 86 125.47826087 86 275 c 0,27,28
 86 466 86 466 258 550 c 1,29,30
 370.181818182 606.090909091 370.181818182 606.090909091 647 643 c 1,31,-1
 757 656 l 1,32,-1
 757 781 l 2,33,34
 757 983 757 983 541 983 c 0,11,12
536 1098 m 0,35,-1
536 1098 m 0,36,-1
520 1098 m 0,37,-1
931 10 m 0,38,-1
EndSplineSet
EndChar

StartChar: b
Encoding: 98 98 69
Width: 1171
GlyphClass: 2
Flags: HW
LayerCount: 2
Fore
SplineSet
426.5 25 m 128,-1,1
 518 -25 518 -25 630 -25 c 128,-1,2
 742 -25 742 -25 832 21.5 c 128,-1,3
 922 68 922 68 978.5 149.5 c 0,4,5
 1094 316.10619469 1094 316.10619469 1094 552.231668774 c 0,6,7
 1094 788.357142857 1094 788.357142857 978 952 c 0,8,9
 922 1031 922 1031 832.5 1077.5 c 128,-1,10
 743 1124 743 1124 638.5 1124 c 128,-1,11
 534 1124 534 1124 440.5 1076.5 c 128,-1,12
 347 1029 347 1029 287 930 c 1,13,-1
 287 1510 l 1,14,-1
 119 1490 l 1,15,-1
 119 0 l 1,16,-1
 285 0 l 1,17,-1
 285 163 l 1,18,0
 335 75 335 75 426.5 25 c 128,-1,1
608 113 m 0,19,20
 532 113 532 113 467 147.5 c 128,-1,21
 402 182 402 182 363 243.5 c 0,22,23
 285 366.5 285 366.5 285 554.75 c 128,-1,24
 285 743 285 743 380 863.5 c 128,-1,25
 475 984 475 984 621 986 c 1,26,27
 704 986 704 986 765.5 946.5 c 128,-1,28
 827 907 827 907 859 841 c 0,29,30
 921 713.125 921 713.125 921 551 c 0,31,32
 921 331.582089552 921 331.582089552 825.5 209 c 0,33,34
 750.709302326 113 750.709302326 113 608 113 c 0,19,20
EndSplineSet
EndChar

StartChar: c
Encoding: 99 99 70
Width: 953
GlyphClass: 2
Flags: HW
LayerCount: 2
Fore
SplineSet
903 1029 m 1,0,1
 803.777777778 1124 803.777777778 1124 604 1124 c 0,2,3
 485 1124 485 1124 384.5 1077 c 128,-1,4
 284 1030 284 1030 218 950 c 0,5,6
 78.0124504371 780.318121742 78.0124504371 780.318121742 78.0124504371 543.899256249 c 0,7,8
 78.0124504371 311.946720462 78.0124504371 311.946720462 213.5 147.5 c 0,9,10
 279 68 279 68 381 21.5 c 128,-1,11
 483 -25 483 -25 587.5 -25 c 0,12,13
 797.87755102 -25 797.87755102 -25 904 75 c 1,14,-1
 862 195 l 1,15,16
 746 113 746 113 615 113 c 0,17,18
 451 113 451 113 349.5 234 c 128,-1,19
 248 355 248 355 248 545 c 128,-1,20
 248 735 248 735 349.5 860.5 c 128,-1,21
 451 986 451 986 599 986 c 128,-1,22
 747 986 747 986 861 910 c 1,23,-1
 903 1029 l 1,0,1
474 1098 m 0,24,-1
474 0 m 0,25,-1
EndSplineSet
EndChar

StartChar: d
Encoding: 100 100 71
Width: 1173
GlyphClass: 2
Flags: HW
LayerCount: 2
Fore
SplineSet
557 124 m 0,0,1
 475 124 475 124 413.5 160.5 c 128,-1,2
 352 197 352 197 317.5 259.5 c 0,3,4
 250 381.782608696 250 381.782608696 250 549.391304348 c 128,-1,5
 250 717 250 717 318 841 c 0,6,7
 352 903 352 903 413.5 940 c 128,-1,8
 475 977 475 977 557.5 977 c 0,9,10
 726.372881356 977 726.372881356 977 806.686440678 855.5 c 128,-1,11
 887 734 887 734 887 549 c 128,-1,12
 887 364 887 364 802.5 244 c 128,-1,13
 718 124 718 124 557 124 c 0,0,1
546 -24 m 0,14,15
 656 -24 656 -24 745.5 30 c 128,-1,16
 835 84 835 84 884 172 c 1,17,-1
 905 0 l 1,18,-1
 1054 0 l 1,19,-1
 1054 1510 l 1,20,-1
 886 1490 l 1,21,-1
 886 937 l 1,22,23
 844 1023 844 1023 747.5 1074 c 128,-1,24
 651 1125 651 1125 527.5 1125 c 128,-1,25
 404 1125 404 1125 297.5 1049 c 128,-1,26
 191 973 191 973 134 845 c 128,-1,27
 77 717 77 717 77 562 c 0,28,29
 77 300 77 300 202.5 138 c 128,-1,30
 328 -24 328 -24 546 -24 c 0,14,15
585 549 m 0,31,-1
585 549 m 0,32,-1
585 549 m 0,33,-1
585 549 m 0,34,-1
EndSplineSet
EndChar

StartChar: e
Encoding: 101 101 72
Width: 1085
GlyphClass: 2
Flags: HW
LayerCount: 2
Fore
SplineSet
1001 519 m 1,0,-1
 1003 594 l 1,1,2
 1003 838 1003 838 884.5 981 c 128,-1,3
 766 1124 766 1124 562 1124 c 1,4,5
 348 1118 348 1118 213 957.5 c 128,-1,6
 78 797 78 797 78 541 c 128,-1,7
 78 285 78 285 213 130 c 128,-1,8
 348 -25 348 -25 590.5 -25 c 128,-1,9
 833 -25 833 -25 987 107 c 1,10,-1
 935 229 l 1,11,12
 773 119 773 119 587 119 c 0,13,14
 440 119 440 119 345 228 c 128,-1,15
 250 337 250 337 250 519 c 1,16,-1
 1001 519 l 1,0,-1
256 635 m 1,17,18
 270 797 270 797 353 892.5 c 128,-1,19
 436 988 436 988 561.5 988 c 128,-1,20
 687 988 687 988 764 896.5 c 128,-1,21
 841 805 841 805 841 635 c 1,22,-1
 256 635 l 1,17,18
541 1098 m 0,23,-1
541 0 m 0,24,-1
976 10 m 0,25,-1
EndSplineSet
EndChar

StartChar: f
Encoding: 102 102 73
Width: 641
GlyphClass: 2
Flags: HW
LayerCount: 2
Fore
SplineSet
39 980 m 1,0,-1
 39 1098 l 1,1,-1
 200 1098 l 1,2,3
 200 1365.81132075 200 1365.81132075 277.758620689 1450.90566038 c 128,-1,4
 355.517241379 1536 355.517241379 1536 558 1536 c 2,5,-1
 631 1536 l 1,6,-1
 651 1408 l 1,7,-1
 557 1408 l 2,8,9
 451.772727273 1408 451.772727273 1408 418.932755389 1373.59621993 c 128,-1,10
 386.092783505 1339.19243986 386.092783505 1339.19243986 379.546391753 1302.09621993 c 0,11,12
 368 1236.66666667 368 1236.66666667 368 1158.5 c 2,13,-1
 368 1098 l 1,14,-1
 617 1098 l 1,15,-1
 617 980 l 1,16,-1
 368 980 l 1,17,-1
 368 0 l 1,18,-1
 200 0 l 1,19,-1
 200 980 l 1,20,-1
 39 980 l 1,0,-1
EndSplineSet
EndChar

StartChar: g
Encoding: 103 103 74
Width: 1165
GlyphClass: 2
Flags: HW
LayerCount: 2
Fore
SplineSet
889 180 m 1,0,1
 765.551724138 1 765.551724138 1 564.5 1 c 0,2,3
 283.591549296 1 283.591549296 1 153 245 c 0,4,5
 80 381.394736842 80 381.394736842 80 545 c 0,6,7
 80 850.053571429 80 850.053571429 249 1010 c 0,8,9
 369.452830189 1124 369.452830189 1124 568.226415094 1124 c 128,-1,10
 767 1124 767 1124 894 951 c 1,11,-1
 894 1098 l 1,12,-1
 1057 1098 l 1,13,-1
 1057 79 l 2,14,15
 1057 -156 1057 -156 999.76300578 -270.473988439 c 128,-1,16
 942.526011561 -384.947976879 942.526011561 -384.947976879 824.447216307 -443.473988439 c 128,-1,17
 706.368421053 -502 706.368421053 -502 502 -502 c 2,18,-1
 324 -502 l 1,19,-1
 302 -351 l 1,20,-1
 506 -351 l 2,21,22
 680.345454545 -351 680.345454545 -351 761.692319436 -297.737171798 c 128,-1,23
 843.039184326 -244.474343596 843.039184326 -244.474343596 866.019592163 -153.403838465 c 128,-1,24
 889 -62.3333333333 889 -62.3333333333 889 83 c 2,25,-1
 889 180 l 1,0,1
578 143 m 0,26,27
 772.635416667 143 772.635416667 143 849.5 300 c 0,28,29
 894 390.893617021 894 390.893617021 894 516 c 2,30,-1
 894 597 l 2,31,32
 894 760.459459459 894 760.459459459 818.101851852 871.229729729 c 128,-1,33
 742.203703704 982 742.203703704 982 577 982 c 0,34,35
 493 982 493 982 427.5 942.5 c 128,-1,36
 362 903 362 903 325.5 838.5 c 0,37,38
 252 708.616438356 252 708.616438356 252 554 c 0,39,40
 252 356.094594595 252 356.094594595 364 233.5 c 0,41,42
 446.679012346 143 446.679012346 143 578 143 c 0,26,27
583 1098 m 0,43,-1
583 1098 m 0,44,-1
583 1098 m 0,45,-1
584 1098 m 0,46,-1
EndSplineSet
EndChar

StartChar: h
Encoding: 104 104 75
Width: 1112
GlyphClass: 2
Flags: HW
LayerCount: 2
Fore
SplineSet
282 0 m 1,0,-1
 282 748 l 1,1,2
 304 833 304 833 401 906.5 c 128,-1,3
 498 980 498 980 612.094339623 980 c 0,4,5
 726.188679245 980 726.188679245 980 782.594339623 918.989795919 c 0,6,7
 839 857.979591837 839 857.979591837 839 617 c 2,8,-1
 839 0 l 1,9,-1
 1007 0 l 1,10,-1
 1007 664 l 2,11,12
 1007 885 1007 885 924.5 1004.5 c 128,-1,13
 842 1124 842 1124 674 1124 c 0,14,15
 427 1124 427 1124 282 949 c 1,16,-1
 282 1510 l 1,17,-1
 114 1490 l 1,18,-1
 114 0 l 1,19,-1
 282 0 l 1,0,-1
556 1098 m 0,20,-1
556 549 m 0,21,-1
556 1098 m 0,22,-1
556 549 m 0,23,-1
556 1098 m 0,24,-1
556 549 m 0,25,-1
556 1098 m 0,26,-1
556 549 m 0,27,-1
EndSplineSet
EndChar

StartChar: i
Encoding: 105 105 76
Width: 466
GlyphClass: 2
Flags: HW
LayerCount: 2
Fore
SplineSet
327 1496 m 1,0,-1
 327 1298 l 1,1,-1
 159 1298 l 1,2,-1
 159 1496 l 1,3,-1
 327 1496 l 1,0,-1
327 1098 m 1,4,-1
 327 0 l 1,5,-1
 159 0 l 1,6,-1
 159 1098 l 1,7,-1
 327 1098 l 1,4,-1
EndSplineSet
EndChar

StartChar: j
Encoding: 106 106 77
Width: 445
GlyphClass: 2
Flags: HW
LayerCount: 2
Fore
SplineSet
330 1496 m 1,0,-1
 330 1298 l 1,1,-1
 162 1298 l 1,2,-1
 162 1496 l 1,3,-1
 330 1496 l 1,0,-1
330 1098 m 1,4,-1
 330 -139 l 2,5,6
 330 -245 330 -245 316.5 -310 c 128,-1,7
 303 -375 303 -375 265.5 -420.5 c 128,-1,8
 228 -466 228 -466 164 -484 c 128,-1,9
 100 -502 100 -502 -3 -502 c 2,10,-1
 -55 -502 l 1,11,-1
 -77 -351 l 1,12,-1
 -25 -351 l 2,13,14
 93.3125 -351 93.3125 -351 122.409365265 -315.18847352 c 0,15,16
 151.50623053 -279.37694704 151.50623053 -279.37694704 156.753115265 -235.902759234 c 0,17,18
 162 -192.428571429 162 -192.428571429 162 -121 c 2,19,-1
 162 1098 l 1,20,-1
 330 1098 l 1,4,-1
EndSplineSet
EndChar

StartChar: k
Encoding: 107 107 78
Width: 1006
GlyphClass: 2
Flags: HW
LayerCount: 2
Fore
SplineSet
114 1490 m 1,0,-1
 282 1510 l 1,1,-1
 282 632 l 1,2,-1
 771 1098 l 1,3,-1
 998 1098 l 1,4,-1
 529 642 l 1,5,-1
 1031 0 l 1,6,-1
 816 0 l 1,7,-1
 401 563 l 1,8,-1
 282 461 l 1,9,-1
 282 0 l 1,10,-1
 114 0 l 1,11,-1
 114 1490 l 1,0,-1
503 0 m 0,12,-1
503 0 m 0,13,-1
503 0 m 0,14,-1
498 0 m 0,15,-1
EndSplineSet
EndChar

StartChar: l
Encoding: 108 108 79
Width: 550
GlyphClass: 2
Flags: HW
LayerCount: 2
Fore
SplineSet
311 1510 m 1,0,-1
 311 431 l 2,1,2
 311 230.666666667 311 230.666666667 323.5 197.333333333 c 128,-1,3
 336 164 336 164 354.8 140.5 c 128,-1,4
 373.6 117 373.6 117 432 117 c 0,5,6
 444 117 444 117 522 123 c 1,7,-1
 533 -8 l 1,8,9
 459 -21 459 -21 410 -21 c 128,-1,10
 361 -21 361 -21 319 -11.5 c 128,-1,11
 277 -2 277 -2 246.5 11 c 128,-1,12
 216 24 216 24 197 58 c 128,-1,13
 178 92 178 92 166.5 121.5 c 0,14,15
 143 181.782608696 143 181.782608696 143 468 c 2,16,-1
 143 1490 l 1,17,-1
 311 1510 l 1,0,-1
297 1098 m 0,18,-1
297 -1 m 0,19,-1
552 1098 m 0,20,-1
297 1098 m 0,21,-1
552 1098 m 0,22,-1
297 1098 m 0,23,-1
552 1098 m 0,24,-1
297 1098 m 0,25,-1
297 0 m 0,26,-1
552 1098 m 0,27,-1
EndSplineSet
EndChar

StartChar: m
Encoding: 109 109 80
Width: 1773
GlyphClass: 2
Flags: HW
LayerCount: 2
Fore
SplineSet
111 1098 m 1,0,-1
 114 820 l 1,1,-1
 114 0 l 1,2,-1
 282 0 l 1,3,-1
 282 749 l 1,4,5
 311 840 311 840 405.5 909.5 c 128,-1,6
 500 979 500 979 621 979 c 0,7,8
 797.222222222 979 797.222222222 979 820 733 c 0,9,10
 825 679 825 679 825 608 c 2,11,-1
 825 0 l 1,12,-1
 993 0 l 1,13,-1
 993 731 l 1,14,15
 1032 843 1032 843 1116 911 c 128,-1,16
 1200 979 1200 979 1298.61818182 979 c 0,17,18
 1397.23636364 979 1397.23636364 979 1439.34804329 925.136223705 c 0,19,20
 1481.45972293 871.272447409 1481.45972293 871.272447409 1490.72986146 789.386223705 c 0,21,22
 1500 707.5 1500 707.5 1500 573 c 2,23,-1
 1500 0 l 1,24,-1
 1668 0 l 1,25,-1
 1668 697 l 2,26,27
 1668 1124 1668 1124 1330 1124 c 0,28,29
 1083 1124 1083 1124 950 921 c 1,30,31
 913 1028 913 1028 836.5 1076 c 128,-1,32
 760 1124 760 1124 641 1124 c 0,33,34
 414.510638298 1124 414.510638298 1124 271 934 c 1,35,-1
 255 1098 l 1,36,-1
 111 1098 l 1,0,-1
EndSplineSet
EndChar

StartChar: n
Encoding: 110 110 81
Width: 1112
GlyphClass: 2
Flags: HW
LayerCount: 2
Fore
SplineSet
661 1124 m 0,0,1
 839 1124 839 1124 923 1007.5 c 128,-1,2
 1007 891 1007 891 1007 657 c 2,3,-1
 1007 0 l 1,4,-1
 839 0 l 1,5,-1
 839 551 l 2,6,7
 839 774.944444444 839 774.944444444 824.5 822.472222222 c 0,8,9
 794.980519481 919.23051948 794.980519481 919.23051948 749.893485547 949.61525974 c 128,-1,10
 704.806451613 980 704.806451613 980 625 980 c 0,11,12
 497 980 497 980 401 907 c 128,-1,13
 305 834 305 834 282 750 c 1,14,-1
 282 0 l 1,15,-1
 114 0 l 1,16,-1
 114 831 l 1,17,-1
 111 1098 l 1,18,-1
 255 1098 l 1,19,-1
 271 935 l 1,20,21
 334 1022 334 1022 440 1073 c 128,-1,22
 546 1124 546 1124 661 1124 c 0,0,1
554 1098 m 0,23,-1
554 0 m 0,24,-1
554 1098 m 0,25,-1
554 0 m 0,26,-1
554 1098 m 0,27,-1
554 0 m 0,28,-1
554 1098 m 0,29,-1
554 0 m 0,30,-1
EndSplineSet
EndChar

StartChar: o
Encoding: 111 111 82
Width: 1179
GlyphClass: 2
Flags: HW
LayerCount: 2
Fore
SplineSet
909 384 m 0,0,1
 928 460 928 460 928 549 c 0,2,3
 928 731.789473684 928 731.789473684 850.72 858.894736842 c 128,-1,4
 773.44 986 773.44 986 594 986 c 0,5,6
 509 986 509 986 441.5 949 c 128,-1,7
 374 912 374 912 333 849 c 0,8,9
 250 721.463414634 250 721.463414634 250 545.475609756 c 128,-1,10
 250 369.487804878 250 369.487804878 336.196721312 241.243902439 c 128,-1,11
 422.393442623 113 422.393442623 113 597 113 c 0,12,13
 841.25 113 841.25 113 909 384 c 0,0,1
573.5 -25 m 0,14,15
 433 -25 433 -25 314 53 c 128,-1,16
 195 131 195 131 136 259 c 128,-1,17
 77 387 77 387 77 546.5 c 128,-1,18
 77 706 77 706 136.5 835.5 c 128,-1,19
 196 965 196 965 316 1044.5 c 128,-1,20
 436 1124 436 1124 597 1124 c 0,21,22
 884.472222222 1124 884.472222222 1124 1020.5 888 c 0,23,24
 1102 746.602409639 1102 746.602409639 1102 529.840887359 c 128,-1,25
 1102 313.079365079 1102 313.079365079 968.88125 144.03968254 c 128,-1,26
 835.7625 -25 835.7625 -25 573.5 -25 c 0,14,15
590 1098 m 0,27,-1
590 1098 m 0,28,-1
590 1098 m 0,29,-1
590 1098 m 0,30,-1
EndSplineSet
EndChar

StartChar: p
Encoding: 112 112 83
Width: 1167
GlyphClass: 2
Flags: HW
LayerCount: 2
Fore
SplineSet
306 716.5 m 0,0,1
 288 640 288 640 288 548.5 c 0,2,3
 288 364.178082192 288 364.178082192 362.879166666 241.089041096 c 128,-1,4
 437.758333333 118 437.758333333 118 605 118 c 0,5,6
 687 118 687 118 750 156.5 c 128,-1,7
 813 195 813 195 848 259 c 0,8,9
 917 385.171428571 917 385.171428571 917 548 c 0,10,11
 917 760.457142857 917 760.457142857 814 887 c 0,12,13
 736.674418605 982 736.674418605 982 605 982 c 0,14,15
 368.470588235 982 368.470588235 982 306 716.5 c 0,0,1
123 -459 m 1,16,-1
 123 1098 l 1,17,-1
 281 1098 l 1,18,-1
 291 951 l 1,19,20
 420 1124 420 1124 630 1124 c 0,21,22
 748 1124 748 1124 838 1077.5 c 128,-1,23
 928 1031 928 1031 982 949 c 0,24,25
 1090 785 1090 785 1090 546.25862069 c 128,-1,26
 1090 307.517241379 1090 307.517241379 968 144.5 c 0,27,28
 910 67 910 67 822 21 c 128,-1,29
 734 -25 734 -25 630 -25 c 0,30,31
 402 -25 402 -25 291 160 c 1,32,-1
 291 -437 l 1,33,-1
 123 -459 l 1,16,-1
EndSplineSet
EndChar

StartChar: q
Encoding: 113 113 84
Width: 1172
GlyphClass: 2
Flags: HW
LayerCount: 2
Fore
SplineSet
853.5 765 m 128,-1,1
 886 672 886 672 886 575.5 c 128,-1,2
 886 479 886 479 874.5 416.5 c 128,-1,3
 863 354 863 354 838 299.5 c 128,-1,4
 813 245 813 245 775.5 206 c 128,-1,5
 738 167 738 167 682.5 145 c 128,-1,6
 627 123 627 123 559 123 c 128,-1,7
 491 123 491 123 436.5 148 c 0,8,9
 339.157811574 192.652380012 339.157811574 192.652380012 294.578905787 303.130537832 c 128,-1,10
 250 413.608695652 250 413.608695652 250 513.304347826 c 128,-1,11
 250 613 250 613 259 671 c 0,12,13
 279.116984673 800.642790116 279.116984673 800.642790116 350.950058602 888.321395058 c 128,-1,14
 422.78313253 976 422.78313253 976 546.391566265 976 c 128,-1,15
 670 976 670 976 745.5 917 c 128,-1,0
 821 858 821 858 853.5 765 c 128,-1,1
551 -25 m 0,16,17
 652 -25 652 -25 741.5 27 c 128,-1,18
 831 79 831 79 883 171 c 1,19,-1
 883 -459 l 1,20,-1
 1051 -439 l 1,21,-1
 1051 1098 l 1,22,-1
 886 1098 l 1,23,-1
 886 938 l 1,24,25
 767 1124 767 1124 551 1124 c 0,26,27
 434 1124 434 1124 342 1077.5 c 128,-1,28
 250 1031 250 1031 193 949.5 c 0,29,30
 77 783.640350877 77 783.640350877 77 538 c 0,31,32
 77 251.907407407 77 251.907407407 244 88 c 0,33,34
 359.132075472 -25 359.132075472 -25 551 -25 c 0,16,17
EndSplineSet
EndChar

StartChar: r
Encoding: 114 114 85
Width: 654
GlyphClass: 2
Flags: HW
LayerCount: 2
Fore
SplineSet
120 1098 m 1,0,-1
 123 845 l 1,1,-1
 123 0 l 1,2,-1
 291 0 l 1,3,-1
 291 644 l 2,4,5
 291 774 291 774 371.5 859.5 c 128,-1,6
 452 945 452 945 599 945 c 2,7,-1
 639 945 l 1,8,-1
 627 1098 l 1,9,-1
 595 1098 l 2,10,11
 379 1098 379 1098 275 908 c 1,12,-1
 262 1098 l 1,13,-1
 120 1098 l 1,0,-1
330 1098 m 0,14,-1
330 0 m 0,15,-1
330 1098 m 0,16,-1
330 0 m 0,17,-1
330 1098 m 0,18,-1
330 0 m 0,19,-1
330 1098 m 0,20,-1
330 0 m 0,21,-1
EndSplineSet
EndChar

StartChar: s
Encoding: 115 115 86
Width: 936
GlyphClass: 2
Flags: HW
LayerCount: 2
Fore
SplineSet
854 294 m 1,0,-1
 854 299 l 2,1,2
 854 431 854 431 784.5 508 c 128,-1,3
 715 585 715 585 577 622 c 2,4,-1
 426 663 l 1,5,6
 271.06335844 703.578644218 271.06335844 703.578644218 269 815 c 1,7,8
 269 898 269 898 327 944 c 0,9,10
 385.635732554 990.504201681 385.635732554 990.504201681 499.435513336 990.504201681 c 128,-1,11
 613.235294118 990.504201681 613.235294118 990.504201681 759 932 c 1,12,-1
 799 1053 l 1,13,14
 661.945724133 1123.00614091 661.945724133 1123.00614091 478.994658699 1123.00614091 c 0,15,16
 476.397349707 1123.00614091 476.397349707 1123.00614091 473.790790333 1122.99203135 c 0,17,18
 287.581580666 1121.9840627 287.581580666 1121.9840627 194.28535555 1029.74802196 c 128,-1,19
 100.989130435 937.511981225 100.989130435 937.511981225 100.989130435 822.860920431 c 128,-1,20
 100.989130435 708.209859637 100.989130435 708.209859637 164.994565217 631.604929819 c 128,-1,21
 229 555 229 555 384 512 c 2,22,-1
 531 471 l 2,23,24
 697 425 697 425 697 302 c 2,25,-1
 697 290 l 1,26,27
 690 205 690 205 633.5 159.5 c 128,-1,28
 577 114 577 114 482 114 c 2,29,-1
 465 114 l 2,30,31
 397 114 397 114 309.432605905 137.768292683 c 128,-1,32
 221.86521181 161.536585366 221.86521181 161.536585366 154 206 c 1,33,-1
 111 78 l 1,34,35
 166 37 166 37 270 6 c 128,-1,36
 374 -25 374 -25 512.5 -25 c 128,-1,37
 651 -25 651 -25 750 59 c 128,-1,38
 849 143 849 143 854 294 c 1,0,-1
467 1098 m 0,39,-1
467 0 m 0,40,-1
EndSplineSet
EndChar

StartChar: t
Encoding: 116 116 87
Width: 691
GlyphClass: 2
Flags: HW
LayerCount: 2
Fore
SplineSet
517 118 m 1,0,-1
 653 129 l 1,1,-1
 668 -7 l 1,2,3
 520 -20 520 -20 476.5 -20 c 128,-1,4
 433 -20 433 -20 397.5 -14.5 c 128,-1,5
 362 -9 362 -9 334 0 c 128,-1,6
 306 9 306 9 285 26.5 c 128,-1,7
 264 44 264 44 248.5 63.5 c 128,-1,8
 233 83 233 83 222.5 114 c 0,9,10
 201.219626168 176.82777036 201.219626168 176.82777036 195.609813084 250.556742323 c 128,-1,11
 190 324.285714286 190 324.285714286 190 445 c 2,12,-1
 190 980 l 1,13,-1
 23 980 l 1,14,-1
 36 1098 l 1,15,-1
 190 1098 l 1,16,-1
 234 1453 l 1,17,-1
 358 1462 l 1,18,-1
 358 1098 l 1,19,-1
 649 1098 l 1,20,-1
 649 980 l 1,21,-1
 358 980 l 1,22,-1
 358 367 l 2,23,24
 358 212 358 212 387.5 165 c 128,-1,25
 417 118 417 118 517 118 c 1,0,-1
362 0 m 0,26,-1
362 549 m 0,27,-1
EndSplineSet
EndChar

StartChar: u
Encoding: 117 117 88
Width: 1098
GlyphClass: 2
Flags: HW
LayerCount: 2
Fore
SplineSet
108 366 m 2,0,-1
 108 1098 l 1,1,-1
 276 1098 l 1,2,-1
 276 364 l 2,3,4
 276 225 276 225 348 169 c 128,-1,5
 420 113 420 113 549 113 c 128,-1,6
 678 113 678 113 749.5 170 c 128,-1,7
 821 227 821 227 821 364 c 2,8,-1
 821 1098 l 1,9,-1
 989 1098 l 1,10,-1
 989 366 l 2,11,12
 989 71.1578947368 989 71.1578947368 717 -4 c 0,13,14
 641 -25 641 -25 550 -25 c 0,15,16
 366.876404494 -25 366.876404494 -25 237.438202247 66.4285714285 c 128,-1,17
 108 157.857142857 108 157.857142857 108 366 c 2,0,-1
550 1098 m 0,18,-1
989 10 m 0,19,-1
551 1098 m 0,20,-1
990 10 m 0,21,-1
EndSplineSet
EndChar

StartChar: v
Encoding: 118 118 89
Width: 1036
GlyphClass: 2
Flags: HW
LayerCount: 2
Fore
SplineSet
433 0 m 1,0,-1
 -1 1098 l 1,1,-1
 179 1098 l 1,2,-1
 525 184 l 1,3,-1
 852 1098 l 1,4,-1
 1031 1098 l 1,5,-1
 602 0 l 1,6,-1
 433 0 l 1,0,-1
EndSplineSet
EndChar

StartChar: w
Encoding: 119 119 90
Width: 1619
GlyphClass: 2
Flags: HW
LayerCount: 2
Fore
SplineSet
15 1098 m 1,0,-1
 188 1098 l 1,1,-1
 433 223 l 1,2,-1
 722 1098 l 1,3,-1
 919 1098 l 1,4,-1
 1199 227 l 1,5,-1
 1434 1098 l 1,6,-1
 1604 1098 l 1,7,-1
 1275 0 l 1,8,-1
 1109 0 l 1,9,-1
 818 928 l 1,10,-1
 511 0 l 1,11,-1
 342 0 l 1,12,-1
 15 1098 l 1,0,-1
810 1098 m 0,13,-1
810 1098 m 0,14,-1
810 1098 m 0,15,-1
810 1098 m 0,16,-1
EndSplineSet
EndChar

StartChar: x
Encoding: 120 120 91
Width: 1042
GlyphClass: 2
Flags: HW
LayerCount: 2
Fore
SplineSet
823 1098 m 1,0,-1
 1018 1098 l 1,1,-1
 624 552 l 1,2,-1
 1018 0 l 1,3,-1
 836 0 l 1,4,-1
 526 439 l 1,5,-1
 217 0 l 1,6,-1
 24 0 l 1,7,-1
 426 556 l 1,8,-1
 34 1098 l 1,9,-1
 227 1098 l 1,10,-1
 524 682 l 1,11,-1
 823 1098 l 1,0,-1
EndSplineSet
EndChar

StartChar: y
Encoding: 121 121 92
Width: 1012
GlyphClass: 2
Flags: HW
LayerCount: 2
Fore
SplineSet
180 1098 m 1,0,-1
 4 1098 l 1,1,-1
 431 23 l 1,2,3
 366.263383298 -163.117773019 366.263383298 -163.117773019 336.131691649 -216.55888651 c 128,-1,4
 306 -270 306 -270 284 -291 c 128,-1,5
 262 -312 262 -312 216.90625 -331.5 c 128,-1,6
 171.8125 -351 171.8125 -351 46 -351 c 2,7,-1
 17 -351 l 1,8,-1
 36 -502 l 1,9,-1
 89 -502 l 2,10,11
 368.954954954 -502 368.954954954 -502 491 -283.5 c 0,12,13
 542.909518214 -190.565217391 542.909518214 -190.565217391 593 -48 c 2,14,-1
 993 1098 l 1,15,-1
 816 1098 l 1,16,-1
 763 936 l 2,17,18
 710 773 710 773 636.5 545.5 c 128,-1,19
 563 318 563 318 526 207 c 1,20,-1
 440 430 l 1,21,22
 353 652 353 652 266 875 c 2,23,-1
 180 1098 l 1,0,-1
510 1098 m 0,24,-1
EndSplineSet
EndChar

StartChar: z
Encoding: 122 122 93
Width: 861
GlyphClass: 2
Flags: HW
LayerCount: 2
Fore
SplineSet
86 139 m 1,0,-1
 86 0 l 1,1,-1
 823 0 l 1,2,-1
 823 136 l 1,3,-1
 273 136 l 1,4,-1
 803 964 l 1,5,-1
 803 1098 l 1,6,-1
 80 1098 l 1,7,-1
 80 964 l 1,8,-1
 611 964 l 1,9,-1
 86 139 l 1,0,-1
437 1098 m 0,10,-1
EndSplineSet
EndChar

StartChar: braceleft
Encoding: 123 123 94
Width: 690
GlyphClass: 2
Flags: HW
LayerCount: 2
Fore
SplineSet
286 689 m 1,0,1
 342 662 342 662 377 606 c 0,2,3
 433 516.4 433 516.4 433 390 c 2,4,-1
 433 156 l 2,5,6
 433 20 433 20 439 -4 c 128,-1,7
 445 -28 445 -28 452 -47 c 128,-1,8
 459 -66 459 -66 469 -73 c 128,-1,9
 479 -80 479 -80 498.764705882 -90.5 c 128,-1,10
 518.529411765 -101 518.529411765 -101 578 -101 c 1,11,-1
 578 -238 l 1,12,13
 415 -238 415 -238 343.5 -170 c 128,-1,14
 272 -102 272 -102 272 53 c 2,15,-1
 272 335 l 2,16,17
 272 452.2 272 452.2 264 486.6 c 0,18,19
 247.431980907 557.8424821 247.431980907 557.8424821 221.358847596 585.92124105 c 128,-1,20
 195.285714286 614 195.285714286 614 149 614 c 2,21,-1
 89 614 l 1,22,-1
 89 764 l 1,23,-1
 149 764 l 2,24,25
 220.382978723 764 220.382978723 764 244.921322908 828.07234315 c 128,-1,26
 269.459667093 892.1446863 269.459667093 892.1446863 270.729833547 950.57234315 c 128,-1,27
 272 1009 272 1009 272 1043 c 2,28,-1
 272 1326 l 2,29,30
 272 1481 272 1481 343.5 1548.5 c 128,-1,31
 415 1616 415 1616 578 1616 c 1,32,-1
 578 1479 l 1,33,34
 499.6 1479 499.6 1479 482.8 1463 c 128,-1,35
 466 1447 466 1447 458.5 1439 c 128,-1,36
 451 1431 451 1431 446.5 1412 c 0,37,38
 433 1355 433 1355 433 1223 c 2,39,-1
 433 988 l 2,40,41
 433 861.6 433 861.6 377 772 c 0,42,43
 342 716 342 716 286 689 c 1,0,1
EndSplineSet
EndChar

StartChar: bar
Encoding: 124 124 95
Width: 470
GlyphClass: 2
Flags: HW
LayerCount: 2
Fore
SplineSet
310 1603 m 1,0,-1
 310 -303 l 1,1,-1
 160 -303 l 1,2,-1
 160 1603 l 1,3,-1
 310 1603 l 1,0,-1
EndSplineSet
EndChar

StartChar: braceright
Encoding: 125 125 96
Width: 700
GlyphClass: 2
Flags: HW
LayerCount: 2
Fore
SplineSet
411 689 m 1,0,1
 355 716 355 716 320.5 772 c 0,2,3
 266 860.463768116 266 860.463768116 266 988 c 2,4,-1
 266 1223 l 2,5,6
 266 1357.625 266 1357.625 259.5 1382.8125 c 128,-1,7
 253 1408 253 1408 245.5 1426 c 0,8,9
 223.416666667 1479 223.416666667 1479 118 1479 c 1,10,-1
 118 1616 l 1,11,12
 281 1616 281 1616 354 1548.5 c 128,-1,13
 427 1481 427 1481 427 1326 c 2,14,-1
 427 1043 l 2,15,16
 427 883 427 883 456.75 823.5 c 128,-1,17
 486.5 764 486.5 764 551 764 c 2,18,-1
 610 764 l 1,19,-1
 610 614 l 1,20,-1
 551 614 l 2,21,22
 437.707692308 614 437.707692308 614 428.5 414.5 c 0,23,24
 427 382 427 382 427 335 c 2,25,-1
 427 53 l 2,26,27
 427 -102 427 -102 354 -170 c 128,-1,28
 281 -238 281 -238 118 -238 c 1,29,-1
 118 -101 l 1,30,31
 193.620689655 -101 193.620689655 -101 215.310344828 -82.5 c 128,-1,32
 237 -64 237 -64 246 -49 c 0,33,34
 266 -15.6666666667 266 -15.6666666667 266 156 c 2,35,-1
 266 390 l 2,36,37
 266 517.536231884 266 517.536231884 320.5 606 c 0,38,39
 355 662 355 662 411 689 c 1,0,1
EndSplineSet
EndChar

StartChar: asciitilde
Encoding: 126 126 97
Width: 1340
GlyphClass: 2
Flags: HW
LayerCount: 2
Fore
SplineSet
698 673.5 m 128,-1,1
 860.353846154 587 860.353846154 587 921.676923077 587 c 128,-1,2
 983 587 983 587 1031 643 c 128,-1,3
 1079 699 1079 699 1097 778 c 1,4,-1
 1209 737 l 1,5,6
 1184 602 1184 602 1109 522 c 128,-1,7
 1034 442 1034 442 915 442 c 0,8,9
 863 442 863 442 770.5 485 c 128,-1,10
 678 528 678 528 584.5 571 c 128,-1,11
 491 614 491 614 425.5 614 c 128,-1,12
 360 614 360 614 308.5 556 c 128,-1,13
 257 498 257 498 240 415 c 1,14,-1
 137 474 l 1,15,16
 157.519125683 590.959016393 157.519125683 590.959016393 232.64845173 675.479508196 c 128,-1,17
 307.777777778 760 307.777777778 760 421.711965812 760 c 128,-1,0
 535.646153846 760 535.646153846 760 698 673.5 c 128,-1,1
EndSplineSet
EndChar

StartChar: exclamdown
Encoding: 161 161 99
Width: 497
GlyphClass: 2
Flags: HW
LayerCount: 2
Fore
SplineSet
332 747 m 1,0,-1
 332 -415 l 1,1,-1
 196 -415 l 1,2,-1
 196 747 l 1,3,-1
 332 747 l 1,0,-1
152 953 m 1,4,-1
 152 1174 l 1,5,-1
 341 1174 l 1,6,-1
 341 953 l 1,7,-1
 152 953 l 1,4,-1
EndSplineSet
EndChar

StartChar: cent
Encoding: 162 162 100
Width: 1033
GlyphClass: 2
Flags: HW
LayerCount: 2
Fore
SplineSet
547 1496 m 1,0,-1
 642 1496 l 1,1,-1
 642 0 l 1,2,-1
 547 0 l 1,3,-1
 547 1496 l 1,0,-1
903 1221 m 1,4,5
 803.777777778 1316 803.777777778 1316 604 1316 c 0,6,7
 485 1316 485 1316 384.5 1269 c 128,-1,8
 284 1222 284 1222 218 1142 c 0,9,10
 78.0124504371 972.318121742 78.0124504371 972.318121742 78.0124504371 735.899256249 c 0,11,12
 78.0124504371 503.946720462 78.0124504371 503.946720462 213.5 339.5 c 0,13,14
 279 260 279 260 381 213.5 c 128,-1,15
 483 167 483 167 587.5 167 c 0,16,17
 797.87755102 167 797.87755102 167 904 267 c 1,18,-1
 862 387 l 1,19,20
 746 305 746 305 615 305 c 0,21,22
 451 305 451 305 349.5 426 c 128,-1,23
 248 547 248 547 248 737 c 128,-1,24
 248 927 248 927 349.5 1052.5 c 128,-1,25
 451 1178 451 1178 599 1178 c 128,-1,26
 747 1178 747 1178 861 1102 c 1,27,-1
 903 1221 l 1,4,5
474 1290 m 0,28,-1
474 192 m 0,29,-1
EndSplineSet
EndChar

StartChar: sterling
Encoding: 163 163 101
Width: 1093
GlyphClass: 2
Flags: HW
LayerCount: 2
Fore
SplineSet
969 1242 m 1,0,1
 855.863636364 1373 855.863636364 1373 710 1373 c 0,2,3
 447 1373 447 1373 447 1008 c 2,4,-1
 447 849 l 1,5,-1
 845 849 l 1,6,-1
 845 707 l 1,7,-1
 447 707 l 1,8,-1
 447 530 l 2,9,10
 447 259 447 259 342 152 c 1,11,12
 422 162 422 162 431 162 c 2,13,-1
 1045 162 l 1,14,-1
 1045 0 l 1,15,-1
 129 0 l 1,16,-1
 107 137 l 1,17,18
 203 188 203 188 237 264 c 128,-1,19
 271 340 271 340 271 467 c 2,20,-1
 271 707 l 1,21,-1
 97 707 l 1,22,-1
 97 849 l 1,23,-1
 271 849 l 1,24,-1
 271 935 l 2,25,26
 271 1176.92307692 271 1176.92307692 318.495951417 1292.6183432 c 0,27,28
 365.991902834 1408.31360947 365.991902834 1408.31360947 459.136302294 1466.65680474 c 0,29,30
 552.280701754 1525 552.280701754 1525 710 1525 c 0,31,32
 942 1525 942 1525 1064 1349 c 1,33,-1
 969 1242 l 1,0,1
EndSplineSet
EndChar

StartChar: currency
Encoding: 164 164 102
Width: 1023
GlyphClass: 2
Flags: HW
LayerCount: 2
Fore
SplineSet
268 914.5 m 128,-1,1
 222 835 222 835 222 753 c 0,2,3
 222 596.419354839 222 596.419354839 323.298913043 496.209677419 c 128,-1,4
 424.597826087 396 424.597826087 396 567 396 c 0,5,6
 660 396 660 396 739.5 442 c 128,-1,7
 819 488 819 488 865.5 567.5 c 128,-1,8
 912 647 912 647 912 741 c 128,-1,9
 912 835 912 835 865.5 914.5 c 128,-1,10
 819 994 819 994 739.5 1040 c 128,-1,11
 660 1086 660 1086 566.5 1086 c 128,-1,12
 473 1086 473 1086 393.5 1040 c 128,-1,0
 314 994 314 994 268 914.5 c 128,-1,1
225 472 m 1,13,14
 132 591 132 591 132 741.318181818 c 128,-1,15
 132 891.636363636 132 891.636363636 225 1010 c 1,16,-1
 -12 1229 l 1,17,-1
 41 1280 l 1,18,-1
 275 1064 l 1,19,20
 399.923076923 1176 399.923076923 1176 567 1176 c 256,21,22
 734.222222222 1176 734.222222222 1176 862 1061 c 1,23,-1
 1099 1280 l 1,24,-1
 1144 1224 l 1,25,-1
 910 1008 l 1,26,27
 1002 890 1002 890 1002 741 c 256,28,29
 1002 592 1002 592 911 475 c 1,30,-1
 1144 259 l 1,31,-1
 1099 203 l 1,32,-1
 862 422 l 1,33,34
 736.333333333 306 736.333333333 306 567 306 c 256,35,36
 399.914285714 306 399.914285714 306 274 419 c 1,37,-1
 41 203 l 1,38,-1
 -12 254 l 1,39,-1
 225 472 l 1,13,14
EndSplineSet
EndChar

StartChar: yen
Encoding: 165 165 103
Width: 1099
GlyphClass: 2
Flags: HW
LayerCount: 2
Fore
SplineSet
625 330 m 1,0,-1
 625 0 l 1,1,-1
 473 0 l 1,2,-1
 473 330 l 1,3,-1
 82 330 l 1,4,-1
 82 452 l 1,5,-1
 472 452 l 1,6,-1
 472 646 l 1,7,-1
 85 646 l 1,8,-1
 85 767 l 1,9,-1
 436 767 l 1,10,-1
 19 1496 l 1,11,-1
 198 1496 l 1,12,-1
 550 875 l 1,13,-1
 910 1496 l 1,14,-1
 1080 1496 l 1,15,-1
 650 767 l 1,16,-1
 999 767 l 1,17,-1
 999 646 l 1,18,-1
 624 646 l 1,19,-1
 624 452 l 1,20,-1
 1002 452 l 1,21,-1
 1002 330 l 1,22,-1
 625 330 l 1,0,-1
EndSplineSet
EndChar

StartChar: brokenbar
Encoding: 166 166 104
Width: 449
GlyphClass: 2
Flags: HW
LayerCount: 2
Fore
SplineSet
301 -301 m 1,0,-1
 151 -301 l 1,1,-1
 151 339 l 1,2,-1
 301 339 l 1,3,-1
 301 -301 l 1,0,-1
301 964 m 1,4,-1
 151 964 l 1,5,-1
 151 1603 l 1,6,-1
 301 1603 l 1,7,-1
 301 964 l 1,4,-1
EndSplineSet
EndChar

StartChar: section
Encoding: 167 167 105
Width: 978
GlyphClass: 2
Flags: HW
LayerCount: 2
Fore
SplineSet
436 980 m 1,0,1
 300 894.451612903 300 894.451612903 300 811.5 c 0,2,3
 300 741.057142857 300 741.057142857 341.5 696 c 0,4,5
 381.431421447 652.645885286 381.431421447 652.645885286 536 589 c 1,6,7
 685 683.818181818 685 683.818181818 685 767.5 c 0,8,9
 685 847.819672131 685 847.819672131 621.5 890.5 c 0,10,11
 575.978689818 921.09629045 575.978689818 921.09629045 515.489344909 946.048145225 c 128,-1,12
 455 971 455 971 436 980 c 1,0,1
774 1405 m 1,13,14
 680.041666667 1460 680.041666667 1460 530 1460 c 0,15,16
 454 1460 454 1460 392.5 1424 c 128,-1,17
 331 1388 331 1388 331 1318.5 c 128,-1,18
 331 1249 331 1249 379.5 1203 c 128,-1,19
 428 1157 428 1157 526.5 1112.5 c 128,-1,20
 625 1068 625 1068 671 1041 c 128,-1,21
 717 1014 717 1014 758.5 977 c 0,22,23
 841 903.445783133 841 903.445783133 841 794 c 0,24,25
 841 636.794520548 841 636.794520548 676 517 c 1,26,27
 747 472 747 472 784.5 416 c 128,-1,28
 822 360 822 360 822 272 c 0,29,30
 822 121 822 121 709 35.5 c 128,-1,31
 596 -50 596 -50 434 -50 c 128,-1,32
 272 -50 272 -50 167 4 c 1,33,-1
 167 166 l 1,34,35
 295 95 295 95 414 95 c 128,-1,36
 533 95 533 95 600 142.5 c 128,-1,37
 667 190 667 190 667 262 c 0,38,39
 667 307.962962963 667 307.962962963 648 330.481481481 c 0,40,41
 614.777777778 369.855967078 614.777777778 369.855967078 548.488888889 404.227983539 c 128,-1,42
 482.2 438.6 482.2 438.6 448 450 c 1,43,-1
 360 490 l 1,44,45
 144 594.971962617 144 594.971962617 144 785 c 0,46,47
 144 872 144 872 190 939.5 c 128,-1,48
 236 1007 236 1007 311 1050 c 1,49,50
 242 1102 242 1102 209 1161 c 128,-1,51
 176 1220 176 1220 176 1310 c 0,52,53
 176 1455 176 1455 277.5 1531.5 c 128,-1,54
 379 1608 379 1608 550 1608 c 0,55,56
 659 1608 659 1608 773 1563 c 1,57,-1
 774 1405 l 1,13,14
EndSplineSet
EndChar

StartChar: dieresis
Encoding: 168 168 106
Width: 770
GlyphClass: 2
Flags: HW
LayerCount: 2
Fore
SplineSet
272 1254 m 1,0,-1
 118 1254 l 1,1,-1
 118 1466 l 1,2,-1
 272 1466 l 1,3,-1
 272 1254 l 1,0,-1
663 1254 m 1,4,-1
 508 1254 l 1,5,-1
 508 1466 l 1,6,-1
 663 1466 l 1,7,-1
 663 1254 l 1,4,-1
390 1098 m 0,8,-1
390 1098 m 0,9,-1
390 1098 m 0,10,-1
390 1098 m 0,11,-1
EndSplineSet
EndChar

StartChar: copyright
Encoding: 169 169 107
Width: 1841
GlyphClass: 2
Flags: HW
LayerCount: 2
Fore
SplineSet
1167 1114 m 1,0,1
 1071.375 1182 1071.375 1182 905.251136363 1182 c 128,-1,2
 739.127272727 1182 739.127272727 1182 654.563636363 1067.16049383 c 128,-1,3
 570 952.320987654 570 952.320987654 570 781.160493827 c 128,-1,4
 570 610 570 610 661 498.5 c 128,-1,5
 752 387 752 387 929 387 c 0,6,7
 997 387 997 387 1072.5 408 c 128,-1,8
 1148 429 1148 429 1191 459 c 1,9,-1
 1230 352 l 1,10,11
 1175 317 1175 317 1087 293.5 c 128,-1,12
 999 270 999 270 909 270 c 0,13,14
 703 270 703 270 568.5 416 c 128,-1,15
 434 562 434 562 434 786 c 128,-1,16
 434 1010 434 1010 568 1155.5 c 128,-1,17
 702 1301 702 1301 919 1301 c 0,18,19
 1098 1301 1098 1301 1227 1211 c 1,20,-1
 1167 1114 l 1,0,1
615 123.5 m 128,-1,22
 744 67 744 67 905.5 67 c 128,-1,23
 1067 67 1067 67 1199 123 c 128,-1,24
 1331 179 1331 179 1415 276.5 c 128,-1,25
 1499 374 1499 374 1543.5 502 c 128,-1,26
 1588 630 1588 630 1588 778 c 128,-1,27
 1588 926 1588 926 1543 1054.5 c 128,-1,28
 1498 1183 1498 1183 1413 1281.5 c 128,-1,29
 1328 1380 1328 1380 1195 1436.5 c 128,-1,30
 1062 1493 1062 1493 901 1493 c 128,-1,31
 740 1493 740 1493 612.5 1436.5 c 128,-1,32
 485 1380 485 1380 402 1282.5 c 0,33,34
 230 1080.45180723 230 1080.45180723 230 780.587349398 c 128,-1,35
 230 480.722891566 230 480.722891566 403 277.5 c 0,36,21
 486 180 486 180 615 123.5 c 128,-1,22
1657 1069.5 m 0,37,38
 1701 937 1701 937 1701 780.5 c 128,-1,39
 1701 624 1701 624 1657.5 491 c 0,40,41
 1576.0047749 241.830691066 1576.0047749 241.830691066 1370.05920563 107.915345533 c 128,-1,42
 1164.11363636 -26 1164.11363636 -26 908.162081338 -26 c 128,-1,43
 652.210526316 -26 652.210526316 -26 446.958955697 109.81322832 c 128,-1,44
 241.707385077 245.62645664 241.707385077 245.62645664 161 490.5 c 0,45,46
 117 624 117 624 117 780.5 c 128,-1,47
 117 937 117 937 160.5 1070 c 0,48,49
 241.397737079 1317.34250647 241.397737079 1317.34250647 444.926141267 1451.67125324 c 128,-1,50
 648.454545455 1586 648.454545455 1586 903.030303033 1586 c 128,-1,51
 1157.60606061 1586 1157.60606061 1586 1366.13255101 1451.72928422 c 128,-1,52
 1574.65904142 1317.45856845 1574.65904142 1317.45856845 1657 1069.5 c 0,37,38
EndSplineSet
EndChar

StartChar: ordfeminine
Encoding: 170 170 108
Width: 807
GlyphClass: 2
Flags: HW
LayerCount: 2
Fore
SplineSet
369 937 m 0,0,1
 453 937 453 937 496 1002.5 c 128,-1,2
 539 1068 539 1068 543 1168 c 1,3,-1
 543 1195 l 1,4,5
 514 1188 514 1188 466 1182.5 c 0,6,7
 360.745501285 1170.43958869 360.745501285 1170.43958869 317 1155 c 0,8,9
 247 1130.29411765 247 1130.29411765 247 1062.64705882 c 0,10,11
 247 937 247 937 369 937 c 0,0,1
350 826 m 0,12,13
 253 826 253 826 190.5 887.5 c 128,-1,14
 128 949 128 949 128 1044.5 c 128,-1,15
 128 1140 128 1140 188 1201.5 c 128,-1,16
 248 1263 248 1263 343 1282 c 0,17,18
 382 1289 382 1289 452 1294.5 c 128,-1,19
 522 1300 522 1300 543 1303 c 1,20,21
 543 1401 543 1401 516.5 1437 c 128,-1,22
 490 1473 490 1473 420 1473 c 128,-1,23
 350 1473 350 1473 303.5 1452.5 c 128,-1,24
 257 1432 257 1432 228 1375 c 1,25,-1
 167 1453 l 1,26,27
 231 1590 231 1590 419 1590 c 0,28,29
 525 1590 525 1590 592.5 1526 c 128,-1,30
 660 1462 660 1462 660 1330 c 2,31,-1
 658 982 l 2,32,33
 658 956 658 956 664 847 c 1,34,-1
 546 847 l 1,35,-1
 543 926 l 1,36,37
 476 826 476 826 350 826 c 0,12,13
EndSplineSet
EndChar

StartChar: guillemotleft
Encoding: 171 171 109
Width: 983
GlyphClass: 2
Flags: HW
LayerCount: 2
Fore
SplineSet
462 583 m 1,0,-1
 726 982 l 1,1,-1
 864 982 l 1,2,-1
 633 583 l 1,3,-1
 858 182 l 1,4,-1
 722 182 l 1,5,-1
 462 583 l 1,0,-1
119 583 m 1,6,-1
 363 982 l 1,7,-1
 529 982 l 1,8,-1
 270 583 l 1,9,-1
 520 182 l 1,10,-1
 357 182 l 1,11,-1
 119 583 l 1,6,-1
EndSplineSet
EndChar

StartChar: logicalnot
Encoding: 172 172 110
Width: 1280
GlyphClass: 2
Flags: HW
LayerCount: 2
Fore
SplineSet
1136 256 m 1,0,-1
 1003 256 l 1,1,-1
 1003 709 l 1,2,-1
 115 709 l 1,3,-1
 115 860 l 1,4,-1
 1136 860 l 1,5,-1
 1136 256 l 1,0,-1
EndSplineSet
EndChar

StartChar: uni00AD
Encoding: 173 173 111
Width: 1234
GlyphClass: 2
Flags: HW
LayerCount: 2
Fore
SplineSet
1111 0 m 1,0,-1
 133 0 l 1,1,-1
 133 148 l 1,2,-1
 1111 148 l 1,3,-1
 1111 0 l 1,0,-1
EndSplineSet
EndChar

StartChar: registered
Encoding: 174 174 112
Width: 1824
GlyphClass: 2
Flags: HW
LayerCount: 2
Fore
SplineSet
914 716 m 1,0,-1
 731 716 l 1,1,-1
 731 301 l 1,2,-1
 599 301 l 1,3,-1
 599 1277 l 1,4,-1
 857 1277 l 2,5,6
 1300 1277 1300 1277 1300 1007 c 0,7,8
 1300 899 1300 899 1239 825.5 c 128,-1,9
 1178 752 1178 752 1040 735 c 1,10,11
 1099.78998073 687.892742453 1099.78998073 687.892742453 1161 579.5 c 0,12,13
 1185 537 1185 537 1232 452.5 c 128,-1,14
 1279 368 1279 368 1320 301 c 1,15,-1
 1171 301 l 1,16,-1
 1046 525 l 1,17,18
 962.901856764 678.212201592 962.901856764 678.212201592 914 716 c 1,0,-1
857 843 m 2,19,20
 1005 843 1005 843 1073 875.5 c 128,-1,21
 1141 908 1141 908 1141 1000.5 c 128,-1,22
 1141 1093 1141 1093 1077.5 1121 c 128,-1,23
 1014 1149 1014 1149 847 1149 c 2,24,-1
 731 1149 l 1,25,-1
 731 843 l 1,26,-1
 857 843 l 2,19,20
615 123.5 m 128,-1,28
 744 67 744 67 905.5 67 c 128,-1,29
 1067 67 1067 67 1199 123 c 128,-1,30
 1331 179 1331 179 1415 276.5 c 128,-1,31
 1499 374 1499 374 1543.5 502 c 128,-1,32
 1588 630 1588 630 1588 778 c 128,-1,33
 1588 926 1588 926 1543 1054.5 c 128,-1,34
 1498 1183 1498 1183 1413 1281.5 c 128,-1,35
 1328 1380 1328 1380 1195 1436.5 c 128,-1,36
 1062 1493 1062 1493 901 1493 c 128,-1,37
 740 1493 740 1493 612.5 1436.5 c 128,-1,38
 485 1380 485 1380 402 1282.5 c 0,39,40
 230 1080.45180723 230 1080.45180723 230 780.587349398 c 128,-1,41
 230 480.722891566 230 480.722891566 403 277.5 c 0,42,27
 486 180 486 180 615 123.5 c 128,-1,28
1657 1069.5 m 0,43,44
 1701 937 1701 937 1701 780.5 c 128,-1,45
 1701 624 1701 624 1657.5 491 c 0,46,47
 1576.0047749 241.830691066 1576.0047749 241.830691066 1370.05920563 107.915345533 c 128,-1,48
 1164.11363636 -26 1164.11363636 -26 908.162081338 -26 c 128,-1,49
 652.210526316 -26 652.210526316 -26 446.958955697 109.81322832 c 128,-1,50
 241.707385077 245.62645664 241.707385077 245.62645664 161 490.5 c 0,51,52
 117 624 117 624 117 780.5 c 128,-1,53
 117 937 117 937 160.5 1070 c 0,54,55
 241.397737079 1317.34250647 241.397737079 1317.34250647 444.926141267 1451.67125324 c 128,-1,56
 648.454545455 1586 648.454545455 1586 903.030303033 1586 c 128,-1,57
 1157.60606061 1586 1157.60606061 1586 1366.13255101 1451.72928422 c 128,-1,58
 1574.65904142 1317.45856845 1574.65904142 1317.45856845 1657 1069.5 c 0,43,44
EndSplineSet
EndChar

StartChar: macron
Encoding: 175 175 113
Width: 1062
GlyphClass: 2
Flags: HW
LayerCount: 2
Fore
SplineSet
933 1625 m 1,0,-1
 933 1486 l 1,1,-1
 133 1486 l 1,2,-1
 133 1625 l 1,3,-1
 933 1625 l 1,0,-1
EndSplineSet
EndChar

StartChar: degree
Encoding: 176 176 114
Width: 816
GlyphClass: 2
Flags: HW
LayerCount: 2
Fore
SplineSet
409 919 m 128,-1,1
 295 919 295 919 211.5 1014 c 128,-1,2
 128 1109 128 1109 128 1238.5 c 128,-1,3
 128 1368 128 1368 211.5 1461.5 c 128,-1,4
 295 1555 295 1555 409.5 1555 c 128,-1,5
 524 1555 524 1555 607 1462 c 128,-1,6
 690 1369 690 1369 690 1239 c 128,-1,7
 690 1109 690 1109 606.5 1014 c 128,-1,0
 523 919 523 919 409 919 c 128,-1,1
530 1374.5 m 128,-1,9
 479 1430 479 1430 409.5 1430 c 128,-1,10
 340 1430 340 1430 289 1374.5 c 128,-1,11
 238 1319 238 1319 238 1238.5 c 128,-1,12
 238 1158 238 1158 288 1102 c 128,-1,13
 338 1046 338 1046 409 1046 c 128,-1,14
 480 1046 480 1046 530.5 1102 c 128,-1,15
 581 1158 581 1158 581 1238.5 c 128,-1,8
 581 1319 581 1319 530 1374.5 c 128,-1,9
EndSplineSet
EndChar

StartChar: plusminus
Encoding: 177 177 115
Width: 1234
GlyphClass: 2
Flags: HW
LayerCount: 2
Fore
SplineSet
133 789 m 1,0,-1
 550 789 l 1,1,-1
 550 1193 l 1,2,-1
 683 1193 l 1,3,-1
 683 789 l 1,4,-1
 1108 789 l 1,5,-1
 1108 642 l 1,6,-1
 687 642 l 1,7,-1
 687 240 l 1,8,-1
 553 240 l 1,9,-1
 553 642 l 1,10,-1
 133 642 l 1,11,-1
 133 789 l 1,0,-1
1111 0 m 1,12,-1
 133 0 l 1,13,-1
 133 148 l 1,14,-1
 1111 148 l 1,15,-1
 1111 0 l 1,12,-1
EndSplineSet
EndChar

StartChar: uni00B2
Encoding: 178 178 116
Width: 763
GlyphClass: 2
Flags: HW
LayerCount: 2
Fore
SplineSet
615 650 m 1,0,-1
 134 650 l 1,1,-1
 134 769 l 1,2,3
 209 854 209 854 238 886.5 c 128,-1,4
 267 919 267 919 323 985.5 c 0,5,6
 504 1200.4375 504 1200.4375 504 1299.37288136 c 0,7,8
 504 1358 504 1358 471 1391 c 128,-1,9
 438 1424 438 1424 380 1424 c 0,10,11
 273 1424 273 1424 217 1282 c 1,12,-1
 143 1367 l 1,13,14
 173 1454 173 1454 237.5 1502.5 c 128,-1,15
 302 1551 302 1551 394.5 1551 c 128,-1,16
 487 1551 487 1551 552 1483 c 128,-1,17
 617 1415 617 1415 617 1305 c 0,18,19
 617 1156.84946237 617 1156.84946237 485.5 990 c 0,20,21
 419.428463285 906.167297502 419.428463285 906.167297502 297 778 c 1,22,-1
 615 778 l 1,23,-1
 615 650 l 1,0,-1
EndSplineSet
EndChar

StartChar: uni00B3
Encoding: 179 179 117
Width: 756
GlyphClass: 2
Flags: HW
LayerCount: 2
Fore
SplineSet
308 1046 m 2,0,1
 498 1046 498 1046 498 907.5 c 0,2,3
 498 836 498 836 454.5 794.5 c 128,-1,4
 411 753 411 753 337.5 753 c 128,-1,5
 264 753 264 753 187 838 c 1,6,-1
 132 735 l 1,7,8
 219 631 219 631 340 631 c 128,-1,9
 461 631 461 631 537 704.5 c 128,-1,10
 613 778 613 778 613 899 c 0,11,12
 613 1048 613 1048 498 1112 c 1,13,14
 593 1174 593 1174 593 1295.5 c 128,-1,15
 593 1417 593 1417 522 1485 c 128,-1,16
 451 1553 451 1553 354 1553 c 0,17,18
 292 1553 292 1553 233 1522.5 c 128,-1,19
 174 1492 174 1492 132 1442 c 1,20,-1
 185 1339 l 1,21,22
 270 1424 270 1424 340 1424 c 0,23,24
 478 1424 478 1424 478 1303 c 0,25,26
 478 1174 478 1174 304 1174 c 2,27,-1
 260 1174 l 1,28,-1
 260 1046 l 1,29,-1
 308 1046 l 2,0,1
EndSplineSet
EndChar

StartChar: acute
Encoding: 180 180 118
Width: 639
GlyphClass: 2
Flags: HW
LayerCount: 2
Fore
SplineSet
567 1638 m 1,0,-1
 242 1250 l 1,1,-1
 128 1250 l 1,2,-1
 314 1638 l 1,3,-1
 567 1638 l 1,0,-1
348 1098 m 0,4,-1
348 1098 m 0,5,-1
348 1098 m 0,6,-1
348 1098 m 0,7,-1
EndSplineSet
EndChar

StartChar: paragraph
Encoding: 182 182 119
Width: 1068
GlyphClass: 2
Flags: HW
LayerCount: 2
Fore
SplineSet
518 -158 m 1,0,-1
 393 -158 l 1,1,-1
 393 847 l 1,2,3
 271 849 271 849 184 953 c 128,-1,4
 97 1057 97 1057 97 1218 c 0,5,6
 97 1561 97 1561 561 1561 c 2,7,-1
 927 1561 l 1,8,-1
 927 1430 l 1,9,-1
 852 1430 l 1,10,-1
 852 -158 l 1,11,-1
 737 -158 l 1,12,-1
 737 1430 l 1,13,-1
 518 1430 l 1,14,-1
 518 -158 l 1,0,-1
EndSplineSet
EndChar

StartChar: periodcentered
Encoding: 183 183 120
Width: 468
GlyphClass: 2
Flags: HW
LayerCount: 2
Fore
SplineSet
139.5 756.5 m 128,-1,1
 175 796 175 796 237.5 796 c 128,-1,2
 300 796 300 796 335 757 c 128,-1,3
 370 718 370 718 370 664 c 128,-1,4
 370 610 370 610 335 571 c 128,-1,5
 300 532 300 532 237.5 532 c 128,-1,6
 175 532 175 532 139.5 571.5 c 128,-1,7
 104 611 104 611 104 664 c 128,-1,0
 104 717 104 717 139.5 756.5 c 128,-1,1
EndSplineSet
EndChar

StartChar: cedilla
Encoding: 184 184 121
Width: 596
GlyphClass: 2
Flags: HW
LayerCount: 2
Fore
SplineSet
114 -403 m 1,0,-1
 122 -312 l 1,1,2
 207 -337 207 -337 256 -337 c 0,3,4
 356 -337 356 -337 356 -258.5 c 0,5,6
 356 -180 356 -180 259 -180 c 0,7,8
 257 -180 257 -180 227 -182 c 2,9,-1
 198 -184 l 1,10,-1
 226 16 l 1,11,-1
 312 16 l 1,12,-1
 298 -97 l 1,13,-1
 305 -97 l 2,14,15
 380 -97 380 -97 431 -138 c 128,-1,16
 482 -179 482 -179 482 -259.5 c 0,17,18
 482 -340 482 -340 422.5 -382.5 c 128,-1,19
 363 -425 363 -425 287 -425 c 0,20,21
 211 -425 211 -425 114 -403 c 1,0,-1
298 0 m 0,22,-1
298 0 m 0,23,-1
298 0 m 0,24,-1
298 0 m 0,25,-1
EndSplineSet
EndChar

StartChar: uni00B9
Encoding: 185 185 122
Width: 613
GlyphClass: 2
Flags: HW
LayerCount: 2
Fore
SplineSet
377 1538 m 1,0,-1
 377 775 l 1,1,-1
 483 775 l 1,2,-1
 483 650 l 1,3,-1
 163 650 l 1,4,-1
 163 778 l 1,5,-1
 271 778 l 1,6,7
 271 1015 271 1015 270 1184 c 128,-1,8
 269 1353 269 1353 269 1369 c 1,9,10
 215 1334 215 1334 136 1294 c 1,11,-1
 136 1436 l 1,12,13
 229 1474 229 1474 285 1519 c 1,14,-1
 377 1538 l 1,0,-1
EndSplineSet
EndChar

StartChar: ordmasculine
Encoding: 186 186 123
Width: 899
GlyphClass: 2
Flags: HW
LayerCount: 2
Fore
SplineSet
308 1396.5 m 128,-1,1
 256 1320 256 1320 256 1205 c 128,-1,2
 256 1090 256 1090 307 1015.5 c 128,-1,3
 358 941 358 941 450.5 941 c 128,-1,4
 543 941 543 941 594 1016.5 c 128,-1,5
 645 1092 645 1092 645 1205.5 c 128,-1,6
 645 1319 645 1319 593 1396 c 128,-1,7
 541 1473 541 1473 450.5 1473 c 128,-1,0
 360 1473 360 1473 308 1396.5 c 128,-1,1
451 1590 m 128,-1,9
 599 1590 599 1590 684 1481 c 128,-1,10
 769 1372 769 1372 769 1206.5 c 128,-1,11
 769 1041 769 1041 684.5 933.5 c 128,-1,12
 600 826 600 826 449.5 826 c 128,-1,13
 299 826 299 826 215 933.5 c 128,-1,14
 131 1041 131 1041 131 1207.5 c 128,-1,15
 131 1374 131 1374 217 1482 c 128,-1,8
 303 1590 303 1590 451 1590 c 128,-1,9
EndSplineSet
EndChar

StartChar: guillemotright
Encoding: 187 187 124
Width: 1007
GlyphClass: 2
Flags: HW
LayerCount: 2
Fore
SplineSet
528 585 m 1,0,-1
 263 182 l 1,1,-1
 124 182 l 1,2,-1
 356 585 l 1,3,-1
 129 982 l 1,4,-1
 266 982 l 1,5,-1
 528 585 l 1,0,-1
895 585 m 1,6,-1
 653 182 l 1,7,-1
 491 182 l 1,8,-1
 744 585 l 1,9,-1
 501 982 l 1,10,-1
 659 982 l 1,11,-1
 895 585 l 1,6,-1
EndSplineSet
EndChar

StartChar: onequarter
Encoding: 188 188 125
Width: 1609
GlyphClass: 2
Flags: HW
LayerCount: 2
Fore
SplineSet
1066 358 m 1,0,-1
 1312 358 l 1,1,-1
 1312 608 l 2,2,3
 1312 688 1312 688 1313 716 c 1,4,-1
 1066 358 l 1,0,-1
1420 40 m 1,5,-1
 1313 40 l 1,6,-1
 1313 240 l 1,7,-1
 923 240 l 1,8,-1
 923 339 l 1,9,-1
 1302 899 l 1,10,-1
 1422 899 l 1,11,-1
 1422 358 l 1,12,-1
 1516 358 l 1,13,-1
 1526 240 l 1,14,-1
 1420 240 l 1,15,-1
 1420 40 l 1,5,-1
1212 1547 m 1,16,-1
 1355 1547 l 1,17,-1
 425 0 l 1,18,-1
 293 0 l 1,19,-1
 1212 1547 l 1,16,-1
120 1294 m 1,20,-1
 120 1436 l 1,21,22
 211 1473 211 1473 268 1519 c 1,23,-1
 361 1538 l 1,24,-1
 361 775 l 1,25,-1
 473 775 l 1,26,-1
 473 650 l 1,27,-1
 147 650 l 1,28,-1
 147 778 l 1,29,-1
 255 778 l 1,30,31
 255 1015 255 1015 254 1184 c 128,-1,32
 253 1353 253 1353 253 1369 c 1,33,34
 199 1334 199 1334 120 1294 c 1,20,-1
EndSplineSet
EndChar

StartChar: onehalf
Encoding: 189 189 126
Width: 1591
GlyphClass: 2
Flags: HW
LayerCount: 2
Fore
SplineSet
1457 -30 m 1,0,-1
 934 -30 l 1,1,-1
 934 93 l 1,2,3
 1226.51857969 370.283236994 1226.51857969 370.283236994 1298.25928985 467.480328174 c 128,-1,4
 1370 564.677419355 1370 564.677419355 1370 623.338709677 c 128,-1,5
 1370 682 1370 682 1332 713.5 c 128,-1,6
 1294 745 1294 745 1225 745 c 0,7,8
 1094 745 1094 745 1031 604 c 1,9,-1
 943 689 l 1,10,11
 979 776 979 776 1054.5 824 c 128,-1,12
 1130 872 1130 872 1237 872 c 128,-1,13
 1344 872 1344 872 1413.5 806 c 128,-1,14
 1483 740 1483 740 1483 636.569767442 c 128,-1,15
 1483 533.139534884 1483 533.139534884 1431.5 450.5 c 0,16,17
 1410 416 1410 416 1397.5 395.5 c 128,-1,18
 1385 375 1385 375 1351 336 c 128,-1,19
 1317 297 1317 297 1303 280.5 c 0,20,21
 1263.70096458 234.183279686 1263.70096458 234.183279686 1123 99 c 1,22,-1
 1457 99 l 1,23,-1
 1457 -30 l 1,0,-1
1165 1547 m 1,24,-1
 1319 1547 l 1,25,-1
 379 0 l 1,26,-1
 245 0 l 1,27,-1
 1165 1547 l 1,24,-1
122 1294 m 1,28,-1
 122 1436 l 1,29,30
 215 1474 215 1474 271 1519 c 1,31,-1
 363 1538 l 1,32,-1
 363 775 l 1,33,-1
 487 775 l 1,34,-1
 487 650 l 1,35,-1
 149 650 l 1,36,-1
 149 778 l 1,37,-1
 257 778 l 1,38,39
 257 1015 257 1015 256 1184 c 128,-1,40
 255 1353 255 1353 255 1369 c 1,41,42
 201 1334 201 1334 122 1294 c 1,28,-1
EndSplineSet
EndChar

StartChar: threequarters
Encoding: 190 190 127
Width: 1630
GlyphClass: 2
Flags: HW
LayerCount: 2
Fore
SplineSet
1085 361 m 1,0,-1
 1331 361 l 1,1,2
 1331 664 1331 664 1334 721 c 1,3,-1
 1085 361 l 1,0,-1
1441 44 m 1,4,-1
 1334 44 l 1,5,-1
 1334 245 l 1,6,-1
 942 245 l 1,7,-1
 942 343 l 1,8,-1
 1321 903 l 1,9,-1
 1442 903 l 1,10,-1
 1442 361 l 1,11,-1
 1538 361 l 1,12,-1
 1546 245 l 1,13,-1
 1441 245 l 1,14,-1
 1441 44 l 1,4,-1
1249 1547 m 1,15,-1
 1393 1547 l 1,16,-1
 465 0 l 1,17,-1
 331 0 l 1,18,-1
 1249 1547 l 1,15,-1
166 1339 m 1,19,-1
 116 1442 l 1,20,21
 158 1492 158 1492 217 1522.5 c 128,-1,22
 276 1553 276 1553 338 1553 c 0,23,24
 438 1553 438 1553 519 1484.5 c 128,-1,25
 600 1416 600 1416 600 1295.5 c 0,26,27
 600 1175 600 1175 487 1112 c 1,28,29
 620 1049 620 1049 620 899 c 0,30,31
 620 780 620 780 534 705.5 c 128,-1,32
 448 631 448 631 325.5 631 c 0,33,34
 203 631 203 631 116 735 c 1,35,-1
 168 838 l 1,36,37
 245 753 245 753 319 753 c 0,38,39
 393 753 393 753 438.5 794.5 c 128,-1,40
 484 836 484 836 484 903 c 0,41,42
 484 1046 484 1046 293 1046 c 2,43,-1
 244 1046 l 1,44,-1
 244 1174 l 1,45,-1
 288 1174 l 2,46,47
 462 1174 462 1174 462 1303 c 0,48,49
 462 1364 462 1364 428 1394 c 128,-1,50
 394 1424 394 1424 337 1424 c 0,51,52
 251 1424 251 1424 166 1339 c 1,19,-1
EndSplineSet
EndChar

StartChar: questiondown
Encoding: 191 191 128
Width: 867
GlyphClass: 2
Flags: HW
LayerCount: 2
Fore
SplineSet
600 1464 m 1,0,-1
 600 1234 l 1,1,-1
 380 1234 l 1,2,-1
 380 1464 l 1,3,-1
 600 1464 l 1,0,-1
725 207 m 2,4,-1
 767 81 l 1,5,6
 631 -25 631 -25 463.5 -25 c 128,-1,7
 296 -25 296 -25 191 62.5 c 128,-1,8
 86 150 86 150 86 310 c 0,9,10
 86 435.163934426 86 435.163934426 154.5 525 c 0,11,12
 195.527186761 578.806146572 195.527186761 578.806146572 263.263593381 641.903073286 c 128,-1,13
 331 705 331 705 361.5 739.5 c 0,14,15
 430 816.983606557 430 816.983606557 430 917 c 2,16,-1
 430 1028 l 1,17,-1
 564 1028 l 1,18,-1
 568 963 l 1,19,20
 573 903 573 903 573 853.5 c 128,-1,21
 573 804 573 804 548.5 757.5 c 128,-1,22
 524 711 524 711 487 675.5 c 128,-1,23
 450 640 450 640 407 599 c 128,-1,24
 364 558 364 558 327 520 c 0,25,26
 241 431.675675676 241 431.675675676 241 326.837837838 c 128,-1,27
 241 222 241 222 310.5 171.5 c 128,-1,28
 380 121 380 121 473.6 121 c 0,29,30
 567.2 121 567.2 121 613.1 143.5 c 128,-1,31
 659 166 659 166 667.5 170.5 c 128,-1,32
 676 175 676 175 700 191 c 128,-1,33
 724 207 724 207 725 207 c 2,4,-1
EndSplineSet
EndChar

StartChar: AE
Encoding: 198 198 135
Width: 2092
GlyphClass: 2
Flags: HW
LayerCount: 2
Fore
SplineSet
85 0 m 1,0,-1
 905 1568 l 1,1,-1
 1946 1568 l 1,2,-1
 1946 1409 l 1,3,-1
 1241 1409 l 1,4,-1
 1280 882 l 1,5,-1
 1911 882 l 1,6,-1
 1911 724 l 1,7,-1
 1300 724 l 1,8,-1
 1342 158 l 1,9,-1
 1966 158 l 1,10,-1
 1966 0 l 1,11,-1
 1183 0 l 1,12,-1
 1152 427 l 1,13,-1
 480 427 l 1,14,-1
 258 0 l 1,15,-1
 85 0 l 1,0,-1
1069 1409 m 1,16,-1
 1017 1409 l 1,17,-1
 564 589 l 1,18,-1
 1130 589 l 1,19,-1
 1069 1409 l 1,16,-1
1046 1489 m 0,20,-1
1046 1489 m 0,21,-1
1046 1489 m 0,22,-1
1046 1489 m 0,23,-1
EndSplineSet
EndChar

StartChar: Eth
Encoding: 208 208 145
Width: 1522
GlyphClass: 2
Flags: HW
LayerCount: 2
Fore
SplineSet
29 697 m 1,0,-1
 29 832 l 1,1,-1
 566 832 l 1,2,-1
 566 697 l 1,3,-1
 29 697 l 1,0,-1
324 1341 m 1,4,-1
 324 155 l 1,5,-1
 639 155 l 2,6,7
 918 155 918 155 1070.5 301.5 c 128,-1,8
 1223 448 1223 448 1223 734 c 0,9,10
 1223 1131.52873563 1223 1131.52873563 957 1263 c 0,11,12
 799.186046512 1341 799.186046512 1341 540 1341 c 2,13,-1
 324 1341 l 1,4,-1
147 0 m 1,14,-1
 147 1496 l 1,15,-1
 519 1496 l 2,16,17
 1029.50877193 1496 1029.50877193 1496 1247 1254.5 c 0,18,19
 1412 1071.28571429 1412 1071.28571429 1412 720.500000002 c 0,20,21
 1412 369.714285714 1412 369.714285714 1196.33333333 184.857142857 c 0,22,23
 980.666666667 7.1054273576e-14 980.666666667 7.1054273576e-14 621 0 c 2,24,-1
 147 0 l 1,14,-1
761 1489 m 0,25,-1
761 745 m 0,26,-1
761 1489 m 0,27,-1
761 745 m 0,28,-1
761 1489 m 0,29,-1
761 745 m 0,30,-1
761 1489 m 0,31,-1
761 745 m 0,32,-1
EndSplineSet
EndChar

StartChar: multiply
Encoding: 215 215 152
Width: 993
GlyphClass: 2
Flags: HW
LayerCount: 2
Fore
SplineSet
860 915 m 1,0,-1
 595 598 l 1,1,-1
 860 278 l 1,2,-1
 767 166 l 1,3,-1
 488 486 l 1,4,-1
 206 166 l 1,5,-1
 115 276 l 1,6,-1
 381 598 l 1,7,-1
 115 917 l 1,8,-1
 206 1027 l 1,9,-1
 488 707 l 1,10,-1
 767 1027 l 1,11,-1
 860 915 l 1,0,-1
EndSplineSet
EndChar

StartChar: Oslash
Encoding: 216 216 153
Width: 1717
GlyphClass: 2
Flags: HW
LayerCount: 2
Fore
SplineSet
688 173 m 1,0,1
 762 152 762 152 873 152 c 128,-1,2
 984 152 984 152 1088 200.5 c 128,-1,3
 1192 249 1192 249 1257.5 335.5 c 0,4,5
 1390 510.480916031 1390 510.480916031 1390 785 c 0,6,7
 1390 961 1390 961 1330.5 1101.5 c 128,-1,8
 1271 1242 1271 1242 1155 1322 c 1,9,-1
 688 173 l 1,0,1
1178 1745 m 1,10,-1
 1309 1699 l 1,11,-1
 1227 1497 l 1,12,13
 1399 1401 1399 1401 1490 1216.5 c 128,-1,14
 1581 1032 1581 1032 1581 778 c 0,15,16
 1581 340.924855491 1581 340.924855491 1315.5 123 c 0,17,18
 1135.19014085 -25 1135.19014085 -25 851 -25 c 0,19,20
 724 -25 724 -25 619 5 c 1,21,-1
 544 -180 l 1,22,-1
 419 -137 l 1,23,-1
 496 53 l 1,24,25
 313 145 313 145 217 335 c 128,-1,26
 121 525 121 525 121 778 c 0,27,28
 121 1151 121 1151 314 1368.5 c 128,-1,29
 507 1586 507 1586 851 1586 c 0,30,31
 984 1586 984 1586 1100 1551 c 1,32,-1
 1178 1745 l 1,10,-1
1032 1382 m 1,33,34
 951 1409 951 1409 835 1409 c 128,-1,35
 719 1409 719 1409 615 1360.5 c 128,-1,36
 511 1312 511 1312 445 1227 c 0,37,38
 311 1054.42424242 311 1054.42424242 311 785 c 0,39,40
 311 597 311 597 376 450 c 128,-1,41
 441 303 441 303 566 227 c 1,42,-1
 1032 1382 l 1,33,34
859 1489 m 0,43,-1
859 1489 m 0,44,-1
859 1489 m 0,45,-1
859 1489 m 0,46,-1
EndSplineSet
EndChar

StartChar: Thorn
Encoding: 222 222 159
Width: 1291
GlyphClass: 2
Flags: HW
LayerCount: 2
Fore
SplineSet
324 1068 m 1,0,-1
 324 493 l 1,1,-1
 708 493 l 2,2,3
 1040 493 1040 493 1040 782 c 0,4,5
 1040 932 1040 932 954.5 1000 c 128,-1,6
 869 1068 869 1068 666 1068 c 2,7,-1
 324 1068 l 1,0,-1
147 0 m 1,8,-1
 147 1496 l 1,9,-1
 324 1496 l 1,10,-1
 324 1217 l 1,11,-1
 648 1217 l 2,12,13
 929 1217 929 1217 1069 1118.5 c 128,-1,14
 1209 1020 1209 1020 1209 800.5 c 0,15,16
 1209 581 1209 581 1089 461.5 c 128,-1,17
 969 342 969 342 719 342 c 1,18,-1
 324 349 l 1,19,-1
 324 0 l 1,20,-1
 147 0 l 1,8,-1
EndSplineSet
EndChar

StartChar: germandbls
Encoding: 223 223 160
Width: 1222
GlyphClass: 2
Flags: HW
LayerCount: 2
Fore
SplineSet
771 148 m 2,0,1
 868 148 868 148 922.5 200.5 c 128,-1,2
 977 253 977 253 977 347.916666666 c 128,-1,3
 977 442.833333333 977 442.833333333 887.012084592 514.073766364 c 128,-1,4
 797.024169184 585.314199396 797.024169184 585.314199396 708.012084592 635.657099698 c 128,-1,5
 619 686 619 686 591 705 c 0,6,7
 509 761 509 761 509 820.5 c 128,-1,8
 509 880 509 880 574 934 c 0,9,10
 600 955 600 955 649 986.5 c 128,-1,11
 698 1018 698 1018 725.5 1038 c 128,-1,12
 753 1058 753 1058 776 1096 c 128,-1,13
 799 1134 799 1134 799 1182 c 0,14,15
 799 1269 799 1269 732 1321 c 128,-1,16
 665 1373 665 1373 568 1373 c 0,17,18
 286 1373 286 1373 286 1056 c 2,19,-1
 286 0 l 1,20,-1
 118 0 l 1,21,-1
 118 1046 l 2,22,23
 118 1275 118 1275 230 1400 c 128,-1,24
 342 1525 342 1525 550 1525 c 128,-1,25
 758 1525 758 1525 873 1433.5 c 128,-1,26
 988 1342 988 1342 988 1182 c 0,27,28
 988 1099 988 1099 961 1058.5 c 128,-1,29
 934 1018 934 1018 916.5 997.5 c 0,30,31
 887.786407767 963.86407767 887.786407767 963.86407767 834.393203883 929.886584289 c 128,-1,32
 781 895.909090909 781 895.909090909 683 838 c 1,33,34
 736.739130435 799.816933638 736.739130435 799.816933638 838.369565217 739.908466819 c 0,35,36
 1014.86398413 635.86965146 1014.86398413 635.86965146 1090.43199207 551.786938406 c 128,-1,37
 1166 467.704225352 1166 467.704225352 1166 361.352112676 c 0,38,39
 1166 161.428571429 1166 161.428571429 1060.0625 80.7142857143 c 128,-1,40
 954.125 8.52651282912e-14 954.125 8.52651282912e-14 786 0 c 2,41,-1
 443 0 l 1,42,-1
 459 148 l 1,43,-1
 771 148 l 2,0,1
EndSplineSet
EndChar

StartChar: ae
Encoding: 230 230 167
Width: 1674
GlyphClass: 2
Flags: HW
LayerCount: 2
Fore
SplineSet
856 112 m 1,0,1
 639.532846715 -21.8678447945 639.532846715 -21.8678447945 404 -26 c 1,2,3
 207 -26 207 -26 126 107 c 0,4,5
 80 184 80 184 80 306.705357143 c 128,-1,6
 80 429.410714286 80 429.410714286 161 494.5 c 0,7,8
 275.243902439 586.303135889 275.243902439 586.303135889 551 606 c 0,9,10
 645 612.714285714 645 612.714285714 714 616 c 1,11,-1
 714 781 l 2,12,13
 714 883 714 883 671 929.5 c 128,-1,14
 628 976 628 976 527 976 c 0,15,16
 322.628571429 976 322.628571429 976 168 894 c 1,17,-1
 132 1032 l 1,18,19
 197 1069 197 1069 305.5 1096.5 c 128,-1,20
 414 1124 414 1124 529 1124 c 128,-1,21
 644 1124 644 1124 729.5 1075 c 128,-1,22
 815 1026 815 1026 837 932 c 1,23,24
 890 1027 890 1027 984.5 1075.5 c 128,-1,25
 1079 1124 1079 1124 1185 1124 c 0,26,27
 1389.17460317 1124 1389.17460317 1124 1477.58730159 994.465116279 c 128,-1,28
 1566 864.930232558 1566 864.930232558 1566 684 c 0,29,30
 1566 606 1566 606 1529.5 573 c 128,-1,31
 1493 540 1493 540 1379 534 c 2,32,-1
 882 509 l 1,33,34
 895 322 895 322 968.5 220.5 c 128,-1,35
 1042 119 1042 119 1194 119 c 0,36,37
 1282 119 1282 119 1368 152 c 128,-1,38
 1454 185 1454 185 1517 229 c 1,39,-1
 1569 108 l 1,40,41
 1415 -25 1415 -25 1198 -25 c 128,-1,42
 981 -25 981 -25 856 112 c 1,0,1
416 113 m 0,43,44
 512.666666667 113 512.666666667 113 718 184.5 c 0,45,46
 774 204 774 204 787 208 c 1,47,48
 720 330 720 330 711 499 c 1,49,50
 700 498 700 498 689 497.5 c 0,51,52
 354.640490798 482.301840491 354.640490798 482.301840491 280 392.5 c 0,53,54
 248 354 248 354 248 291 c 0,55,56
 248 113 248 113 416 113 c 0,43,44
1189 984 m 0,57,58
 1046 984 1046 984 971.5 882.5 c 128,-1,59
 897 781 897 781 888 615 c 1,60,-1
 1404 644 l 1,61,62
 1404 649 1404 649 1404 654 c 0,63,64
 1403 825 1403 825 1351 904.5 c 128,-1,65
 1299 984 1299 984 1189 984 c 0,57,58
837 1098 m 0,66,-1
837 1098 m 0,67,-1
837 1098 m 0,68,-1
837 1098 m 0,69,-1
EndSplineSet
EndChar

StartChar: eth
Encoding: 240 240 177
Width: 1204
GlyphClass: 2
Flags: HW
LayerCount: 2
Fore
SplineSet
569 972 m 0,0,1
 715 972 715 972 844 877 c 1,2,3
 761 1035 761 1035 541 1257 c 1,4,-1
 269 1145 l 1,5,-1
 226 1277 l 1,6,-1
 446 1364 l 1,7,-1
 210 1588 l 1,8,-1
 433 1588 l 1,9,-1
 601 1431 l 1,10,-1
 868 1542 l 1,11,-1
 914 1413 l 1,12,-1
 694 1322 l 1,13,14
 871.447191011 1113.42172285 871.447191011 1113.42172285 930.723595506 1022.71086142 c 128,-1,15
 990 932 990 932 1015 884 c 0,16,17
 1117 694 1117 694 1117 480.666666666 c 0,18,19
 1117 267.333333333 1117 267.333333333 985.45 121.166666666 c 0,20,21
 853.9 -25 853.9 -25 603 -25 c 0,22,23
 482 -25 482 -25 383 16 c 128,-1,24
 284 57 284 57 220 127.5 c 0,25,26
 87 274.0078125 87 274.0078125 87 489.50390625 c 128,-1,27
 87 705 87 705 219.5 838.5 c 128,-1,28
 352 972 352 972 569 972 c 0,0,1
603 833 m 0,29,30
 449 833 449 833 359 733 c 128,-1,31
 269 633 269 633 269 485 c 0,32,33
 269 271.898734177 269 271.898734177 421 168 c 0,34,35
 500 114 500 114 609 114 c 0,36,37
 766 114 766 114 855.5 215 c 128,-1,38
 945 316 945 316 945 465.178571428 c 0,39,40
 945 614.357142857 945 614.357142857 858 720 c 0,41,42
 816 771 816 771 749.5 802 c 128,-1,43
 683 833 683 833 603 833 c 0,29,30
EndSplineSet
EndChar

StartChar: divide
Encoding: 247 247 184
Width: 1211
GlyphClass: 2
Flags: HW
LayerCount: 2
Fore
SplineSet
682 249 m 1,0,-1
 682 22 l 1,1,-1
 491 22 l 1,2,-1
 491 249 l 1,3,-1
 682 249 l 1,0,-1
716 1166 m 1,4,-1
 716 939 l 1,5,-1
 491 939 l 1,6,-1
 491 1166 l 1,7,-1
 716 1166 l 1,4,-1
1098 523 m 1,8,-1
 97 523 l 1,9,-1
 97 672 l 1,10,-1
 1098 672 l 1,11,-1
 1098 523 l 1,8,-1
EndSplineSet
EndChar

StartChar: oslash
Encoding: 248 248 185
Width: 1179
GlyphClass: 2
Flags: HW
LayerCount: 2
Fore
SplineSet
909 384 m 0,0,1
 928 460 928 460 928 549 c 0,2,3
 928 731.789473684 928 731.789473684 850.72 858.894736842 c 128,-1,4
 773.44 986 773.44 986 594 986 c 0,5,6
 509 986 509 986 441.5 949 c 128,-1,7
 374 912 374 912 333 849 c 0,8,9
 250 721.463414634 250 721.463414634 250 545.475609756 c 128,-1,10
 250 369.487804878 250 369.487804878 336.196721312 241.243902439 c 128,-1,11
 422.393442623 113 422.393442623 113 597 113 c 0,12,13
 841.25 113 841.25 113 909 384 c 0,0,1
573.5 -25 m 0,14,15
 433 -25 433 -25 314 53 c 128,-1,16
 195 131 195 131 136 259 c 128,-1,17
 77 387 77 387 77 546.5 c 128,-1,18
 77 706 77 706 136.5 835.5 c 128,-1,19
 196 965 196 965 316 1044.5 c 128,-1,20
 436 1124 436 1124 597 1124 c 0,21,22
 884.472222222 1124 884.472222222 1124 1020.5 888 c 0,23,24
 1102 746.602409639 1102 746.602409639 1102 529.840887359 c 128,-1,25
 1102 313.079365079 1102 313.079365079 968.88125 144.03968254 c 128,-1,26
 835.7625 -25 835.7625 -25 573.5 -25 c 0,14,15
590 1098 m 0,27,-1
590 1098 m 0,28,-1
602 997 m 0,29,-1
602 997 m 0,30,-1
894 1367 m 1,31,-1
 971 1336 l 1,32,-1
 286 -275 l 1,33,-1
 215 -237 l 1,34,-1
 894 1367 l 1,31,-1
595 1098 m 0,35,-1
595 1098 m 0,36,-1
595 1098 m 0,37,-1
595 1098 m 0,38,-1
EndSplineSet
EndChar

StartChar: thorn
Encoding: 254 254 191
Width: 1205
GlyphClass: 2
Flags: HW
LayerCount: 2
Fore
SplineSet
614 113 m 0,0,1
 537 113 537 113 471.5 148.5 c 128,-1,2
 406 184 406 184 367 246 c 0,3,4
 290 368.41025641 290 368.41025641 290 551 c 0,5,6
 290 805.392405063 290 805.392405063 443 924.5 c 0,7,8
 522 986 522 986 617.5 986 c 0,9,10
 794.503759398 986 794.503759398 986 865 839.5 c 0,11,12
 926 712.734375 926 712.734375 926 551 c 0,13,14
 926 337.333333333 926 337.333333333 832 212 c 0,15,16
 757.75 113 757.75 113 614 113 c 0,0,1
292 162 m 1,17,18
 402 -25 402 -25 652.093333334 -25 c 128,-1,19
 902.186666667 -25 902.186666667 -25 1027 228 c 0,20,21
 1099 373.945945946 1099 373.945945946 1099 546.472972973 c 128,-1,22
 1099 719 1099 719 1043 846.5 c 128,-1,23
 987 974 987 974 882.5 1048.5 c 128,-1,24
 778 1123 778 1123 643 1124 c 1,25,26
 421 1124 421 1124 292 933 c 1,27,-1
 292 1510 l 1,28,-1
 124 1510 l 1,29,-1
 124 -459 l 1,30,-1
 292 -459 l 1,31,-1
 292 162 l 1,17,18
EndSplineSet
EndChar

StartChar: gcommaaccent
Encoding: 291 291 226
Width: 1268
GlyphClass: 2
Flags: HW
LayerCount: 2
Fore
SplineSet
793 1749 m 1,0,-1
 683 1250 l 1,1,-1
 488 1250 l 1,2,-1
 653 1749 l 1,3,-1
 793 1749 l 1,0,-1
889 180 m 1,4,5
 765.551724138 1 765.551724138 1 564.5 1 c 0,6,7
 283.591549296 1 283.591549296 1 153 245 c 0,8,9
 80 381.394736842 80 381.394736842 80 545 c 0,10,11
 80 850.053571429 80 850.053571429 249 1010 c 0,12,13
 369.452830189 1124 369.452830189 1124 568.226415094 1124 c 128,-1,14
 767 1124 767 1124 894 951 c 1,15,-1
 894 1098 l 1,16,-1
 1057 1098 l 1,17,-1
 1057 79 l 2,18,19
 1057 -156 1057 -156 999.76300578 -270.473988439 c 128,-1,20
 942.526011561 -384.947976879 942.526011561 -384.947976879 824.447216307 -443.473988439 c 128,-1,21
 706.368421053 -502 706.368421053 -502 502 -502 c 2,22,-1
 324 -502 l 1,23,-1
 302 -351 l 1,24,-1
 506 -351 l 2,25,26
 680.345454545 -351 680.345454545 -351 761.692319436 -297.737171798 c 128,-1,27
 843.039184326 -244.474343596 843.039184326 -244.474343596 866.019592163 -153.403838465 c 128,-1,28
 889 -62.3333333333 889 -62.3333333333 889 83 c 2,29,-1
 889 180 l 1,4,5
578 143 m 0,30,31
 772.635416667 143 772.635416667 143 849.5 300 c 0,32,33
 894 390.893617021 894 390.893617021 894 516 c 2,34,-1
 894 597 l 2,35,36
 894 760.459459459 894 760.459459459 818.101851852 871.229729729 c 128,-1,37
 742.203703704 982 742.203703704 982 577 982 c 0,38,39
 493 982 493 982 427.5 942.5 c 128,-1,40
 362 903 362 903 325.5 838.5 c 0,41,42
 252 708.616438356 252 708.616438356 252 554 c 0,43,44
 252 356.094594595 252 356.094594595 364 233.5 c 0,45,46
 446.679012346 143 446.679012346 143 578 143 c 0,30,31
583 1098 m 0,47,-1
583 1098 m 0,48,-1
583 1098 m 0,49,-1
584 1098 m 0,50,-1
EndSplineSet
EndChar

StartChar: Hbar
Encoding: 294 294 229
Width: 1463
GlyphClass: 2
Flags: HW
LayerCount: 2
Fore
SplineSet
1141 696 m 1,0,-1
 324 696 l 1,1,-1
 324 0 l 1,2,-1
 147 0 l 1,3,-1
 147 1146 l 1,4,-1
 57 1146 l 1,5,-1
 57 1251 l 1,6,-1
 147 1251 l 1,7,-1
 147 1496 l 1,8,-1
 324 1496 l 1,9,-1
 324 1251 l 1,10,-1
 1141 1251 l 1,11,-1
 1141 1496 l 1,12,-1
 1318 1496 l 1,13,-1
 1318 1251 l 1,14,-1
 1408 1251 l 1,15,-1
 1408 1146 l 1,16,-1
 1318 1146 l 1,17,-1
 1318 0 l 1,18,-1
 1141 0 l 1,19,-1
 1141 696 l 1,0,-1
324 1146 m 1,20,-1
 324 848 l 1,21,-1
 1141 848 l 1,22,-1
 1141 1146 l 1,23,-1
 324 1146 l 1,20,-1
EndSplineSet
EndChar

StartChar: hbar
Encoding: 295 295 230
Width: 1115
GlyphClass: 2
Flags: HW
LayerCount: 2
Fore
SplineSet
558 1270 m 1,0,-1
 21 1270 l 1,1,-1
 21 1386 l 1,2,-1
 558 1386 l 1,3,-1
 558 1270 l 1,0,-1
282 0 m 1,4,-1
 282 748 l 1,5,6
 304 833 304 833 401 906.5 c 128,-1,7
 498 980 498 980 612.094339623 980 c 0,8,9
 726.188679245 980 726.188679245 980 782.594339623 918.989795919 c 0,10,11
 839 857.979591837 839 857.979591837 839 617 c 2,12,-1
 839 0 l 1,13,-1
 1007 0 l 1,14,-1
 1007 664 l 2,15,16
 1007 885 1007 885 924.5 1004.5 c 128,-1,17
 842 1124 842 1124 674 1124 c 0,18,19
 427 1124 427 1124 282 949 c 1,20,-1
 282 1510 l 1,21,-1
 114 1490 l 1,22,-1
 114 0 l 1,23,-1
 282 0 l 1,4,-1
556 1098 m 0,24,-1
556 549 m 0,25,-1
556 1098 m 0,26,-1
556 549 m 0,27,-1
556 1098 m 0,28,-1
556 549 m 0,29,-1
556 1098 m 0,30,-1
556 549 m 0,31,-1
EndSplineSet
EndChar

StartChar: dotlessi
Encoding: 305 305 240
Width: 430
GlyphClass: 2
Flags: HW
LayerCount: 2
Fore
SplineSet
304 1098 m 1,0,-1
 304 0 l 1,1,-1
 135 0 l 1,2,-1
 135 1098 l 1,3,-1
 304 1098 l 1,0,-1
215 1098 m 0,4,-1
387 10 m 0,5,-1
215 1098 m 0,6,-1
387 10 m 0,7,-1
215 1098 m 0,8,-1
387 10 m 0,9,-1
215 1098 m 0,10,-1
387 10 m 0,11,-1
EndSplineSet
EndChar

StartChar: IJ
Encoding: 306 306 241
Width: 1464
GlyphClass: 2
Flags: HW
LayerCount: 2
Fore
SplineSet
1133 409 m 2,0,-1
 1133 1557 l 1,1,-1
 1309 1557 l 1,2,-1
 1309 461 l 2,3,4
 1309 263.789473684 1309 263.789473684 1293 209.894736842 c 128,-1,5
 1277 156 1277 156 1261.5 122.5 c 128,-1,6
 1246 89 1246 89 1223.5 67.5 c 0,7,8
 1166.51336691 13.0461061604 1166.51336691 13.0461061604 1086.37573108 -7.4769469198 c 128,-1,9
 1006.23809524 -28 1006.23809524 -28 887 -28 c 2,10,-1
 854 -28 l 1,11,-1
 854 139 l 1,12,-1
 907 139 l 1,13,14
 1039.24957555 141.938879457 1039.24957555 141.938879457 1085.5 198 c 0,15,16
 1118.18683274 237.620403321 1118.18683274 237.620403321 1125.59341637 288.643534994 c 128,-1,17
 1133 339.666666667 1133 339.666666667 1133 409 c 2,0,-1
334 1557 m 1,18,-1
 334 0 l 1,19,-1
 155 0 l 1,20,-1
 155 1557 l 1,21,-1
 334 1557 l 1,18,-1
EndSplineSet
EndChar

StartChar: ij
Encoding: 307 307 242
Width: 976
GlyphClass: 2
Flags: HW
LayerCount: 2
Fore
SplineSet
817 1098 m 1,0,-1
 817 180 l 2,1,2
 817 -34.4090909091 817 -34.4090909091 789.410098522 -110.908363189 c 128,-1,3
 761.820197044 -187.407635468 761.820197044 -187.407635468 725.410098522 -213.703817734 c 128,-1,4
 689 -240 689 -240 634.597359736 -265.806380638 c 128,-1,5
 580.194719472 -291.612761276 580.194719472 -291.612761276 445 -308 c 1,6,-1
 437 -310 l 1,7,-1
 437 -141 l 1,8,-1
 445 -141 l 1,9,10
 523.803867403 -132.480662983 523.803867403 -132.480662983 552.401933702 -115.740331492 c 128,-1,11
 581 -99 581 -99 596 -88 c 128,-1,12
 611 -77 611 -77 620.5 -56.5 c 0,13,14
 640.322323462 -13.7255125285 640.322323462 -13.7255125285 643.661161731 24.3372437358 c 128,-1,15
 647 62.4 647 62.4 647 126 c 2,16,-1
 647 1098 l 1,17,-1
 817 1098 l 1,0,-1
325 1098 m 1,18,-1
 325 0 l 1,19,-1
 155 0 l 1,20,-1
 155 1098 l 1,21,-1
 325 1098 l 1,18,-1
325 1557 m 1,22,-1
 325 1359 l 1,23,-1
 155 1359 l 1,24,-1
 155 1557 l 1,25,-1
 325 1557 l 1,22,-1
817 1557 m 1,26,-1
 817 1359 l 1,27,-1
 647 1359 l 1,28,-1
 647 1557 l 1,29,-1
 817 1557 l 1,26,-1
EndSplineSet
EndChar

StartChar: kgreenlandic
Encoding: 312 312 247
Width: 1104
GlyphClass: 2
Flags: HW
LayerCount: 2
Fore
SplineSet
823 0 m 1,0,-1
 293 506 l 1,1,-1
 293 0 l 1,2,-1
 147 0 l 1,3,-1
 147 1105 l 1,4,-1
 293 1105 l 1,5,-1
 293 600 l 1,6,-1
 776 1105 l 1,7,-1
 981 1105 l 1,8,-1
 458 551 l 1,9,10
 807 227 807 227 1014 0 c 1,11,-1
 823 0 l 1,0,-1
EndSplineSet
EndChar

StartChar: Lslash
Encoding: 321 321 256
Width: 960
GlyphClass: 2
Flags: HW
LayerCount: 2
Fore
SplineSet
0 527 m 1,0,-1
 0 675 l 1,1,-1
 675 1045 l 1,2,-1
 675 889 l 1,3,-1
 0 527 l 1,0,-1
148 1496 m 1,4,-1
 325 1496 l 1,5,-1
 325 155 l 1,6,-1
 982 155 l 1,7,-1
 970 0 l 1,8,-1
 148 0 l 1,9,-1
 148 1496 l 1,4,-1
480 1489 m 0,10,-1
480 0 m 0,11,-1
480 1489 m 0,12,-1
480 0 m 0,13,-1
480 1489 m 0,14,-1
480 0 m 0,15,-1
480 1489 m 0,16,-1
480 0 m 0,17,-1
EndSplineSet
EndChar

StartChar: lslash
Encoding: 322 322 257
Width: 589
GlyphClass: 2
Flags: HW
LayerCount: 2
Fore
SplineSet
487 985 m 1,0,-1
 487 839 l 1,1,-1
 31 486 l 1,2,-1
 31 631 l 1,3,-1
 487 985 l 1,0,-1
311 1510 m 1,4,-1
 311 431 l 2,5,6
 311 230.666666667 311 230.666666667 323.5 197.333333333 c 128,-1,7
 336 164 336 164 354.8 140.5 c 128,-1,8
 373.6 117 373.6 117 432 117 c 0,9,10
 444 117 444 117 522 123 c 1,11,-1
 533 -8 l 1,12,13
 459 -21 459 -21 410 -21 c 128,-1,14
 361 -21 361 -21 319 -11.5 c 128,-1,15
 277 -2 277 -2 246.5 11 c 128,-1,16
 216 24 216 24 197 58 c 128,-1,17
 178 92 178 92 166.5 121.5 c 0,18,19
 143 181.782608696 143 181.782608696 143 468 c 2,20,-1
 143 1490 l 1,21,-1
 311 1510 l 1,4,-1
297 1098 m 0,22,-1
297 -1 m 0,23,-1
552 1098 m 0,24,-1
297 1098 m 0,25,-1
552 1098 m 0,26,-1
297 1098 m 0,27,-1
552 1098 m 0,28,-1
297 1098 m 0,29,-1
297 0 m 0,30,-1
552 1098 m 0,31,-1
EndSplineSet
EndChar

StartChar: Eng
Encoding: 330 330 264
Width: 1420
GlyphClass: 2
Flags: HW
LayerCount: 2
Fore
SplineSet
1022.5 -305.5 m 128,-1,1
 946 -328 946 -328 863.5 -328 c 128,-1,2
 781 -328 781 -328 639 -314 c 1,3,-1
 616 -166 l 1,4,5
 769 -175 769 -175 817 -175 c 128,-1,6
 865 -175 865 -175 912.5 -169 c 128,-1,7
 960 -163 960 -163 994.5 -145 c 128,-1,8
 1029 -127 1029 -127 1048 -105 c 0,9,10
 1094 -51.7368421053 1094 -51.7368421053 1094 171 c 2,11,-1
 1094 1003 l 2,12,13
 1094 1202 1094 1202 1030 1280 c 128,-1,14
 966 1358 966 1358 808 1358 c 128,-1,15
 650 1358 650 1358 525 1282 c 128,-1,16
 400 1206 400 1206 322 1089 c 1,17,-1
 322 0 l 1,18,-1
 146 0 l 1,19,-1
 144 1496 l 1,20,-1
 304 1496 l 1,21,-1
 322 1284 l 1,22,23
 408 1377 408 1377 503.5 1431.5 c 128,-1,24
 599 1486 599 1486 679.5 1503 c 128,-1,25
 760 1520 760 1520 857 1520 c 0,26,27
 1060 1520 1060 1520 1164.5 1389.5 c 128,-1,28
 1269 1259 1269 1259 1269 1009 c 2,29,-1
 1269 165 l 2,30,31
 1269 -143.421052632 1269 -143.421052632 1146.5 -244 c 0,32,0
 1099 -283 1099 -283 1022.5 -305.5 c 128,-1,1
EndSplineSet
EndChar

StartChar: eng
Encoding: 331 331 265
Width: 1118
GlyphClass: 2
Flags: HW
LayerCount: 2
Fore
SplineSet
620 -283 m 1,0,-1
 608 -141 l 1,1,-1
 651 -141 l 2,2,3
 740.857142857 -141 740.857142857 -141 770.428571429 -127.5 c 128,-1,4
 800 -114 800 -114 811.5 -99 c 0,5,6
 843 -57.9130434783 843 -57.9130434783 843 104 c 2,7,-1
 843 551 l 2,8,9
 843 774.944444444 843 774.944444444 828.5 822.472222222 c 0,10,11
 798.980519481 919.23051948 798.980519481 919.23051948 753.893485547 949.61525974 c 128,-1,12
 708.806451613 980 708.806451613 980 629 980 c 0,13,14
 501 980 501 980 405 907 c 128,-1,15
 309 834 309 834 286 750 c 1,16,-1
 286 0 l 1,17,-1
 118 0 l 1,18,-1
 118 831 l 1,19,-1
 115 1098 l 1,20,-1
 259 1098 l 1,21,-1
 275 935 l 1,22,23
 338 1022 338 1022 444 1073 c 128,-1,24
 550 1124 550 1124 665 1124 c 0,25,26
 843 1124 843 1124 927 1007.5 c 128,-1,27
 1011 891 1011 891 1011 657 c 2,28,-1
 1011 158 l 2,29,30
 1011 -48.65 1011 -48.65 994.5 -97.325 c 128,-1,31
 978 -146 978 -146 962 -176.5 c 0,32,33
 906.131147541 -283 906.131147541 -283 691 -283 c 2,34,-1
 620 -283 l 1,0,-1
EndSplineSet
EndChar

StartChar: OE
Encoding: 338 338 272
Width: 1980
GlyphClass: 2
Flags: HW
LayerCount: 2
Fore
SplineSet
1148 1259 m 1,0,1
 1009 1373 1009 1373 815 1373 c 0,2,3
 577 1373 577 1373 437 1206.5 c 128,-1,4
 297 1040 297 1040 291 773 c 1,5,6
 291 284.247252747 291 284.247252747 619 163.5 c 0,7,8
 714.57747485 128.314885632 714.57747485 128.314885632 810.761065873 128.314885632 c 0,9,10
 906.944656897 128.314885632 906.944656897 128.314885632 1002.47232845 160.157442816 c 0,11,12
 1098 192 1098 192 1148 222 c 1,13,-1
 1148 1259 l 1,0,1
444 1427 m 128,-1,15
 602 1524 602 1524 811.882352941 1524 c 128,-1,16
 1021.76470588 1524 1021.76470588 1524 1148 1413 c 1,17,-1
 1148 1495 l 1,18,-1
 1874 1495 l 1,19,-1
 1857 1341 l 1,20,-1
 1325 1341 l 1,21,-1
 1325 845 l 1,22,-1
 1821 845 l 1,23,-1
 1821 692 l 1,24,-1
 1325 692 l 1,25,-1
 1325 156 l 1,26,-1
 1898 156 l 1,27,-1
 1883 0 l 1,28,-1
 1148 0 l 1,29,-1
 1148 82 l 1,30,31
 1114 46 1114 46 1011 11.5 c 128,-1,32
 908 -23 908 -23 823 -23 c 0,33,34
 590 -23 590 -23 426 78 c 0,35,36
 101 278.152439024 101 278.152439024 101 771 c 1,37,38
 106 987 106 987 196 1158.5 c 128,-1,14
 286 1330 286 1330 444 1427 c 128,-1,15
990 1489 m 0,39,-1
EndSplineSet
EndChar

StartChar: oe
Encoding: 339 339 273
Width: 1916
GlyphClass: 2
Flags: HW
LayerCount: 2
Fore
SplineSet
1005 889 m 1,0,1
 877.972972973 1124 877.972972973 1124 590 1124 c 0,2,3
 469 1124 469 1124 371 1078 c 128,-1,4
 273 1032 273 1032 211 953 c 0,5,6
 82 788.629032258 82 788.629032258 82 547 c 0,7,8
 82 206.310344828 82 206.310344828 310 53 c 0,9,10
 426 -25 426 -25 577 -25 c 0,11,12
 864.836363636 -25 864.836363636 -25 1000 211 c 1,13,14
 1063 97 1063 97 1172 36 c 128,-1,15
 1281 -25 1281 -25 1425 -25 c 0,16,17
 1664 -25 1664 -25 1818 107 c 1,18,-1
 1766 229 l 1,19,20
 1692 179 1692 179 1613.5 149 c 128,-1,21
 1535 119 1535 119 1430 119 c 0,22,23
 1283 119 1283 119 1188 228 c 128,-1,24
 1093 337 1093 337 1093 519 c 1,25,-1
 1832 519 l 1,26,-1
 1834 594 l 1,27,28
 1834 841 1834 841 1725 982.5 c 128,-1,29
 1616 1124 1616 1124 1414 1124 c 1,30,31
 1284 1120 1284 1120 1175 1057.5 c 128,-1,32
 1066 995 1066 995 1005 889 c 1,0,1
1099 634 m 1,33,34
 1113 796 1113 796 1196 892 c 128,-1,35
 1279 988 1279 988 1404 988 c 128,-1,36
 1529 988 1529 988 1600.5 897 c 128,-1,37
 1672 806 1672 806 1672 634 c 1,38,-1
 1099 634 l 1,33,34
335.330645161 240.705128205 m 128,-1,40
 255 368.41025641 255 368.41025641 255 544 c 0,41,42
 255 770.105263158 255 770.105263158 368 895 c 0,43,44
 450.333333333 986 450.333333333 986 587 986 c 0,45,46
 839.117647059 986 839.117647059 986 903 714.5 c 0,47,48
 921 638 921 638 921 549 c 128,-1,49
 921 460 921 460 902 384 c 128,-1,50
 883 308 883 308 845 246.5 c 0,51,52
 762.512195122 113 762.512195122 113 589.086742722 113 c 128,-1,39
 415.661290323 113 415.661290323 113 335.330645161 240.705128205 c 128,-1,40
958 1098 m 0,53,-1
EndSplineSet
EndChar

StartChar: Tbar
Encoding: 358 358 290
Width: 1050
GlyphClass: 2
Flags: HW
LayerCount: 2
Fore
SplineSet
256 531 m 1,0,-1
 256 654 l 1,1,-1
 764 654 l 1,2,-1
 764 531 l 1,3,-1
 256 531 l 1,0,-1
-3 1341 m 1,4,-1
 -3 1496 l 1,5,-1
 1069 1496 l 1,6,-1
 1069 1341 l 1,7,-1
 621 1341 l 1,8,-1
 621 0 l 1,9,-1
 444 0 l 1,10,-1
 444 1341 l 1,11,-1
 -3 1341 l 1,4,-1
533 1489 m 0,12,-1
533 0 m 0,13,-1
533 745 m 0,14,-1
533 1489 m 0,15,-1
533 0 m 0,16,-1
533 745 m 0,17,-1
533 1489 m 0,18,-1
533 0 m 0,19,-1
533 745 m 0,20,-1
533 1489 m 0,21,-1
533 0 m 0,22,-1
533 745 m 0,23,-1
EndSplineSet
EndChar

StartChar: tbar
Encoding: 359 359 291
Width: 677
GlyphClass: 2
Flags: HW
LayerCount: 2
Fore
SplineSet
38 638 m 1,0,-1
 38 764 l 1,1,-1
 570 764 l 1,2,-1
 570 638 l 1,3,-1
 38 638 l 1,0,-1
517 118 m 1,4,-1
 653 129 l 1,5,-1
 668 -7 l 1,6,7
 520 -20 520 -20 476.5 -20 c 128,-1,8
 433 -20 433 -20 397.5 -14.5 c 128,-1,9
 362 -9 362 -9 334 0 c 128,-1,10
 306 9 306 9 285 26.5 c 128,-1,11
 264 44 264 44 248.5 63.5 c 128,-1,12
 233 83 233 83 222.5 114 c 0,13,14
 201.219626168 176.82777036 201.219626168 176.82777036 195.609813084 250.556742323 c 128,-1,15
 190 324.285714286 190 324.285714286 190 445 c 2,16,-1
 190 980 l 1,17,-1
 23 980 l 1,18,-1
 36 1098 l 1,19,-1
 190 1098 l 1,20,-1
 234 1453 l 1,21,-1
 358 1462 l 1,22,-1
 358 1098 l 1,23,-1
 649 1098 l 1,24,-1
 649 980 l 1,25,-1
 358 980 l 1,26,-1
 358 367 l 2,27,28
 358 212 358 212 387.5 165 c 128,-1,29
 417 118 417 118 517 118 c 1,4,-1
362 0 m 0,30,-1
362 549 m 0,31,-1
EndSplineSet
EndChar

StartChar: uni018F
Encoding: 399 399 315
Width: 1432
GlyphClass: 2
Flags: HW
LayerCount: 2
Fore
SplineSet
1173 243 m 0,0,1
 985.314720812 -23 985.314720812 -23 652.5 -23 c 0,2,3
 395.87254902 -23 395.87254902 -23 223.507703081 151.071428572 c 0,4,5
 51.1428571429 325.142857143 51.1428571429 325.142857143 37 641 c 0,6,7
 37 650 37 650 37.5 662.5 c 128,-1,8
 38 675 38 675 38.5 687.5 c 128,-1,9
 39 700 39 700 39.5 713.5 c 128,-1,10
 40 727 40 727 41 738 c 128,-1,11
 42 749 42 749 42.5 758 c 128,-1,12
 43 767 43 767 44 777 c 1,13,-1
 1133 777 l 1,14,15
 1126.49608355 1089.18798956 1126.49608355 1089.18798956 947 1252.5 c 0,16,17
 814.558558559 1373 814.558558559 1373 609.779279279 1373 c 128,-1,18
 405 1373 405 1373 218 1250 c 1,19,-1
 151 1384 l 1,20,21
 251 1458 251 1458 354 1491.5 c 128,-1,22
 457 1525 457 1525 617.5 1525 c 128,-1,23
 778 1525 778 1525 915.5 1464.5 c 128,-1,24
 1053 1404 1053 1404 1141 1299 c 0,25,26
 1322 1083.03409091 1322 1083.03409091 1322 769.017045455 c 128,-1,27
 1322 455 1322 455 1173 243 c 0,0,1
1125 631 m 1,28,-1
 217 631 l 1,29,30
 251 129 251 129 665 129 c 0,31,32
 860.094890511 129 860.094890511 129 979.339253465 272.302436183 c 0,33,34
 1098.58361642 415.604872367 1098.58361642 415.604872367 1125 631 c 1,28,-1
EndSplineSet
EndChar

StartChar: florin
Encoding: 402 402 316
Width: 978
GlyphClass: 2
Flags: HW
LayerCount: 2
Fore
SplineSet
412 865 m 1,0,-1
 254 865 l 1,1,-1
 265 1015 l 1,2,-1
 438 1015 l 1,3,-1
 460 1178 l 1,4,5
 512 1547 512 1547 783 1547 c 0,6,7
 832 1547 832 1547 911 1525 c 1,8,-1
 903 1369 l 1,9,10
 849 1393 849 1393 791 1393 c 128,-1,11
 733 1393 733 1393 700 1353 c 128,-1,12
 667 1313 667 1313 654 1227 c 1,13,-1
 615 1015 l 1,14,-1
 801 1015 l 1,15,-1
 790 865 l 1,16,-1
 593 865 l 1,17,-1
 460 130 l 1,18,19
 411.856115108 -121.035971223 411.856115108 -121.035971223 353.913351671 -216.062103259 c 0,20,21
 267.365853658 -358 267.365853658 -358 132 -358 c 0,22,23
 90 -358 90 -358 28 -339 c 1,24,-1
 39 -192 l 1,25,26
 83 -210 83 -210 115.5 -210 c 128,-1,27
 148 -210 148 -210 178.5 -178.5 c 0,28,29
 228.409090909 -126.954545455 228.409090909 -126.954545455 255 6 c 1,30,31
 293 168 293 168 347 487.5 c 128,-1,32
 401 807 401 807 412 865 c 1,0,-1
EndSplineSet
EndChar

StartChar: uni0237
Encoding: 567 567 359
Width: 444
GlyphClass: 2
Flags: HW
LayerCount: 2
Fore
SplineSet
330 1098 m 1,0,-1
 330 -139 l 2,1,2
 330 -245 330 -245 316.5 -310 c 128,-1,3
 303 -375 303 -375 265.5 -420.5 c 128,-1,4
 228 -466 228 -466 164 -484 c 128,-1,5
 100 -502 100 -502 -3 -502 c 2,6,-1
 -55 -502 l 1,7,-1
 -77 -351 l 1,8,-1
 -25 -351 l 2,9,10
 93.3125 -351 93.3125 -351 122.409365265 -315.18847352 c 0,11,12
 151.50623053 -279.37694704 151.50623053 -279.37694704 156.753115265 -235.902759234 c 0,13,14
 162 -192.428571429 162 -192.428571429 162 -121 c 2,15,-1
 162 1098 l 1,16,-1
 330 1098 l 1,0,-1
222 1098 m 0,17,-1
222 1098 m 0,18,-1
222 1098 m 0,19,-1
222 1098 m 0,20,-1
EndSplineSet
EndChar

StartChar: uni0259
Encoding: 601 601 360
Width: 1091
GlyphClass: 2
Flags: HW
LayerCount: 2
Fore
SplineSet
323 202.5 m 128,-1,1
 400 111 400 111 525.5 111 c 128,-1,2
 651 111 651 111 734 206.5 c 128,-1,3
 817 302 817 302 831 464 c 1,4,-1
 246 464 l 1,5,0
 246 294 246 294 323 202.5 c 128,-1,1
84 505 m 1,6,-1
 86 580 l 1,7,-1
 837 580 l 1,8,9
 837 762 837 762 742 871 c 128,-1,10
 647 980 647 980 500 980 c 0,11,12
 314 980 314 980 152 870 c 1,13,-1
 100 992 l 1,14,15
 254 1124 254 1124 496.5 1124 c 128,-1,16
 739 1124 739 1124 874 969 c 128,-1,17
 1009 814 1009 814 1009 557.5 c 128,-1,18
 1009 301 1009 301 877 141 c 128,-1,19
 745 -19 745 -19 532 -25 c 1,20,-1
 516 -25 l 2,21,22
 313 -25 313 -25 198.5 117.5 c 128,-1,23
 84 260 84 260 84 505 c 1,6,-1
547 1 m 0,24,-1
547 1099 m 0,25,-1
111 1089 m 0,26,-1
547 1 m 0,27,-1
547 1099 m 0,28,-1
111 1089 m 0,29,-1
EndSplineSet
EndChar

StartChar: afii57929
Encoding: 700 700 361
Width: 504
GlyphClass: 2
Flags: HW
LayerCount: 2
Fore
SplineSet
133 1102 m 1,0,-1
 226 1574 l 1,1,-1
 383 1574 l 1,2,-1
 249 1102 l 1,3,-1
 133 1102 l 1,0,-1
EndSplineSet
EndChar

StartChar: circumflex
Encoding: 710 710 362
Width: 800
GlyphClass: 2
Flags: HW
LayerCount: 2
Fore
SplineSet
108 1251 m 1,0,-1
 295 1639 l 1,1,-1
 508 1639 l 1,2,-1
 695 1251 l 1,3,-1
 561 1251 l 1,4,-1
 400 1523 l 1,5,-1
 239 1251 l 1,6,-1
 108 1251 l 1,0,-1
402 1098 m 0,7,-1
402 1098 m 0,8,-1
402 1098 m 0,9,-1
402 1098 m 0,10,-1
EndSplineSet
EndChar

StartChar: caron
Encoding: 711 711 363
Width: 800
GlyphClass: 2
Flags: HW
LayerCount: 2
Fore
SplineSet
108 1639 m 1,0,-1
 239 1639 l 1,1,-1
 400 1327 l 1,2,-1
 561 1639 l 1,3,-1
 695 1639 l 1,4,-1
 508 1251 l 1,5,-1
 295 1251 l 1,6,-1
 108 1639 l 1,0,-1
402 1098 m 0,7,-1
402 1098 m 0,8,-1
402 1098 m 0,9,-1
402 1098 m 0,10,-1
EndSplineSet
EndChar

StartChar: breve
Encoding: 728 728 364
Width: 754
GlyphClass: 2
Flags: HW
LayerCount: 2
Fore
SplineSet
554 1367.5 m 128,-1,1
 478 1299 478 1299 377.5 1299 c 128,-1,2
 277 1299 277 1299 202.5 1367 c 128,-1,3
 128 1435 128 1435 128 1557 c 1,4,-1
 244 1557 l 1,5,6
 244 1488 244 1488 281.5 1452 c 128,-1,7
 319 1416 319 1416 377 1416 c 128,-1,8
 435 1416 435 1416 474 1452 c 128,-1,9
 513 1488 513 1488 513 1557 c 1,10,-1
 630 1557 l 1,11,0
 630 1436 630 1436 554 1367.5 c 128,-1,1
379 1098 m 0,12,-1
379 1098 m 0,13,-1
379 1098 m 0,14,-1
379 1098 m 0,15,-1
EndSplineSet
EndChar

StartChar: dotaccent
Encoding: 729 729 365
Width: 411
GlyphClass: 2
Flags: HW
LayerCount: 2
Fore
SplineSet
110.5 1499.5 m 128,-1,1
 146 1539 146 1539 208.5 1539 c 128,-1,2
 271 1539 271 1539 306 1500 c 128,-1,3
 341 1461 341 1461 341 1407 c 128,-1,4
 341 1353 341 1353 306 1314 c 128,-1,5
 271 1275 271 1275 208.5 1275 c 128,-1,6
 146 1275 146 1275 110.5 1314.5 c 128,-1,7
 75 1354 75 1354 75 1407 c 128,-1,0
 75 1460 75 1460 110.5 1499.5 c 128,-1,1
208 1098 m 0,8,-1
208 1098 m 0,9,-1
208 1098 m 0,10,-1
208 1098 m 0,11,-1
EndSplineSet
EndChar

StartChar: ring
Encoding: 730 730 366
Width: 634
GlyphClass: 2
Flags: HW
LayerCount: 2
Fore
SplineSet
320 1638 m 128,-1,1
 241 1638 241 1638 183 1583 c 128,-1,2
 125 1528 125 1528 125 1443.5 c 128,-1,3
 125 1359 125 1359 183 1308 c 128,-1,4
 241 1257 241 1257 320.5 1257 c 128,-1,5
 400 1257 400 1257 457 1308 c 128,-1,6
 514 1359 514 1359 514 1442 c 128,-1,7
 514 1525 514 1525 456.5 1581.5 c 128,-1,0
 399 1638 399 1638 320 1638 c 128,-1,1
387 1363.5 m 128,-1,9
 358 1330 358 1330 316.5 1330 c 128,-1,10
 275 1330 275 1330 248 1360.5 c 128,-1,11
 221 1391 221 1391 221 1439 c 128,-1,12
 221 1487 221 1487 251 1522 c 128,-1,13
 281 1557 281 1557 321 1557 c 128,-1,14
 361 1557 361 1557 388.5 1523 c 128,-1,15
 416 1489 416 1489 416 1443 c 128,-1,8
 416 1397 416 1397 387 1363.5 c 128,-1,9
320 1098 m 0,16,-1
320 1098 m 0,17,-1
320 1098 m 0,18,-1
320 1098 m 0,19,-1
EndSplineSet
EndChar

StartChar: ogonek
Encoding: 731 731 367
Width: 590
GlyphClass: 2
Flags: HW
LayerCount: 2
Fore
SplineSet
270.5 -277.5 m 128,-1,1
 298 -303 298 -303 343 -303 c 128,-1,2
 388 -303 388 -303 468 -270 c 1,3,-1
 468 -387 l 1,4,5
 392 -419 392 -419 309.5 -419 c 128,-1,6
 227 -419 227 -419 172.5 -372.5 c 128,-1,7
 118 -326 118 -326 118 -243 c 0,8,9
 118 -106 118 -106 309 5 c 1,10,-1
 423 5 l 1,11,12
 243 -128 243 -128 243 -214 c 0,13,0
 243 -252 243 -252 270.5 -277.5 c 128,-1,1
468 10 m 0,14,-1
468 10 m 0,15,-1
468 10 m 0,16,-1
468 10 m 0,17,-1
EndSplineSet
EndChar

StartChar: tilde
Encoding: 732 732 368
Width: 885
GlyphClass: 2
Flags: HW
LayerCount: 2
Fore
SplineSet
277 1388 m 1,0,1
 226.413592233 1385.89223301 226.413592233 1385.89223301 222 1291 c 1,2,-1
 115 1291 l 1,3,4
 115 1401 115 1401 160 1455.5 c 128,-1,5
 205 1510 205 1510 273 1510 c 128,-1,6
 341 1510 341 1510 406 1486.5 c 128,-1,7
 471 1463 471 1463 519 1439.5 c 128,-1,8
 567 1416 567 1416 580 1416 c 2,9,-1
 582 1416 l 1,10,11
 616.975124378 1417.84079602 616.975124378 1417.84079602 624.5 1466 c 0,12,13
 627 1482 627 1482 629 1510 c 1,14,-1
 738 1510 l 1,15,16
 738 1291 738 1291 589 1291 c 0,17,18
 542 1291 542 1291 429 1339.5 c 128,-1,19
 316 1388 316 1388 279 1388 c 2,20,-1
 277 1388 l 1,0,1
426 1098 m 0,21,-1
426 1098 m 0,22,-1
426 1098 m 0,23,-1
426 1098 m 0,24,-1
EndSplineSet
EndChar

StartChar: hungarumlaut
Encoding: 733 733 369
Width: 817
GlyphClass: 2
Flags: HW
LayerCount: 2
Fore
SplineSet
713 1594 m 1,0,-1
 463 1259 l 1,1,-1
 361 1259 l 1,2,-1
 563 1594 l 1,3,-1
 713 1594 l 1,0,-1
479 1594 m 1,4,-1
 227 1259 l 1,5,-1
 128 1259 l 1,6,-1
 326 1594 l 1,7,-1
 479 1594 l 1,4,-1
420 1098 m 0,8,-1
420 1098 m 0,9,-1
420 1098 m 0,10,-1
420 1098 m 0,11,-1
EndSplineSet
EndChar

StartChar: uni0307
Encoding: 775 775 370
Width: 411
GlyphClass: 2
Flags: HW
LayerCount: 2
Fore
SplineSet
111.5 1521.5 m 128,-1,1
 147 1561 147 1561 209.5 1561 c 128,-1,2
 272 1561 272 1561 307 1522 c 128,-1,3
 342 1483 342 1483 342 1429 c 128,-1,4
 342 1375 342 1375 307 1336 c 128,-1,5
 272 1297 272 1297 209.5 1297 c 128,-1,6
 147 1297 147 1297 111.5 1336.5 c 128,-1,7
 76 1376 76 1376 76 1429 c 128,-1,0
 76 1482 76 1482 111.5 1521.5 c 128,-1,1
EndSplineSet
EndChar

StartChar: uni030F
Encoding: 783 783 371
Width: 855
GlyphClass: 2
Flags: HW
LayerCount: 2
Fore
SplineSet
627 1259 m 1,0,-1
 380 1594 l 1,1,-1
 531 1594 l 1,2,-1
 729 1259 l 1,3,-1
 627 1259 l 1,0,-1
359 1259 m 1,4,-1
 109 1594 l 1,5,-1
 259 1594 l 1,6,-1
 461 1259 l 1,7,-1
 359 1259 l 1,4,-1
EndSplineSet
EndChar

StartChar: uni0311
Encoding: 785 785 372
Width: 767
GlyphClass: 2
Flags: HW
LayerCount: 2
Fore
SplineSet
208.5 1489 m 128,-1,1
 283 1557 283 1557 383.5 1557 c 128,-1,2
 484 1557 484 1557 560 1488.5 c 128,-1,3
 636 1420 636 1420 636 1299 c 1,4,-1
 519 1299 l 1,5,6
 519 1368 519 1368 480 1404 c 128,-1,7
 441 1440 441 1440 383 1440 c 128,-1,8
 325 1440 325 1440 287.5 1404 c 128,-1,9
 250 1368 250 1368 250 1299 c 1,10,-1
 134 1299 l 1,11,0
 134 1421 134 1421 208.5 1489 c 128,-1,1
EndSplineSet
EndChar

StartChar: uni0326
Encoding: 806 806 373
Width: 555
GlyphClass: 2
Flags: HW
LayerCount: 2
Fore
SplineSet
144 -672 m 1,0,-1
 238 -174 l 1,1,-1
 404 -174 l 1,2,-1
 261 -672 l 1,3,-1
 144 -672 l 1,0,-1
EndSplineSet
EndChar

StartChar: tonos
Encoding: 900 900 374
Width: 468
GlyphClass: 2
Flags: HW
LayerCount: 2
Fore
SplineSet
139.5 756.5 m 128,-1,1
 175 796 175 796 237.5 796 c 128,-1,2
 300 796 300 796 335 757 c 128,-1,3
 370 718 370 718 370 664 c 128,-1,4
 370 610 370 610 335 571 c 128,-1,5
 300 532 300 532 237.5 532 c 128,-1,6
 175 532 175 532 139.5 571.5 c 128,-1,7
 104 611 104 611 104 664 c 128,-1,0
 104 717 104 717 139.5 756.5 c 128,-1,1
237 1098 m 0,8,-1
237 1098 m 0,9,-1
237 1098 m 0,10,-1
EndSplineSet
EndChar

StartChar: dieresistonos
Encoding: 901 901 375
Width: 468
GlyphClass: 2
Flags: HW
LayerCount: 2
Fore
SplineSet
139.5 756.5 m 128,-1,1
 175 796 175 796 237.5 796 c 128,-1,2
 300 796 300 796 335 757 c 128,-1,3
 370 718 370 718 370 664 c 128,-1,4
 370 610 370 610 335 571 c 128,-1,5
 300 532 300 532 237.5 532 c 128,-1,6
 175 532 175 532 139.5 571.5 c 128,-1,7
 104 611 104 611 104 664 c 128,-1,0
 104 717 104 717 139.5 756.5 c 128,-1,1
237 1098 m 0,8,-1
237 1098 m 0,9,-1
237 1098 m 0,10,-1
EndSplineSet
EndChar

StartChar: Alphatonos
Encoding: 902 902 376
Width: 468
GlyphClass: 2
Flags: HW
LayerCount: 2
Fore
SplineSet
139.5 756.5 m 128,-1,1
 175 796 175 796 237.5 796 c 128,-1,2
 300 796 300 796 335 757 c 128,-1,3
 370 718 370 718 370 664 c 128,-1,4
 370 610 370 610 335 571 c 128,-1,5
 300 532 300 532 237.5 532 c 128,-1,6
 175 532 175 532 139.5 571.5 c 128,-1,7
 104 611 104 611 104 664 c 128,-1,0
 104 717 104 717 139.5 756.5 c 128,-1,1
EndSplineSet
EndChar

StartChar: Epsilontonos
Encoding: 904 904 377
Width: 468
GlyphClass: 2
Flags: HW
LayerCount: 2
Fore
SplineSet
139.5 756.5 m 128,-1,1
 175 796 175 796 237.5 796 c 128,-1,2
 300 796 300 796 335 757 c 128,-1,3
 370 718 370 718 370 664 c 128,-1,4
 370 610 370 610 335 571 c 128,-1,5
 300 532 300 532 237.5 532 c 128,-1,6
 175 532 175 532 139.5 571.5 c 128,-1,7
 104 611 104 611 104 664 c 128,-1,0
 104 717 104 717 139.5 756.5 c 128,-1,1
EndSplineSet
EndChar

StartChar: Etatonos
Encoding: 905 905 378
Width: 468
GlyphClass: 2
Flags: HW
LayerCount: 2
Fore
SplineSet
139.5 756.5 m 128,-1,1
 175 796 175 796 237.5 796 c 128,-1,2
 300 796 300 796 335 757 c 128,-1,3
 370 718 370 718 370 664 c 128,-1,4
 370 610 370 610 335 571 c 128,-1,5
 300 532 300 532 237.5 532 c 128,-1,6
 175 532 175 532 139.5 571.5 c 128,-1,7
 104 611 104 611 104 664 c 128,-1,0
 104 717 104 717 139.5 756.5 c 128,-1,1
EndSplineSet
EndChar

StartChar: Iotatonos
Encoding: 906 906 379
Width: 468
GlyphClass: 2
Flags: HW
LayerCount: 2
Fore
SplineSet
139.5 756.5 m 128,-1,1
 175 796 175 796 237.5 796 c 128,-1,2
 300 796 300 796 335 757 c 128,-1,3
 370 718 370 718 370 664 c 128,-1,4
 370 610 370 610 335 571 c 128,-1,5
 300 532 300 532 237.5 532 c 128,-1,6
 175 532 175 532 139.5 571.5 c 128,-1,7
 104 611 104 611 104 664 c 128,-1,0
 104 717 104 717 139.5 756.5 c 128,-1,1
EndSplineSet
EndChar

StartChar: Omicrontonos
Encoding: 908 908 380
Width: 468
GlyphClass: 2
Flags: HW
LayerCount: 2
Fore
SplineSet
139.5 756.5 m 128,-1,1
 175 796 175 796 237.5 796 c 128,-1,2
 300 796 300 796 335 757 c 128,-1,3
 370 718 370 718 370 664 c 128,-1,4
 370 610 370 610 335 571 c 128,-1,5
 300 532 300 532 237.5 532 c 128,-1,6
 175 532 175 532 139.5 571.5 c 128,-1,7
 104 611 104 611 104 664 c 128,-1,0
 104 717 104 717 139.5 756.5 c 128,-1,1
EndSplineSet
EndChar

StartChar: Upsilontonos
Encoding: 910 910 381
Width: 468
GlyphClass: 2
Flags: HW
LayerCount: 2
Fore
SplineSet
139.5 756.5 m 128,-1,1
 175 796 175 796 237.5 796 c 128,-1,2
 300 796 300 796 335 757 c 128,-1,3
 370 718 370 718 370 664 c 128,-1,4
 370 610 370 610 335 571 c 128,-1,5
 300 532 300 532 237.5 532 c 128,-1,6
 175 532 175 532 139.5 571.5 c 128,-1,7
 104 611 104 611 104 664 c 128,-1,0
 104 717 104 717 139.5 756.5 c 128,-1,1
EndSplineSet
EndChar

StartChar: Omegatonos
Encoding: 911 911 382
Width: 468
GlyphClass: 2
Flags: HW
LayerCount: 2
Fore
SplineSet
139.5 756.5 m 128,-1,1
 175 796 175 796 237.5 796 c 128,-1,2
 300 796 300 796 335 757 c 128,-1,3
 370 718 370 718 370 664 c 128,-1,4
 370 610 370 610 335 571 c 128,-1,5
 300 532 300 532 237.5 532 c 128,-1,6
 175 532 175 532 139.5 571.5 c 128,-1,7
 104 611 104 611 104 664 c 128,-1,0
 104 717 104 717 139.5 756.5 c 128,-1,1
EndSplineSet
EndChar

StartChar: iotadieresistonos
Encoding: 912 912 383
Width: 468
GlyphClass: 2
Flags: HW
LayerCount: 2
Fore
SplineSet
139.5 756.5 m 128,-1,1
 175 796 175 796 237.5 796 c 128,-1,2
 300 796 300 796 335 757 c 128,-1,3
 370 718 370 718 370 664 c 128,-1,4
 370 610 370 610 335 571 c 128,-1,5
 300 532 300 532 237.5 532 c 128,-1,6
 175 532 175 532 139.5 571.5 c 128,-1,7
 104 611 104 611 104 664 c 128,-1,0
 104 717 104 717 139.5 756.5 c 128,-1,1
EndSplineSet
EndChar

StartChar: Alpha
Encoding: 913 913 384
Width: 1333
GlyphClass: 2
Flags: HW
LayerCount: 2
Fore
SplineSet
667 1489 m 0,0,-1
667 1489 m 0,1,-1
667 1489 m 0,2,-1
420 611 m 1,3,-1
 899 611 l 1,4,-1
 671 1324 l 1,5,-1
 420 611 l 1,3,-1
1123 0 m 1,6,-1
 958 473 l 1,7,-1
 365 473 l 1,8,-1
 187 0 l 1,9,-1
 6 0 l 1,10,-1
 564 1496 l 1,11,-1
 776 1496 l 1,12,-1
 1303 0 l 1,13,-1
 1123 0 l 1,6,-1
655 1489 m 0,14,-1
1172 10 m 0,15,-1
655 1489 m 0,16,-1
1172 10 m 0,17,-1
655 1489 m 0,18,-1
1188 10 m 0,19,-1
655 1489 m 0,20,-1
1175 10 m 0,21,-1
EndSplineSet
EndChar

StartChar: Delta
Encoding: 916 916 387
Width: 1265
GlyphClass: 2
Flags: HW
LayerCount: 2
Fore
SplineSet
1038 155 m 1,0,-1
 632 1306 l 1,1,-1
 231 155 l 1,2,-1
 1038 155 l 1,0,-1
-10 0 m 1,3,-1
 539 1496 l 1,4,-1
 724 1496 l 1,5,-1
 1275 0 l 1,6,-1
 -10 0 l 1,3,-1
EndSplineSet
EndChar

StartChar: Epsilon
Encoding: 917 917 388
Width: 1140
GlyphClass: 2
Flags: HW
LayerCount: 2
Fore
SplineSet
570 1489 m 0,0,-1
570 1489 m 0,1,-1
570 1489 m 0,2,-1
987 845 m 1,3,-1
 987 692 l 1,4,-1
 324 692 l 1,5,-1
 324 155 l 1,6,-1
 1058 155 l 1,7,-1
 1043 0 l 1,8,-1
 147 0 l 1,9,-1
 147 1496 l 1,10,-1
 1029 1496 l 1,11,-1
 1015 1341 l 1,12,-1
 324 1341 l 1,13,-1
 324 845 l 1,14,-1
 987 845 l 1,3,-1
570 1489 m 0,15,-1
570 0 m 0,16,-1
1026 10 m 0,17,-1
570 1489 m 0,18,-1
570 0 m 0,19,-1
1026 10 m 0,20,-1
570 1489 m 0,21,-1
570 0 m 0,22,-1
1026 10 m 0,23,-1
570 1489 m 0,24,-1
570 0 m 0,25,-1
1026 10 m 0,26,-1
EndSplineSet
EndChar

StartChar: Theta
Encoding: 920 920 391
Width: 468
GlyphClass: 2
Flags: HW
LayerCount: 2
Fore
SplineSet
139.5 756.5 m 128,-1,1
 175 796 175 796 237.5 796 c 128,-1,2
 300 796 300 796 335 757 c 128,-1,3
 370 718 370 718 370 664 c 128,-1,4
 370 610 370 610 335 571 c 128,-1,5
 300 532 300 532 237.5 532 c 128,-1,6
 175 532 175 532 139.5 571.5 c 128,-1,7
 104 611 104 611 104 664 c 128,-1,0
 104 717 104 717 139.5 756.5 c 128,-1,1
EndSplineSet
EndChar

StartChar: Lambda
Encoding: 923 923 394
Width: 1265
GlyphClass: 2
Flags: HW
LayerCount: 2
Fore
SplineSet
632 1306 m 1,0,-1
 177 0 l 1,1,-1
 -10 0 l 1,2,-1
 539 1496 l 1,3,-1
 724 1496 l 1,4,-1
 1275 0 l 1,5,-1
 1093 0 l 1,6,-1
 632 1306 l 1,0,-1
EndSplineSet
EndChar

StartChar: Xi
Encoding: 926 926 397
Width: 468
GlyphClass: 2
Flags: HW
LayerCount: 2
Fore
SplineSet
139.5 756.5 m 128,-1,1
 175 796 175 796 237.5 796 c 128,-1,2
 300 796 300 796 335 757 c 128,-1,3
 370 718 370 718 370 664 c 128,-1,4
 370 610 370 610 335 571 c 128,-1,5
 300 532 300 532 237.5 532 c 128,-1,6
 175 532 175 532 139.5 571.5 c 128,-1,7
 104 611 104 611 104 664 c 128,-1,0
 104 717 104 717 139.5 756.5 c 128,-1,1
EndSplineSet
EndChar

StartChar: Pi
Encoding: 928 928 399
Width: 1465
GlyphClass: 2
Flags: HW
LayerCount: 2
Fore
SplineSet
1141 1344 m 1,0,-1
 324 1344 l 1,1,-1
 324 0 l 1,2,-1
 147 0 l 1,3,-1
 147 1496 l 1,4,-1
 1318 1496 l 1,5,-1
 1318 0 l 1,6,-1
 1141 0 l 1,7,-1
 1141 1344 l 1,0,-1
EndSplineSet
EndChar

StartChar: Phi
Encoding: 934 934 404
Width: 1661
GlyphClass: 2
Flags: HW
LayerCount: 2
Fore
SplineSet
917 0 m 1,0,-1
 740 0 l 1,1,-1
 740 1496 l 1,2,-1
 917 1496 l 1,3,-1
 917 0 l 1,0,-1
1372.20245399 337.061111111 m 128,-1,5
 1560 507.122222222 1560 507.122222222 1560 773.561111111 c 128,-1,6
 1560 1040 1560 1040 1366.5 1200.5 c 128,-1,7
 1173 1361 1173 1361 831 1361 c 128,-1,8
 489 1361 489 1361 295 1200.5 c 128,-1,9
 101 1040 101 1040 101 773.561111111 c 128,-1,10
 101 507.122222222 101 507.122222222 288.797546012 337.061111111 c 128,-1,11
 476.595092025 167 476.595092025 167 830.5 167 c 128,-1,4
 1184.40490798 167 1184.40490798 167 1372.20245399 337.061111111 c 128,-1,5
831 1209 m 128,-1,13
 1095 1209 1095 1209 1233 1091 c 128,-1,14
 1371 973 1371 973 1371 774 c 128,-1,15
 1371 575 1371 575 1238.87096774 447 c 128,-1,16
 1106.74193548 319 1106.74193548 319 831 319 c 0,17,18
 432.839506173 319 432.839506173 319 322.5 594 c 0,19,20
 290 675 290 675 290 772 c 0,21,22
 290 974 290 974 428.5 1091.5 c 128,-1,12
 567 1209 567 1209 831 1209 c 128,-1,13
EndSplineSet
EndChar

StartChar: Psi
Encoding: 936 936 406
Width: 468
GlyphClass: 2
Flags: HW
LayerCount: 2
Fore
SplineSet
139.5 756.5 m 128,-1,1
 175 796 175 796 237.5 796 c 128,-1,2
 300 796 300 796 335 757 c 128,-1,3
 370 718 370 718 370 664 c 128,-1,4
 370 610 370 610 335 571 c 128,-1,5
 300 532 300 532 237.5 532 c 128,-1,6
 175 532 175 532 139.5 571.5 c 128,-1,7
 104 611 104 611 104 664 c 128,-1,0
 104 717 104 717 139.5 756.5 c 128,-1,1
EndSplineSet
EndChar

StartChar: Omega
Encoding: 937 937 407
Width: 1661
GlyphClass: 2
Flags: HW
LayerCount: 2
Fore
SplineSet
20 1489 m 0,0,-1
20 1489 m 0,1,-1
20 1489 m 0,2,-1
829 1373 m 0,3,4
 565 1373 565 1373 426.5 1204.5 c 128,-1,5
 288 1036 288 1036 288 758.1640625 c 128,-1,6
 288 480.328125 288 480.328125 417 309 c 0,7,8
 481 224 481 224 586.5 176.5 c 128,-1,9
 692 129 692 129 815.5 129 c 128,-1,10
 939 129 939 129 1029 160.5 c 0,11,12
 1199.3960396 220.138613861 1199.3960396 220.138613861 1284.1980198 375.775189284 c 128,-1,13
 1369 531.411764706 1369 531.411764706 1369 733.205882353 c 128,-1,14
 1369 935 1369 935 1310 1074.5 c 128,-1,15
 1251 1214 1251 1214 1128.5 1293.5 c 128,-1,16
 1006 1373 1006 1373 829 1373 c 0,3,4
829 -23 m 128,-1,18
 653 -23 653 -23 513 35.5 c 128,-1,19
 373 94 373 94 283 197.5 c 0,20,21
 99 409.1 99 409.1 99 754.55 c 128,-1,22
 99 1100 99 1100 293 1312.5 c 128,-1,23
 487 1525 487 1525 829 1525 c 128,-1,24
 1171 1525 1171 1525 1364.5 1312.5 c 128,-1,25
 1558 1100 1558 1100 1558 754.55 c 128,-1,26
 1558 409.1 1558 409.1 1374 197.5 c 0,27,28
 1284 94 1284 94 1144.5 35.5 c 128,-1,17
 1005 -23 1005 -23 829 -23 c 128,-1,18
829 1489 m 0,29,-1
829 1489 m 0,30,-1
829 1489 m 0,31,-1
829 1489 m 0,32,-1
EndSplineSet
EndChar

StartChar: alphatonos
Encoding: 940 940 410
Width: 468
GlyphClass: 2
Flags: HW
LayerCount: 2
Fore
SplineSet
139.5 756.5 m 128,-1,1
 175 796 175 796 237.5 796 c 128,-1,2
 300 796 300 796 335 757 c 128,-1,3
 370 718 370 718 370 664 c 128,-1,4
 370 610 370 610 335 571 c 128,-1,5
 300 532 300 532 237.5 532 c 128,-1,6
 175 532 175 532 139.5 571.5 c 128,-1,7
 104 611 104 611 104 664 c 128,-1,0
 104 717 104 717 139.5 756.5 c 128,-1,1
EndSplineSet
EndChar

StartChar: epsilontonos
Encoding: 941 941 411
Width: 468
GlyphClass: 2
Flags: HW
LayerCount: 2
Fore
SplineSet
139.5 756.5 m 128,-1,1
 175 796 175 796 237.5 796 c 128,-1,2
 300 796 300 796 335 757 c 128,-1,3
 370 718 370 718 370 664 c 128,-1,4
 370 610 370 610 335 571 c 128,-1,5
 300 532 300 532 237.5 532 c 128,-1,6
 175 532 175 532 139.5 571.5 c 128,-1,7
 104 611 104 611 104 664 c 128,-1,0
 104 717 104 717 139.5 756.5 c 128,-1,1
EndSplineSet
EndChar

StartChar: etatonos
Encoding: 942 942 412
Width: 468
GlyphClass: 2
Flags: HW
LayerCount: 2
Fore
SplineSet
139.5 756.5 m 128,-1,1
 175 796 175 796 237.5 796 c 128,-1,2
 300 796 300 796 335 757 c 128,-1,3
 370 718 370 718 370 664 c 128,-1,4
 370 610 370 610 335 571 c 128,-1,5
 300 532 300 532 237.5 532 c 128,-1,6
 175 532 175 532 139.5 571.5 c 128,-1,7
 104 611 104 611 104 664 c 128,-1,0
 104 717 104 717 139.5 756.5 c 128,-1,1
EndSplineSet
EndChar

StartChar: iotatonos
Encoding: 943 943 413
Width: 468
GlyphClass: 2
Flags: HW
LayerCount: 2
Fore
SplineSet
139.5 756.5 m 128,-1,1
 175 796 175 796 237.5 796 c 128,-1,2
 300 796 300 796 335 757 c 128,-1,3
 370 718 370 718 370 664 c 128,-1,4
 370 610 370 610 335 571 c 128,-1,5
 300 532 300 532 237.5 532 c 128,-1,6
 175 532 175 532 139.5 571.5 c 128,-1,7
 104 611 104 611 104 664 c 128,-1,0
 104 717 104 717 139.5 756.5 c 128,-1,1
EndSplineSet
EndChar

StartChar: upsilondieresistonos
Encoding: 944 944 414
Width: 468
GlyphClass: 2
Flags: HW
LayerCount: 2
Fore
SplineSet
139.5 756.5 m 128,-1,1
 175 796 175 796 237.5 796 c 128,-1,2
 300 796 300 796 335 757 c 128,-1,3
 370 718 370 718 370 664 c 128,-1,4
 370 610 370 610 335 571 c 128,-1,5
 300 532 300 532 237.5 532 c 128,-1,6
 175 532 175 532 139.5 571.5 c 128,-1,7
 104 611 104 611 104 664 c 128,-1,0
 104 717 104 717 139.5 756.5 c 128,-1,1
EndSplineSet
EndChar

StartChar: alpha
Encoding: 945 945 415
Width: 468
GlyphClass: 2
Flags: HW
LayerCount: 2
Fore
SplineSet
139.5 756.5 m 128,-1,1
 175 796 175 796 237.5 796 c 128,-1,2
 300 796 300 796 335 757 c 128,-1,3
 370 718 370 718 370 664 c 128,-1,4
 370 610 370 610 335 571 c 128,-1,5
 300 532 300 532 237.5 532 c 128,-1,6
 175 532 175 532 139.5 571.5 c 128,-1,7
 104 611 104 611 104 664 c 128,-1,0
 104 717 104 717 139.5 756.5 c 128,-1,1
234 1098 m 0,8,-1
234 1098 m 0,9,-1
234 1098 m 0,10,-1
EndSplineSet
EndChar

StartChar: beta
Encoding: 946 946 416
Width: 468
GlyphClass: 2
Flags: HW
LayerCount: 2
Fore
SplineSet
139.5 756.5 m 128,-1,1
 175 796 175 796 237.5 796 c 128,-1,2
 300 796 300 796 335 757 c 128,-1,3
 370 718 370 718 370 664 c 128,-1,4
 370 610 370 610 335 571 c 128,-1,5
 300 532 300 532 237.5 532 c 128,-1,6
 175 532 175 532 139.5 571.5 c 128,-1,7
 104 611 104 611 104 664 c 128,-1,0
 104 717 104 717 139.5 756.5 c 128,-1,1
EndSplineSet
EndChar

StartChar: gamma
Encoding: 947 947 417
Width: 468
GlyphClass: 2
Flags: HW
LayerCount: 2
Fore
SplineSet
139.5 756.5 m 128,-1,1
 175 796 175 796 237.5 796 c 128,-1,2
 300 796 300 796 335 757 c 128,-1,3
 370 718 370 718 370 664 c 128,-1,4
 370 610 370 610 335 571 c 128,-1,5
 300 532 300 532 237.5 532 c 128,-1,6
 175 532 175 532 139.5 571.5 c 128,-1,7
 104 611 104 611 104 664 c 128,-1,0
 104 717 104 717 139.5 756.5 c 128,-1,1
EndSplineSet
EndChar

StartChar: delta
Encoding: 948 948 418
Width: 468
GlyphClass: 2
Flags: HW
LayerCount: 2
Fore
SplineSet
139.5 756.5 m 128,-1,1
 175 796 175 796 237.5 796 c 128,-1,2
 300 796 300 796 335 757 c 128,-1,3
 370 718 370 718 370 664 c 128,-1,4
 370 610 370 610 335 571 c 128,-1,5
 300 532 300 532 237.5 532 c 128,-1,6
 175 532 175 532 139.5 571.5 c 128,-1,7
 104 611 104 611 104 664 c 128,-1,0
 104 717 104 717 139.5 756.5 c 128,-1,1
EndSplineSet
EndChar

StartChar: epsilon
Encoding: 949 949 419
Width: 468
GlyphClass: 2
Flags: HW
LayerCount: 2
Fore
SplineSet
139.5 756.5 m 128,-1,1
 175 796 175 796 237.5 796 c 128,-1,2
 300 796 300 796 335 757 c 128,-1,3
 370 718 370 718 370 664 c 128,-1,4
 370 610 370 610 335 571 c 128,-1,5
 300 532 300 532 237.5 532 c 128,-1,6
 175 532 175 532 139.5 571.5 c 128,-1,7
 104 611 104 611 104 664 c 128,-1,0
 104 717 104 717 139.5 756.5 c 128,-1,1
234 1098 m 0,8,-1
234 1098 m 0,9,-1
234 1098 m 0,10,-1
EndSplineSet
EndChar

StartChar: zeta
Encoding: 950 950 420
Width: 468
GlyphClass: 2
Flags: HW
LayerCount: 2
Fore
SplineSet
139.5 756.5 m 128,-1,1
 175 796 175 796 237.5 796 c 128,-1,2
 300 796 300 796 335 757 c 128,-1,3
 370 718 370 718 370 664 c 128,-1,4
 370 610 370 610 335 571 c 128,-1,5
 300 532 300 532 237.5 532 c 128,-1,6
 175 532 175 532 139.5 571.5 c 128,-1,7
 104 611 104 611 104 664 c 128,-1,0
 104 717 104 717 139.5 756.5 c 128,-1,1
EndSplineSet
EndChar

StartChar: eta
Encoding: 951 951 421
Width: 468
GlyphClass: 2
Flags: HW
LayerCount: 2
Fore
SplineSet
139.5 756.5 m 128,-1,1
 175 796 175 796 237.5 796 c 128,-1,2
 300 796 300 796 335 757 c 128,-1,3
 370 718 370 718 370 664 c 128,-1,4
 370 610 370 610 335 571 c 128,-1,5
 300 532 300 532 237.5 532 c 128,-1,6
 175 532 175 532 139.5 571.5 c 128,-1,7
 104 611 104 611 104 664 c 128,-1,0
 104 717 104 717 139.5 756.5 c 128,-1,1
234 1098 m 0,8,-1
234 1098 m 0,9,-1
234 1098 m 0,10,-1
EndSplineSet
EndChar

StartChar: theta
Encoding: 952 952 422
Width: 468
GlyphClass: 2
Flags: HW
LayerCount: 2
Fore
SplineSet
139.5 756.5 m 128,-1,1
 175 796 175 796 237.5 796 c 128,-1,2
 300 796 300 796 335 757 c 128,-1,3
 370 718 370 718 370 664 c 128,-1,4
 370 610 370 610 335 571 c 128,-1,5
 300 532 300 532 237.5 532 c 128,-1,6
 175 532 175 532 139.5 571.5 c 128,-1,7
 104 611 104 611 104 664 c 128,-1,0
 104 717 104 717 139.5 756.5 c 128,-1,1
EndSplineSet
EndChar

StartChar: iota
Encoding: 953 953 423
Width: 468
GlyphClass: 2
Flags: HW
LayerCount: 2
Fore
SplineSet
139.5 756.5 m 128,-1,1
 175 796 175 796 237.5 796 c 128,-1,2
 300 796 300 796 335 757 c 128,-1,3
 370 718 370 718 370 664 c 128,-1,4
 370 610 370 610 335 571 c 128,-1,5
 300 532 300 532 237.5 532 c 128,-1,6
 175 532 175 532 139.5 571.5 c 128,-1,7
 104 611 104 611 104 664 c 128,-1,0
 104 717 104 717 139.5 756.5 c 128,-1,1
234 1098 m 0,8,-1
234 1098 m 0,9,-1
234 1098 m 0,10,-1
EndSplineSet
EndChar

StartChar: lambda
Encoding: 955 955 425
Width: 468
GlyphClass: 2
Flags: HW
LayerCount: 2
Fore
SplineSet
139.5 756.5 m 128,-1,1
 175 796 175 796 237.5 796 c 128,-1,2
 300 796 300 796 335 757 c 128,-1,3
 370 718 370 718 370 664 c 128,-1,4
 370 610 370 610 335 571 c 128,-1,5
 300 532 300 532 237.5 532 c 128,-1,6
 175 532 175 532 139.5 571.5 c 128,-1,7
 104 611 104 611 104 664 c 128,-1,0
 104 717 104 717 139.5 756.5 c 128,-1,1
EndSplineSet
EndChar

StartChar: mu
Encoding: 956 956 426
Width: 468
GlyphClass: 2
Flags: HW
LayerCount: 2
Fore
SplineSet
139.5 756.5 m 128,-1,1
 175 796 175 796 237.5 796 c 128,-1,2
 300 796 300 796 335 757 c 128,-1,3
 370 718 370 718 370 664 c 128,-1,4
 370 610 370 610 335 571 c 128,-1,5
 300 532 300 532 237.5 532 c 128,-1,6
 175 532 175 532 139.5 571.5 c 128,-1,7
 104 611 104 611 104 664 c 128,-1,0
 104 717 104 717 139.5 756.5 c 128,-1,1
EndSplineSet
EndChar

StartChar: nu
Encoding: 957 957 427
Width: 468
GlyphClass: 2
Flags: HW
LayerCount: 2
Fore
SplineSet
139.5 756.5 m 128,-1,1
 175 796 175 796 237.5 796 c 128,-1,2
 300 796 300 796 335 757 c 128,-1,3
 370 718 370 718 370 664 c 128,-1,4
 370 610 370 610 335 571 c 128,-1,5
 300 532 300 532 237.5 532 c 128,-1,6
 175 532 175 532 139.5 571.5 c 128,-1,7
 104 611 104 611 104 664 c 128,-1,0
 104 717 104 717 139.5 756.5 c 128,-1,1
EndSplineSet
EndChar

StartChar: xi
Encoding: 958 958 428
Width: 468
GlyphClass: 2
Flags: HW
LayerCount: 2
Fore
SplineSet
139.5 756.5 m 128,-1,1
 175 796 175 796 237.5 796 c 128,-1,2
 300 796 300 796 335 757 c 128,-1,3
 370 718 370 718 370 664 c 128,-1,4
 370 610 370 610 335 571 c 128,-1,5
 300 532 300 532 237.5 532 c 128,-1,6
 175 532 175 532 139.5 571.5 c 128,-1,7
 104 611 104 611 104 664 c 128,-1,0
 104 717 104 717 139.5 756.5 c 128,-1,1
EndSplineSet
EndChar

StartChar: omicron
Encoding: 959 959 429
Width: 1189
GlyphClass: 2
Flags: HW
LayerCount: 2
Fore
SplineSet
595 1098 m 0,0,-1
595 1098 m 0,1,-1
595 1098 m 0,2,-1
909 384 m 0,3,4
 928 460 928 460 928 549 c 0,5,6
 928 731.789473684 928 731.789473684 850.72 858.894736842 c 128,-1,7
 773.44 986 773.44 986 594 986 c 0,8,9
 509 986 509 986 441.5 949 c 128,-1,10
 374 912 374 912 333 849 c 0,11,12
 250 721.463414634 250 721.463414634 250 545.475609756 c 128,-1,13
 250 369.487804878 250 369.487804878 336.196721312 241.243902439 c 128,-1,14
 422.393442623 113 422.393442623 113 597 113 c 0,15,16
 841.25 113 841.25 113 909 384 c 0,3,4
573.5 -25 m 0,17,18
 433 -25 433 -25 314 53 c 128,-1,19
 195 131 195 131 136 259 c 128,-1,20
 77 387 77 387 77 546.5 c 128,-1,21
 77 706 77 706 136.5 835.5 c 128,-1,22
 196 965 196 965 316 1044.5 c 128,-1,23
 436 1124 436 1124 597 1124 c 0,24,25
 884.472222222 1124 884.472222222 1124 1020.5 888 c 0,26,27
 1102 746.602409639 1102 746.602409639 1102 529.840887359 c 128,-1,28
 1102 313.079365079 1102 313.079365079 968.88125 144.03968254 c 128,-1,29
 835.7625 -25 835.7625 -25 573.5 -25 c 0,17,18
590 1098 m 0,30,-1
590 1098 m 0,31,-1
590 1098 m 0,32,-1
590 1098 m 0,33,-1
EndSplineSet
EndChar

StartChar: pi
Encoding: 960 960 430
Width: 1456
GlyphClass: 2
Flags: HW
LayerCount: 2
Fore
SplineSet
570 976 m 1,0,1
 536.497737557 171.945701357 536.497737557 171.945701357 446 0 c 1,2,-1
 298 0 l 1,3,4
 401 221 401 221 420 976 c 1,5,6
 268 972 268 972 176 911 c 1,7,-1
 160 1053 l 1,8,9
 202 1093 202 1093 272.5 1106.5 c 128,-1,10
 343 1120 343 1120 470 1120 c 2,11,-1
 1296 1120 l 1,12,-1
 1296 976 l 1,13,-1
 1114 976 l 1,14,-1
 1114 312 l 2,15,16
 1114 224.111111111 1114 224.111111111 1128.5 201.555555556 c 0,17,18
 1156.5 158 1156.5 158 1202 158 c 0,19,20
 1223 158 1223 158 1274 172 c 1,21,-1
 1268 108 l 1,22,23
 1268 62 1268 62 1282 6 c 1,24,25
 1203 -8 1203 -8 1160 -8 c 0,26,27
 1057 -8 1057 -8 1016.5 62 c 128,-1,28
 976 132 976 132 976 301 c 2,29,-1
 976 976 l 1,30,-1
 570 976 l 1,0,1
EndSplineSet
EndChar

StartChar: sigma1
Encoding: 962 962 432
Width: 468
GlyphClass: 2
Flags: HW
LayerCount: 2
Fore
SplineSet
139.5 756.5 m 128,-1,1
 175 796 175 796 237.5 796 c 128,-1,2
 300 796 300 796 335 757 c 128,-1,3
 370 718 370 718 370 664 c 128,-1,4
 370 610 370 610 335 571 c 128,-1,5
 300 532 300 532 237.5 532 c 128,-1,6
 175 532 175 532 139.5 571.5 c 128,-1,7
 104 611 104 611 104 664 c 128,-1,0
 104 717 104 717 139.5 756.5 c 128,-1,1
EndSplineSet
EndChar

StartChar: sigma
Encoding: 963 963 433
Width: 468
GlyphClass: 2
Flags: HW
LayerCount: 2
Fore
SplineSet
139.5 756.5 m 128,-1,1
 175 796 175 796 237.5 796 c 128,-1,2
 300 796 300 796 335 757 c 128,-1,3
 370 718 370 718 370 664 c 128,-1,4
 370 610 370 610 335 571 c 128,-1,5
 300 532 300 532 237.5 532 c 128,-1,6
 175 532 175 532 139.5 571.5 c 128,-1,7
 104 611 104 611 104 664 c 128,-1,0
 104 717 104 717 139.5 756.5 c 128,-1,1
EndSplineSet
EndChar

StartChar: tau
Encoding: 964 964 434
Width: 468
GlyphClass: 2
Flags: HW
LayerCount: 2
Fore
SplineSet
139.5 756.5 m 128,-1,1
 175 796 175 796 237.5 796 c 128,-1,2
 300 796 300 796 335 757 c 128,-1,3
 370 718 370 718 370 664 c 128,-1,4
 370 610 370 610 335 571 c 128,-1,5
 300 532 300 532 237.5 532 c 128,-1,6
 175 532 175 532 139.5 571.5 c 128,-1,7
 104 611 104 611 104 664 c 128,-1,0
 104 717 104 717 139.5 756.5 c 128,-1,1
EndSplineSet
EndChar

StartChar: upsilon
Encoding: 965 965 435
Width: 468
GlyphClass: 2
Flags: HW
LayerCount: 2
Fore
SplineSet
139.5 756.5 m 128,-1,1
 175 796 175 796 237.5 796 c 128,-1,2
 300 796 300 796 335 757 c 128,-1,3
 370 718 370 718 370 664 c 128,-1,4
 370 610 370 610 335 571 c 128,-1,5
 300 532 300 532 237.5 532 c 128,-1,6
 175 532 175 532 139.5 571.5 c 128,-1,7
 104 611 104 611 104 664 c 128,-1,0
 104 717 104 717 139.5 756.5 c 128,-1,1
234 1098 m 0,8,-1
234 1098 m 0,9,-1
234 1098 m 0,10,-1
EndSplineSet
EndChar

StartChar: phi
Encoding: 966 966 436
Width: 468
GlyphClass: 2
Flags: HW
LayerCount: 2
Fore
SplineSet
139.5 756.5 m 128,-1,1
 175 796 175 796 237.5 796 c 128,-1,2
 300 796 300 796 335 757 c 128,-1,3
 370 718 370 718 370 664 c 128,-1,4
 370 610 370 610 335 571 c 128,-1,5
 300 532 300 532 237.5 532 c 128,-1,6
 175 532 175 532 139.5 571.5 c 128,-1,7
 104 611 104 611 104 664 c 128,-1,0
 104 717 104 717 139.5 756.5 c 128,-1,1
EndSplineSet
EndChar

StartChar: psi
Encoding: 968 968 438
Width: 468
GlyphClass: 2
Flags: HW
LayerCount: 2
Fore
SplineSet
139.5 756.5 m 128,-1,1
 175 796 175 796 237.5 796 c 128,-1,2
 300 796 300 796 335 757 c 128,-1,3
 370 718 370 718 370 664 c 128,-1,4
 370 610 370 610 335 571 c 128,-1,5
 300 532 300 532 237.5 532 c 128,-1,6
 175 532 175 532 139.5 571.5 c 128,-1,7
 104 611 104 611 104 664 c 128,-1,0
 104 717 104 717 139.5 756.5 c 128,-1,1
EndSplineSet
EndChar

StartChar: omega
Encoding: 969 969 439
Width: 468
GlyphClass: 2
Flags: HW
LayerCount: 2
Fore
SplineSet
139.5 756.5 m 128,-1,1
 175 796 175 796 237.5 796 c 128,-1,2
 300 796 300 796 335 757 c 128,-1,3
 370 718 370 718 370 664 c 128,-1,4
 370 610 370 610 335 571 c 128,-1,5
 300 532 300 532 237.5 532 c 128,-1,6
 175 532 175 532 139.5 571.5 c 128,-1,7
 104 611 104 611 104 664 c 128,-1,0
 104 717 104 717 139.5 756.5 c 128,-1,1
234 1098 m 0,8,-1
234 1098 m 0,9,-1
234 1098 m 0,10,-1
EndSplineSet
EndChar

StartChar: upsilondieresis
Encoding: 971 971 441
Width: 468
GlyphClass: 2
Flags: HW
LayerCount: 2
Fore
SplineSet
139.5 756.5 m 128,-1,1
 175 796 175 796 237.5 796 c 128,-1,2
 300 796 300 796 335 757 c 128,-1,3
 370 718 370 718 370 664 c 128,-1,4
 370 610 370 610 335 571 c 128,-1,5
 300 532 300 532 237.5 532 c 128,-1,6
 175 532 175 532 139.5 571.5 c 128,-1,7
 104 611 104 611 104 664 c 128,-1,0
 104 717 104 717 139.5 756.5 c 128,-1,1
EndSplineSet
EndChar

StartChar: omicrontonos
Encoding: 972 972 442
Width: 468
GlyphClass: 2
Flags: HW
LayerCount: 2
Fore
SplineSet
139.5 756.5 m 128,-1,1
 175 796 175 796 237.5 796 c 128,-1,2
 300 796 300 796 335 757 c 128,-1,3
 370 718 370 718 370 664 c 128,-1,4
 370 610 370 610 335 571 c 128,-1,5
 300 532 300 532 237.5 532 c 128,-1,6
 175 532 175 532 139.5 571.5 c 128,-1,7
 104 611 104 611 104 664 c 128,-1,0
 104 717 104 717 139.5 756.5 c 128,-1,1
EndSplineSet
EndChar

StartChar: upsilontonos
Encoding: 973 973 443
Width: 468
GlyphClass: 2
Flags: HW
LayerCount: 2
Fore
SplineSet
139.5 756.5 m 128,-1,1
 175 796 175 796 237.5 796 c 128,-1,2
 300 796 300 796 335 757 c 128,-1,3
 370 718 370 718 370 664 c 128,-1,4
 370 610 370 610 335 571 c 128,-1,5
 300 532 300 532 237.5 532 c 128,-1,6
 175 532 175 532 139.5 571.5 c 128,-1,7
 104 611 104 611 104 664 c 128,-1,0
 104 717 104 717 139.5 756.5 c 128,-1,1
EndSplineSet
EndChar

StartChar: omegatonos
Encoding: 974 974 444
Width: 468
GlyphClass: 2
Flags: HW
LayerCount: 2
Fore
SplineSet
139.5 756.5 m 128,-1,1
 175 796 175 796 237.5 796 c 128,-1,2
 300 796 300 796 335 757 c 128,-1,3
 370 718 370 718 370 664 c 128,-1,4
 370 610 370 610 335 571 c 128,-1,5
 300 532 300 532 237.5 532 c 128,-1,6
 175 532 175 532 139.5 571.5 c 128,-1,7
 104 611 104 611 104 664 c 128,-1,0
 104 717 104 717 139.5 756.5 c 128,-1,1
EndSplineSet
EndChar

StartChar: afii10051
Encoding: 1026 1026 447
Width: 1026
GlyphClass: 2
Flags: HW
LayerCount: 2
Fore
SplineSet
-23 1341 m 1,0,-1
 -23 1496 l 1,1,-1
 1049 1496 l 1,2,-1
 1049 1341 l 1,3,-1
 601 1341 l 1,4,-1
 601 0 l 1,5,-1
 424 0 l 1,6,-1
 424 1341 l 1,7,-1
 -23 1341 l 1,0,-1
513 1489 m 0,8,-1
513 0 m 0,9,-1
513 745 m 0,10,-1
EndSplineSet
EndChar

StartChar: afii10052
Encoding: 1027 1027 448
Width: 1008
GlyphClass: 2
Flags: HW
LayerCount: 2
Fore
SplineSet
1003 1343 m 1,0,-1
 324 1343 l 1,1,-1
 324 0 l 1,2,-1
 147 0 l 1,3,-1
 147 1496 l 1,4,-1
 1003 1496 l 1,5,-1
 1003 1343 l 1,0,-1
EndSplineSet
EndChar

StartChar: afii10053
Encoding: 1028 1028 449
Width: 1325
GlyphClass: 2
Flags: HW
LayerCount: 2
Fore
SplineSet
265 664 m 1,0,1
 287.462184874 435.294117647 287.462184874 435.294117647 418.731092437 282.147058824 c 128,-1,2
 550 129 550 129 785 129 c 0,3,4
 894 129 894 129 993.5 162.5 c 128,-1,5
 1093 196 1093 196 1160 248 c 1,6,-1
 1224 113 l 1,7,8
 1057 -23 1057 -23 776 -23 c 0,9,10
 607 -23 607 -23 472 36.5 c 128,-1,11
 337 96 337 96 250.5 201.5 c 0,12,13
 72 419.208092486 72 419.208092486 72 757 c 0,14,15
 72 1159.93413174 72 1159.93413174 328.5 1376.5 c 0,16,17
 504.382978723 1525 504.382978723 1525 788.691489362 1525 c 128,-1,18
 1073 1525 1073 1525 1219 1395 c 1,19,-1
 1161 1250 l 1,20,21
 1094 1304 1094 1304 998 1338.5 c 128,-1,22
 902 1373 902 1373 795.5 1373 c 128,-1,23
 689 1373 689 1373 601.5 1343 c 0,24,25
 440.015761821 1287.63397548 440.015761821 1287.63397548 357.757217781 1147.59859694 c 128,-1,26
 275.49867374 1007.56321839 275.49867374 1007.56321839 263 818 c 1,27,-1
 954 818 l 1,28,-1
 954 664 l 1,29,-1
 265 664 l 1,0,1
EndSplineSet
EndChar

StartChar: afii10055
Encoding: 1030 1030 451
Width: 490
GlyphClass: 2
Flags: HW
LayerCount: 2
Fore
SplineSet
331 1497 m 1,0,-1
 331 0 l 1,1,-1
 155 0 l 1,2,-1
 155 1497 l 1,3,-1
 331 1497 l 1,0,-1
EndSplineSet
EndChar

StartChar: afii10058
Encoding: 1033 1033 454
Width: 1825
GlyphClass: 2
Flags: HW
LayerCount: 2
Fore
SplineSet
1277 717 m 2,0,-1
 1018 717 l 1,1,-1
 1018 155 l 1,2,-1
 1277 155 l 2,3,4
 1404 155 1404 155 1483.5 228.5 c 128,-1,5
 1563 302 1563 302 1563 432 c 128,-1,6
 1563 562 1563 562 1484 639.5 c 128,-1,7
 1405 717 1405 717 1277 717 c 2,0,-1
1018 1496 m 1,8,-1
 1018 871 l 1,9,-1
 1277 871 l 2,10,11
 1489.21153846 871 1489.21153846 871 1617.10576923 765.436507936 c 0,12,13
 1745 659.873015873 1745 659.873015873 1745 438.436507937 c 128,-1,14
 1745 217 1745 217 1620.5 108.5 c 128,-1,15
 1496 0 1496 0 1277 0 c 2,16,-1
 841 0 l 1,17,-1
 841 1341 l 1,18,-1
 458 1341 l 1,19,-1
 458 433 l 2,20,21
 458 229.333333333 458 229.333333333 428.513274336 150.702064897 c 0,22,23
 399.026548673 72.0707964602 399.026548673 72.0707964602 340.669867743 32.1425410872 c 0,24,25
 282.313186813 -7.78571428571 282.313186813 -7.78571428571 210.156593407 -16.8928571429 c 128,-1,26
 138 -26 138 -26 72 -26 c 2,27,-1
 44 -26 l 1,28,-1
 44 131 l 1,29,-1
 90 131 l 2,30,31
 190 131 190 131 235.5 176.5 c 128,-1,32
 281 222 281 222 281 384 c 2,33,-1
 281 1496 l 1,34,-1
 1018 1496 l 1,8,-1
EndSplineSet
EndChar

StartChar: afii10059
Encoding: 1034 1034 455
Width: 1681
GlyphClass: 2
Flags: HW
LayerCount: 2
Fore
SplineSet
1144 716 m 2,0,-1
 926 716 l 1,1,-1
 926 160 l 1,2,-1
 1144 160 l 2,3,4
 1272 160 1272 160 1351 231 c 128,-1,5
 1430 302 1430 302 1430 432 c 128,-1,6
 1430 562 1430 562 1351 639 c 128,-1,7
 1272 716 1272 716 1144 716 c 2,0,-1
926 871 m 1,8,-1
 1144 871 l 2,9,10
 1356.21153846 871 1356.21153846 871 1484.10576923 765.436507936 c 0,11,12
 1612 659.873015873 1612 659.873015873 1612 438.436507937 c 128,-1,13
 1612 217 1612 217 1487.5 108.5 c 128,-1,14
 1363 0 1363 0 1144 0 c 2,15,-1
 749 0 l 1,16,-1
 749 716 l 1,17,-1
 324 716 l 1,18,-1
 324 0 l 1,19,-1
 147 0 l 1,20,-1
 147 1496 l 1,21,-1
 324 1496 l 1,22,-1
 324 871 l 1,23,-1
 749 871 l 1,24,-1
 749 1496 l 1,25,-1
 926 1496 l 1,26,-1
 926 871 l 1,8,-1
EndSplineSet
EndChar

StartChar: afii10060
Encoding: 1035 1035 456
Width: 1026
GlyphClass: 2
Flags: HW
LayerCount: 2
Fore
SplineSet
-23 1341 m 1,0,-1
 -23 1496 l 1,1,-1
 1049 1496 l 1,2,-1
 1049 1341 l 1,3,-1
 601 1341 l 1,4,-1
 601 0 l 1,5,-1
 424 0 l 1,6,-1
 424 1341 l 1,7,-1
 -23 1341 l 1,0,-1
513 1489 m 0,8,-1
513 0 m 0,9,-1
513 745 m 0,10,-1
EndSplineSet
EndChar

StartChar: afii10145
Encoding: 1039 1039 459
Width: 1463
GlyphClass: 2
Flags: HW
LayerCount: 2
Fore
SplineSet
1139 154 m 1,0,-1
 1139 1496 l 1,1,-1
 1316 1496 l 1,2,-1
 1316 0 l 1,3,-1
 147 0 l 1,4,-1
 147 1496 l 1,5,-1
 324 1496 l 1,6,-1
 324 154 l 1,7,-1
 1139 154 l 1,0,-1
EndSplineSet
EndChar

StartChar: afii10018
Encoding: 1041 1041 461
Width: 1190
GlyphClass: 2
Flags: HW
LayerCount: 2
Fore
SplineSet
850.5 226 m 128,-1,1
 924 297 924 297 924 430.5 c 128,-1,2
 924 564 924 564 850.5 640 c 128,-1,3
 777 716 777 716 638 716 c 2,4,-1
 324 716 l 1,5,-1
 324 155 l 1,6,-1
 638 155 l 2,7,0
 777 155 777 155 850.5 226 c 128,-1,1
147 1496 m 1,8,-1
 1032 1496 l 1,9,-1
 1032 1341 l 1,10,-1
 324 1341 l 1,11,-1
 324 871 l 1,12,-1
 638 871 l 2,13,14
 850.8 871 850.8 871 978.4 764.666666667 c 0,15,16
 1106 658.333333333 1106 658.333333333 1106 437.166666667 c 128,-1,17
 1106 216 1106 216 981.5 108 c 128,-1,18
 857 0 857 0 638 0 c 2,19,-1
 147 0 l 1,20,-1
 147 1496 l 1,8,-1
EndSplineSet
EndChar

StartChar: afii10019
Encoding: 1042 1042 462
Width: 1252
GlyphClass: 2
Flags: HW
LayerCount: 2
Fore
SplineSet
1004 428 m 0,0,1
 1004 708 1004 708 659 708 c 2,2,-1
 324 708 l 1,3,-1
 324 142 l 1,4,-1
 608 142 l 2,5,6
 807 142 807 142 905.5 211 c 128,-1,7
 1004 280 1004 280 1004 428 c 0,0,1
324 1349 m 1,8,-1
 324 846 l 1,9,-1
 639 846 l 2,10,11
 937 846 937 846 937 1096 c 0,12,13
 937 1222.27272727 937 1222.27272727 868.98239824 1277.92349235 c 0,14,15
 800.96479648 1333.57425743 800.96479648 1333.57425743 665 1344.5 c 0,16,17
 609 1349 609 1349 528 1349 c 2,18,-1
 324 1349 l 1,8,-1
147 0 m 1,19,-1
 147 1496 l 1,20,-1
 554 1496 l 2,21,22
 835 1496 835 1496 978.5 1409.5 c 128,-1,23
 1122 1323 1122 1323 1122 1131 c 0,24,25
 1122 1016 1122 1016 1069.5 926.5 c 128,-1,26
 1017 837 1017 837 910 801 c 1,27,28
 1000 782 1000 782 1063.5 721.5 c 0,29,30
 1184 606.692913386 1184 606.692913386 1184 426 c 0,31,32
 1184 0 1184 0 641 0 c 2,33,-1
 147 0 l 1,19,-1
EndSplineSet
EndChar

StartChar: afii10020
Encoding: 1043 1043 463
Width: 1008
GlyphClass: 2
Flags: HW
LayerCount: 2
Fore
SplineSet
1003 1341 m 1,0,-1
 323 1341 l 1,1,-1
 323 0 l 1,2,-1
 146 0 l 1,3,-1
 146 1496 l 1,4,-1
 1018 1496 l 1,5,-1
 1003 1341 l 1,0,-1
EndSplineSet
EndChar

StartChar: afii10021
Encoding: 1044 1044 464
Width: 1387
GlyphClass: 2
Flags: HW
LayerCount: 2
Fore
SplineSet
1016 152 m 1,0,-1
 1016 1354 l 1,1,-1
 667 1354 l 1,2,-1
 367 152 l 1,3,-1
 1016 152 l 1,0,-1
523 1496 m 1,4,-1
 1193 1496 l 1,5,-1
 1193 152 l 1,6,-1
 1309 152 l 1,7,-1
 1309 -265 l 1,8,-1
 1132 -265 l 1,9,-1
 1132 0 l 1,10,-1
 191 0 l 1,11,-1
 191 -265 l 1,12,-1
 14 -265 l 1,13,-1
 14 152 l 1,14,-1
 171 152 l 1,15,-1
 523 1496 l 1,4,-1
EndSplineSet
EndChar

StartChar: afii10022
Encoding: 1045 1045 465
Width: 1140
GlyphClass: 2
Flags: HW
LayerCount: 2
Fore
SplineSet
987 845 m 1,0,-1
 987 692 l 1,1,-1
 324 692 l 1,2,-1
 324 155 l 1,3,-1
 1058 155 l 1,4,-1
 1043 0 l 1,5,-1
 147 0 l 1,6,-1
 147 1496 l 1,7,-1
 1029 1496 l 1,8,-1
 1015 1341 l 1,9,-1
 324 1341 l 1,10,-1
 324 845 l 1,11,-1
 987 845 l 1,0,-1
EndSplineSet
EndChar

StartChar: afii10024
Encoding: 1046 1046 466
Width: 1746
GlyphClass: 2
Flags: HW
LayerCount: 2
Fore
SplineSet
962 1497 m 1,0,-1
 962 789 l 1,1,-1
 1499 1497 l 1,2,-1
 1712 1497 l 1,3,-1
 1210 833 l 1,4,-1
 1789 0 l 1,5,-1
 1568 0 l 1,6,-1
 1076 725 l 1,7,-1
 962 578 l 1,8,-1
 962 0 l 1,9,-1
 786 0 l 1,10,-1
 786 578 l 1,11,-1
 681 716 l 1,12,-1
 179 0 l 1,13,-1
 -43 0 l 1,14,-1
 547 824 l 1,15,-1
 35 1497 l 1,16,-1
 246 1497 l 1,17,-1
 786 789 l 1,18,-1
 786 1497 l 1,19,-1
 962 1497 l 1,0,-1
EndSplineSet
EndChar

StartChar: afii10025
Encoding: 1047 1047 467
Width: 1148
GlyphClass: 2
Flags: HW
LayerCount: 2
Fore
SplineSet
539 677 m 2,0,-1
 421 677 l 1,1,-1
 421 837 l 1,2,-1
 548 837 l 2,3,4
 696 837 696 837 772 915 c 128,-1,5
 848 993 848 993 848 1098 c 2,6,-1
 848 1113 l 1,7,8
 841 1234 841 1234 758.5 1303 c 128,-1,9
 676 1372 676 1372 570 1372 c 128,-1,10
 464 1372 464 1372 362.5 1342.5 c 128,-1,11
 261 1313 261 1313 188 1270 c 1,12,-1
 122 1403 l 1,13,14
 281 1524 281 1524 568 1524 c 0,15,16
 679 1524 679 1524 769 1486 c 128,-1,17
 859 1448 859 1448 912.5 1388.5 c 0,18,19
 1022 1266.71962617 1022 1266.71962617 1022 1134.85981308 c 128,-1,20
 1022 1003 1022 1003 953 900.5 c 128,-1,21
 884 798 884 798 785 769 c 1,22,23
 894 744 894 744 976 640 c 128,-1,24
 1058 536 1058 536 1058 402 c 0,25,26
 1058 206 1058 206 924 91.5 c 128,-1,27
 790 -23 790 -23 529 -23 c 128,-1,28
 268 -23 268 -23 85 103 c 1,29,-1
 148 246 l 1,30,31
 217 196 217 196 320 162.5 c 128,-1,32
 423 129 423 129 513.5 129 c 0,33,34
 678.222222222 129 678.222222222 129 780.111111111 194.5 c 128,-1,35
 882 260 882 260 882 389.5 c 128,-1,36
 882 519 882 519 797 598 c 128,-1,37
 712 677 712 677 539 677 c 2,0,-1
EndSplineSet
EndChar

StartChar: afii10026
Encoding: 1048 1048 468
Width: 1489
GlyphClass: 2
Flags: HW
LayerCount: 2
Fore
SplineSet
147 0 m 1,0,-1
 147 1497 l 1,1,-1
 310 1497 l 1,2,-1
 310 261 l 1,3,4
 470 505 470 505 777 953 c 128,-1,5
 1084 1401 1084 1401 1149 1497 c 1,6,-1
 1342 1497 l 1,7,-1
 1342 0 l 1,8,-1
 1181 0 l 1,9,-1
 1181 1230 l 1,10,-1
 1089 1087 l 1,11,-1
 346 0 l 1,12,-1
 147 0 l 1,0,-1
EndSplineSet
EndChar

StartChar: afii10029
Encoding: 1051 1051 471
Width: 1223
GlyphClass: 2
Flags: HW
LayerCount: 2
Fore
SplineSet
27 0 m 1,0,-1
 402 1496 l 1,1,-1
 1076 1496 l 1,2,-1
 1076 0 l 1,3,-1
 899 0 l 1,4,-1
 899 1341 l 1,5,-1
 553 1341 l 1,6,-1
 214 0 l 1,7,-1
 27 0 l 1,0,-1
EndSplineSet
EndChar

StartChar: afii10033
Encoding: 1055 1055 475
Width: 1463
GlyphClass: 2
Flags: HW
LayerCount: 2
Fore
SplineSet
1139 1342 m 1,0,-1
 324 1342 l 1,1,-1
 324 0 l 1,2,-1
 147 0 l 1,3,-1
 147 1496 l 1,4,-1
 1316 1496 l 1,5,-1
 1316 0 l 1,6,-1
 1139 0 l 1,7,-1
 1139 1342 l 1,0,-1
EndSplineSet
EndChar

StartChar: afii10034
Encoding: 1056 1056 476
Width: 1140
GlyphClass: 2
Flags: HW
LayerCount: 2
Fore
SplineSet
645 779 m 2,0,1
 785 779 785 779 857 854.5 c 128,-1,2
 929 930 929 930 929 1064.5 c 128,-1,3
 929 1199 929 1199 856 1270 c 128,-1,4
 783 1341 783 1341 645 1341 c 2,5,-1
 324 1341 l 1,6,-1
 324 779 l 1,7,-1
 645 779 l 2,0,1
324 626 m 1,8,-1
 324 0 l 1,9,-1
 147 0 l 1,10,-1
 147 1496 l 1,11,-1
 641 1496 l 2,12,13
 860 1496 860 1496 984.5 1388 c 128,-1,14
 1109 1280 1109 1280 1109 1069 c 0,15,16
 1109 735.892857143 1109 735.892857143 831 651.5 c 0,17,18
 747 626 747 626 641 626 c 2,19,-1
 324 626 l 1,8,-1
EndSplineSet
EndChar

StartChar: afii10037
Encoding: 1059 1059 479
Width: 1211
GlyphClass: 2
Flags: HW
LayerCount: 2
Fore
SplineSet
538 0 m 1,0,-1
 342 0 l 1,1,-1
 529 466 l 1,2,-1
 -1 1496 l 1,3,-1
 200 1496 l 1,4,-1
 636 637 l 1,5,-1
 1015 1496 l 1,6,-1
 1212 1496 l 1,7,-1
 538 0 l 1,0,-1
EndSplineSet
EndChar

StartChar: afii10038
Encoding: 1060 1060 480
Width: 1727
GlyphClass: 2
Flags: HW
LayerCount: 2
Fore
SplineSet
774 1205 m 1,0,1
 531 1179 531 1179 410.5 1060 c 128,-1,2
 290 941 290 941 290 745 c 128,-1,3
 290 549 290 549 410.5 430 c 128,-1,4
 531 311 531 311 774 285 c 1,5,-1
 774 1205 l 1,0,1
937 1207 m 1,6,-1
 937 284 l 1,7,8
 1190 307 1190 307 1313.5 427 c 128,-1,9
 1437 547 1437 547 1437 745 c 128,-1,10
 1437 943 1437 943 1313.5 1063.5 c 128,-1,11
 1190 1184 1190 1184 937 1207 c 1,6,-1
937 1496 m 1,12,-1
 937 1364 l 1,13,14
 1261 1342 1261 1342 1443.5 1182 c 128,-1,15
 1626 1022 1626 1022 1626 745 c 128,-1,16
 1626 468 1626 468 1443.5 308 c 128,-1,17
 1261 148 1261 148 937 126 c 1,18,-1
 937 0 l 1,19,-1
 774 0 l 1,20,-1
 774 128 l 1,21,22
 451 156 451 156 276 317.5 c 128,-1,23
 101 479 101 479 101 745 c 128,-1,24
 101 1011 101 1011 276 1172.5 c 128,-1,25
 451 1334 451 1334 774 1362 c 1,26,-1
 774 1496 l 1,27,-1
 937 1496 l 1,12,-1
EndSplineSet
EndChar

StartChar: afii10040
Encoding: 1062 1062 482
Width: 1488
GlyphClass: 2
Flags: HW
LayerCount: 2
Fore
SplineSet
1139 155 m 1,0,-1
 1139 1496 l 1,1,-1
 1316 1496 l 1,2,-1
 1316 155 l 1,3,-1
 1432 155 l 1,4,-1
 1432 -265 l 1,5,-1
 1257 -265 l 1,6,-1
 1257 0 l 1,7,-1
 147 0 l 1,8,-1
 147 1496 l 1,9,-1
 324 1496 l 1,10,-1
 324 155 l 1,11,-1
 1139 155 l 1,0,-1
EndSplineSet
EndChar

StartChar: afii10041
Encoding: 1063 1063 483
Width: 1238
GlyphClass: 2
Flags: HW
LayerCount: 2
Fore
SplineSet
915 873 m 2,0,-1
 915 1496 l 1,1,-1
 1092 1496 l 1,2,-1
 1092 0 l 1,3,-1
 915 0 l 1,4,-1
 915 682 l 1,5,6
 858 598 858 598 753.5 552.5 c 128,-1,7
 649 507 649 507 538 507 c 0,8,9
 346 507 346 507 234.5 614 c 128,-1,10
 123 721 123 721 123 916 c 2,11,-1
 123 1496 l 1,12,-1
 300 1496 l 1,13,-1
 300 1014 l 2,14,15
 300 836 300 836 367.5 754 c 128,-1,16
 435 672 435 672 575 672 c 0,17,18
 643 672 643 672 725 708 c 128,-1,19
 807 744 807 744 861 792 c 128,-1,20
 915 840 915 840 915 873 c 2,0,-1
EndSplineSet
EndChar

StartChar: afii10042
Encoding: 1064 1064 484
Width: 1671
GlyphClass: 2
Flags: HW
LayerCount: 2
Fore
SplineSet
324 155 m 1,0,-1
 746 155 l 1,1,-1
 746 1496 l 1,2,-1
 923 1496 l 1,3,-1
 923 155 l 1,4,-1
 1347 155 l 1,5,-1
 1347 1496 l 1,6,-1
 1524 1496 l 1,7,-1
 1524 0 l 1,8,-1
 147 0 l 1,9,-1
 147 1496 l 1,10,-1
 324 1496 l 1,11,-1
 324 155 l 1,0,-1
EndSplineSet
EndChar

StartChar: afii10043
Encoding: 1065 1065 485
Width: 1735
GlyphClass: 2
Flags: HW
LayerCount: 2
Fore
SplineSet
1462 -265 m 1,0,-1
 1462 0 l 1,1,-1
 147 0 l 1,2,-1
 147 1496 l 1,3,-1
 324 1496 l 1,4,-1
 324 155 l 1,5,-1
 747 155 l 1,6,-1
 747 1496 l 1,7,-1
 924 1496 l 1,8,-1
 924 155 l 1,9,-1
 1348 155 l 1,10,-1
 1348 1496 l 1,11,-1
 1525 1496 l 1,12,-1
 1525 155 l 1,13,-1
 1639 155 l 1,14,-1
 1639 -265 l 1,15,-1
 1462 -265 l 1,0,-1
EndSplineSet
EndChar

StartChar: afii10044
Encoding: 1066 1066 486
Width: 1424
GlyphClass: 2
Flags: HW
LayerCount: 2
Fore
SplineSet
1181 431 m 0,0,1
 1181 696 1181 696 828 696 c 2,2,-1
 597 696 l 1,3,-1
 597 156 l 1,4,-1
 828 156 l 2,5,6
 1181 156 1181 156 1181 431 c 0,0,1
420 0 m 1,7,-1
 420 1341 l 1,8,-1
 35 1341 l 1,9,-1
 35 1496 l 1,10,-1
 597 1496 l 1,11,-1
 597 849 l 1,12,-1
 807 849 l 2,13,14
 1347 849 1347 849 1347 428 c 0,15,16
 1347 214 1347 214 1208 107 c 128,-1,17
 1069 0 1069 0 807 0 c 2,18,-1
 420 0 l 1,7,-1
EndSplineSet
EndChar

StartChar: afii10045
Encoding: 1067 1067 487
Width: 1583
GlyphClass: 2
Flags: HW
LayerCount: 2
Fore
SplineSet
1436 1496 m 1,0,-1
 1436 0 l 1,1,-1
 1259 0 l 1,2,-1
 1259 1496 l 1,3,-1
 1436 1496 l 1,0,-1
324 696 m 1,4,-1
 324 155 l 1,5,-1
 487 155 l 2,6,7
 674 155 674 155 766 226 c 128,-1,8
 858 297 858 297 858 431 c 0,9,10
 858 696 858 696 480 696 c 2,11,-1
 324 696 l 1,4,-1
324 1496 m 1,12,-1
 324 849 l 1,13,-1
 460 849 l 2,14,15
 721 849 721 849 873 741.5 c 128,-1,16
 1025 634 1025 634 1025 433.5 c 0,17,18
 1025 233 1025 233 883 116.5 c 128,-1,19
 741 0 741 0 467 0 c 2,20,-1
 147 0 l 1,21,-1
 147 1496 l 1,22,-1
 324 1496 l 1,12,-1
EndSplineSet
EndChar

StartChar: afii10046
Encoding: 1068 1068 488
Width: 1144
GlyphClass: 2
Flags: HW
LayerCount: 2
Fore
SplineSet
324 696 m 1,0,-1
 324 155 l 1,1,-1
 487 155 l 2,2,3
 674 155 674 155 766 226 c 128,-1,4
 858 297 858 297 858 431 c 0,5,6
 858 696 858 696 480 696 c 2,7,-1
 324 696 l 1,0,-1
324 1496 m 1,8,-1
 324 849 l 1,9,-1
 460 849 l 2,10,11
 721 849 721 849 873 741.5 c 128,-1,12
 1025 634 1025 634 1025 433.5 c 0,13,14
 1025 233 1025 233 883 116.5 c 128,-1,15
 741 0 741 0 467 0 c 2,16,-1
 147 0 l 1,17,-1
 147 1496 l 1,18,-1
 324 1496 l 1,8,-1
EndSplineSet
EndChar

StartChar: afii10047
Encoding: 1069 1069 489
Width: 1325
GlyphClass: 2
Flags: HW
LayerCount: 2
Fore
SplineSet
520 -23 m 0,0,1
 239 -23 239 -23 72 113 c 1,2,-1
 136 248 l 1,3,4
 203 196 203 196 302.5 162.5 c 128,-1,5
 402 129 402 129 515 129 c 128,-1,6
 628 129 628 129 723 171 c 128,-1,7
 818 213 818 213 881 286.5 c 0,8,9
 1008.53781513 435.294117647 1008.53781513 435.294117647 1031 664 c 1,10,-1
 342 664 l 1,11,-1
 342 818 l 1,12,-1
 1033 818 l 1,13,14
 1013.44259567 1114.62063228 1013.44259567 1114.62063228 841.5 1262 c 0,15,16
 712 1373 712 1373 500 1373 c 0,17,18
 394 1373 394 1373 298 1338.5 c 128,-1,19
 202 1304 202 1304 135 1250 c 1,20,-1
 77 1395 l 1,21,22
 226 1525 226 1525 523 1525 c 0,23,24
 921.828125 1525 921.828125 1525 1110.5 1210 c 0,25,26
 1224 1020.50434783 1224 1020.50434783 1224 757 c 0,27,28
 1224 419.208092486 1224 419.208092486 1045.5 201.5 c 0,29,30
 959 96 959 96 824 36.5 c 128,-1,31
 689 -23 689 -23 520 -23 c 0,0,1
EndSplineSet
EndChar

StartChar: afii10048
Encoding: 1070 1070 490
Width: 2042
GlyphClass: 2
Flags: HW
LayerCount: 2
Fore
SplineSet
1283.5 1373 m 0,0,1
 1021.71875 1373 1021.71875 1373 897.5 1108 c 0,2,3
 825 953.333333333 825 953.333333333 825 723.595870206 c 128,-1,4
 825 493.85840708 825 493.85840708 941.5 315.5 c 0,5,6
 998 229 998 229 1088 179 c 128,-1,7
 1178 129 1178 129 1290.5 129 c 128,-1,8
 1403 129 1403 129 1492.5 178.5 c 128,-1,9
 1582 228 1582 228 1638 314 c 0,10,11
 1752 489.071428571 1752 489.071428571 1752 748 c 0,12,13
 1752 1062.72477064 1752 1062.72477064 1585.5 1244.5 c 0,14,15
 1467.79831933 1373 1467.79831933 1373 1283.5 1373 c 0,0,1
1567 37.5 m 128,-1,17
 1442 -23 1442 -23 1293 -23 c 128,-1,18
 1144 -23 1144 -23 1024.5 32.5 c 128,-1,19
 905 88 905 88 824.5 185 c 0,20,21
 659.455333272 383.873697797 659.455333272 383.873697797 637 686 c 1,22,-1
 324 686 l 1,23,-1
 324 0 l 1,24,-1
 147 0 l 1,25,-1
 147 1495 l 1,26,-1
 324 1495 l 1,27,-1
 324 837 l 1,28,-1
 640 837 l 1,29,30
 673.326286427 1261.91015195 673.326286427 1261.91015195 950.5 1436.5 c 0,31,32
 1091 1525 1091 1525 1262.5 1525 c 0,33,34
 1590.93333333 1525 1590.93333333 1525 1765.96666667 1303.57228915 c 128,-1,35
 1941 1082.14457831 1941 1082.14457831 1941 750.692659526 c 128,-1,36
 1941 419.240740741 1941 419.240740741 1773 202.5 c 0,37,16
 1692 98 1692 98 1567 37.5 c 128,-1,17
EndSplineSet
EndChar

StartChar: afii10049
Encoding: 1071 1071 491
Width: 1305
GlyphClass: 2
Flags: HW
LayerCount: 2
Fore
SplineSet
631 792 m 2,0,-1
 981 792 l 1,1,-1
 981 1341 l 1,2,-1
 631 1341 l 2,3,4
 445 1341 445 1341 358.5 1274 c 128,-1,5
 272 1207 272 1207 272 1072 c 0,6,7
 272 861.818181818 272 861.818181818 456.5 811.5 c 0,8,9
 528 792 528 792 631 792 c 2,0,-1
981 0 m 1,10,-1
 981 639 l 1,11,-1
 796 639 l 2,12,13
 671 639 671 639 554 648 c 1,14,-1
 241 0 l 1,15,-1
 38 0 l 1,16,17
 103.180084746 141.533898305 103.180084746 141.533898305 310 549 c 1,18,-1
 376 681 l 1,19,20
 247 730 247 730 174.5 831 c 128,-1,21
 102 932 102 932 102 1074 c 0,22,23
 102 1496 102 1496 672 1496 c 2,24,-1
 1158 1496 l 1,25,-1
 1158 0 l 1,26,-1
 981 0 l 1,10,-1
EndSplineSet
EndChar

StartChar: afii10066
Encoding: 1073 1073 493
Width: 1015
GlyphClass: 2
Flags: HW
LayerCount: 2
Fore
SplineSet
115 1098 m 1,0,-1
 844 1098 l 1,1,-1
 844 956 l 1,2,-1
 283 956 l 1,3,-1
 283 715 l 1,4,-1
 565 715 l 2,5,6
 755 715 755 715 855 614.5 c 128,-1,7
 955 514 955 514 955 369.956043956 c 0,8,9
 955 225.912087912 955 225.912087912 861.5 117 c 0,10,11
 816 64 816 64 739 32 c 128,-1,12
 662 0 662 0 565 0 c 2,13,-1
 115 0 l 1,14,-1
 115 1098 l 1,0,-1
583 579 m 2,15,-1
 283 579 l 1,16,-1
 283 134 l 1,17,-1
 583 134 l 2,18,19
 646 134 646 134 695.5 173 c 0,20,21
 793 249.818181818 793 249.818181818 793 371 c 0,22,23
 793 451 793 451 735 515 c 128,-1,24
 677 579 677 579 583 579 c 2,15,-1
EndSplineSet
EndChar

StartChar: afii10067
Encoding: 1074 1074 494
Width: 1033
GlyphClass: 2
Flags: HW
LayerCount: 2
Fore
SplineSet
283 637 m 1,0,-1
 576 637 l 2,1,2
 670 637 670 637 722 685 c 128,-1,3
 774 733 774 733 774 800 c 0,4,5
 774 867 774 867 723 911.5 c 128,-1,6
 672 956 672 956 576 956 c 2,7,-1
 283 956 l 1,8,-1
 283 637 l 1,0,-1
576 500 m 2,9,-1
 283 500 l 1,10,-1
 283 134 l 1,11,-1
 576 134 l 2,12,13
 685 134 685 134 746 186.5 c 128,-1,14
 807 239 807 239 807 326 c 1,15,16
 803 395 803 395 741.5 447.5 c 128,-1,17
 680 500 680 500 576 500 c 2,9,-1
968 316 m 1,18,19
 968 182 968 182 865.5 91 c 128,-1,20
 763 0 763 0 567 0 c 2,21,-1
 115 0 l 1,22,-1
 115 1098 l 1,23,-1
 567 1098 l 2,24,25
 749 1098 749 1098 841.5 1014 c 128,-1,26
 934 930 934 930 934 808 c 0,27,28
 934 736 934 736 897.5 673.5 c 128,-1,29
 861 611 861 611 788 575 c 1,30,31
 873 539 873 539 918.5 467 c 128,-1,32
 964 395 964 395 968 316 c 1,18,19
EndSplineSet
EndChar

StartChar: afii10068
Encoding: 1075 1075 495
Width: 666
GlyphClass: 2
Flags: HW
LayerCount: 2
Fore
SplineSet
649 956 m 1,0,-1
 283 956 l 1,1,-1
 283 0 l 1,2,-1
 115 0 l 1,3,-1
 115 1098 l 1,4,-1
 649 1098 l 1,5,-1
 649 956 l 1,0,-1
EndSplineSet
EndChar

StartChar: afii10069
Encoding: 1076 1076 496
Width: 1104
GlyphClass: 2
Flags: HW
LayerCount: 2
Fore
SplineSet
294 134 m 1,0,-1
 781 134 l 1,1,-1
 781 956 l 1,2,-1
 409 956 l 1,3,-1
 397 634 l 1,4,5
 354 376 354 376 294 134 c 1,0,-1
168 0 m 1,6,-1
 168 -268 l 1,7,-1
 10 -268 l 1,8,-1
 10 136 l 1,9,-1
 106 136 l 1,10,11
 202 252 202 252 222 581 c 2,12,-1
 254 1098 l 1,13,-1
 949 1098 l 1,14,-1
 949 134 l 1,15,-1
 1036 134 l 1,16,-1
 1036 -268 l 1,17,-1
 873 -268 l 1,18,-1
 873 0 l 1,19,-1
 168 0 l 1,6,-1
EndSplineSet
EndChar

StartChar: afii10072
Encoding: 1078 1078 498
Width: 1506
GlyphClass: 2
Flags: HW
LayerCount: 2
Fore
SplineSet
671 593 m 1,0,-1
 671 1098 l 1,1,-1
 836 1098 l 1,2,-1
 836 593 l 1,3,4
 849 607 849 607 870.5 631.5 c 128,-1,5
 892 656 892 656 950.5 722.5 c 128,-1,6
 1009 789 1009 789 1060.5 847.5 c 128,-1,7
 1112 906 1112 906 1165 966.5 c 128,-1,8
 1218 1027 1218 1027 1250 1062 c 1,9,-1
 1281 1098 l 1,10,-1
 1480 1098 l 1,11,-1
 988 562 l 1,12,-1
 1490 0 l 1,13,-1
 1287 0 l 1,14,-1
 836 509 l 1,15,-1
 836 0 l 1,16,-1
 671 0 l 1,17,-1
 671 509 l 1,18,-1
 220 0 l 1,19,-1
 17 0 l 1,20,-1
 519 562 l 1,21,-1
 27 1098 l 1,22,-1
 226 1098 l 1,23,-1
 337 972 l 2,24,25
 448 846 448 846 560 720 c 1,26,-1
 671 593 l 1,0,-1
EndSplineSet
EndChar

StartChar: afii10073
Encoding: 1079 1079 499
Width: 956
GlyphClass: 2
Flags: HW
LayerCount: 2
Fore
SplineSet
70 1013 m 1,0,1
 177.172413793 1124 177.172413793 1124 427 1124 c 0,2,3
 730 1124 730 1124 812.5 931.5 c 0,4,5
 835 879 835 879 835 808.5 c 0,6,7
 835 640.8 835 640.8 668 574 c 1,8,9
 860 521 860 521 870 311 c 1,10,11
 870 169.586538462 870 169.586538462 763.489473684 72.293269231 c 0,12,13
 656.978947368 -25 656.978947368 -25 424 -25 c 0,14,15
 319 -25 319 -25 221.5 2.5 c 128,-1,16
 124 30 124 30 70 86 c 1,17,18
 80 107 80 107 99 141.5 c 128,-1,19
 118 176 118 176 128 201 c 1,20,21
 231.571428571 114 231.571428571 114 436 114 c 0,22,23
 566 114 566 114 636 171 c 128,-1,24
 706 228 706 228 706 310 c 128,-1,25
 706 392 706 392 646.5 447 c 128,-1,26
 587 502 587 502 478 502 c 2,27,-1
 284 502 l 1,28,-1
 284 633 l 1,29,-1
 478 633 l 2,30,31
 573 633 573 633 622.5 685.5 c 128,-1,32
 672 738 672 738 672 812.5 c 128,-1,33
 672 887 672 887 610.5 936.5 c 128,-1,34
 549 986 549 986 444 986 c 128,-1,35
 339 986 339 986 252.5 956.5 c 128,-1,36
 166 927 166 927 128 890 c 1,37,38
 85 978 85 978 70 1013 c 1,0,1
EndSplineSet
EndChar

StartChar: afii10074
Encoding: 1080 1080 500
Width: 1117
GlyphClass: 2
Flags: HW
LayerCount: 2
Fore
SplineSet
1002 0 m 1,0,-1
 834 0 l 1,1,-1
 834 746 l 1,2,-1
 273 0 l 1,3,-1
 115 0 l 1,4,-1
 115 1098 l 1,5,-1
 283 1098 l 1,6,-1
 283 261 l 1,7,-1
 834 995 l 1,8,-1
 834 1098 l 1,9,-1
 1002 1098 l 1,10,-1
 1002 0 l 1,0,-1
EndSplineSet
EndChar

StartChar: afii10076
Encoding: 1082 1082 502
Width: 997
GlyphClass: 2
Flags: HW
LayerCount: 2
Fore
SplineSet
283 605 m 1,0,-1
 485 834 l 2,1,2
 507 859 507 859 544 901.5 c 128,-1,3
 581 944 581 944 596 960.5 c 128,-1,4
 611 977 611 977 638.5 1006.5 c 128,-1,5
 666 1036 666 1036 680 1046.5 c 0,6,7
 764.666666667 1110 764.666666667 1110 843.045454545 1110 c 0,8,9
 875 1110 875 1110 937 1098 c 1,10,-1
 937 947 l 1,11,12
 876 956 876 956 865 956 c 0,13,14
 822 956 822 956 778 918 c 128,-1,15
 734 880 734 880 656.5 788 c 128,-1,16
 579 696 579 696 524 642 c 2,17,-1
 423 542 l 1,18,-1
 990 0 l 1,19,-1
 763 0 l 1,20,-1
 283 474 l 1,21,-1
 283 0 l 1,22,-1
 115 0 l 1,23,-1
 115 1098 l 1,24,-1
 283 1098 l 1,25,-1
 283 605 l 1,0,-1
EndSplineSet
EndChar

StartChar: afii10077
Encoding: 1083 1083 503
Width: 1172
GlyphClass: 2
Flags: HW
LayerCount: 2
Fore
SplineSet
202 1098 m 1,0,-1
 1057 1098 l 1,1,-1
 1057 0 l 1,2,-1
 889 0 l 1,3,-1
 889 956 l 1,4,-1
 370 956 l 1,5,-1
 370 419 l 2,6,7
 370 186.125 370 186.125 357.5 147.0625 c 128,-1,8
 345 108 345 108 330 75 c 128,-1,9
 315 42 315 42 293 28 c 128,-1,10
 271 14 271 14 228.1 -5.5 c 128,-1,11
 185.2 -25 185.2 -25 61 -25 c 2,12,-1
 24 -25 l 1,13,-1
 14 128 l 1,14,-1
 61 128 l 2,15,16
 119.111111111 128 119.111111111 128 138.055555556 139 c 128,-1,17
 157 150 157 150 167 157.5 c 128,-1,18
 177 165 177 165 184 185.5 c 0,19,20
 202 238.214285714 202 238.214285714 202 409 c 2,21,-1
 202 1098 l 1,0,-1
EndSplineSet
EndChar

StartChar: afii10078
Encoding: 1084 1084 504
Width: 1178
GlyphClass: 2
Flags: HW
LayerCount: 2
Fore
SplineSet
648 385 m 1,0,-1
 541 385 l 1,1,-1
 282 811 l 1,2,-1
 282 0 l 1,3,-1
 114 0 l 1,4,-1
 114 1098 l 1,5,-1
 262 1098 l 1,6,-1
 588 583 l 1,7,-1
 916 1098 l 1,8,-1
 1063 1098 l 1,9,-1
 1063 0 l 1,10,-1
 895 0 l 1,11,-1
 895 811 l 1,12,-1
 648 385 l 1,0,-1
EndSplineSet
EndChar

StartChar: afii10079
Encoding: 1085 1085 505
Width: 1117
GlyphClass: 2
Flags: HW
LayerCount: 2
Fore
SplineSet
115 1098 m 1,0,-1
 283 1098 l 1,1,-1
 283 653 l 1,2,-1
 834 653 l 1,3,-1
 834 1098 l 1,4,-1
 1002 1098 l 1,5,-1
 1002 0 l 1,6,-1
 834 0 l 1,7,-1
 834 518 l 1,8,-1
 283 518 l 1,9,-1
 283 0 l 1,10,-1
 115 0 l 1,11,-1
 115 1098 l 1,0,-1
EndSplineSet
EndChar

StartChar: afii10081
Encoding: 1087 1087 507
Width: 1194
GlyphClass: 2
Flags: HW
LayerCount: 2
Fore
SplineSet
152 1098 m 1,0,-1
 1039 1098 l 1,1,-1
 1039 0 l 1,2,-1
 871 0 l 1,3,-1
 871 956 l 1,4,-1
 320 956 l 1,5,-1
 320 0 l 1,6,-1
 152 0 l 1,7,-1
 152 1098 l 1,0,-1
EndSplineSet
EndChar

StartChar: afii10084
Encoding: 1090 1090 510
Width: 847
GlyphClass: 2
Flags: HW
LayerCount: 2
Fore
SplineSet
43 1098 m 1,0,-1
 805 1098 l 1,1,-1
 805 956 l 1,2,-1
 512 956 l 1,3,-1
 512 0 l 1,4,-1
 344 0 l 1,5,-1
 344 956 l 1,6,-1
 43 956 l 1,7,-1
 43 1098 l 1,0,-1
EndSplineSet
EndChar

StartChar: afii10085
Encoding: 1091 1091 511
Width: 1095
GlyphClass: 2
Flags: HW
LayerCount: 2
Fore
SplineSet
551 202 m 1,0,-1
 856 1098 l 1,1,-1
 1039 1098 l 1,2,-1
 650 22 l 2,3,4
 638 -12 638 -12 614 -81.5 c 128,-1,5
 590 -151 590 -151 576.5 -185.5 c 128,-1,6
 563 -220 563 -220 537 -268.5 c 128,-1,7
 511 -317 511 -317 485 -335.5 c 128,-1,8
 459 -354 459 -354 403.636363636 -382 c 128,-1,9
 348.272727273 -410 348.272727273 -410 176 -410 c 2,10,-1
 119 -410 l 1,11,-1
 93 -245 l 1,12,-1
 166 -245 l 2,13,14
 269 -245 269 -245 304 -231 c 128,-1,15
 339 -217 339 -217 354 -202.5 c 0,16,17
 395.197183098 -162.676056339 395.197183098 -162.676056339 453 30 c 1,18,-1
 44 1098 l 1,19,-1
 229 1098 l 1,20,-1
 551 202 l 1,0,-1
EndSplineSet
EndChar

StartChar: afii10086
Encoding: 1092 1092 512
Width: 1409
GlyphClass: 2
Flags: HW
LayerCount: 2
Fore
SplineSet
363 224.5 m 0,0,1
 415 168 415 168 487 168 c 128,-1,2
 559 168 559 168 620 196 c 1,3,-1
 620 906 l 1,4,5
 563 934 563 934 487.5 934 c 128,-1,6
 412 934 412 934 361 880.5 c 0,7,8
 260 774.549019608 260 774.549019608 260 555.481240573 c 128,-1,9
 260 336.413461538 260 336.413461538 363 224.5 c 0,0,1
1149 528.5 m 0,10,11
 1149 774.019417476 1149 774.019417476 1046.5 880.5 c 0,12,13
 995 934 995 934 924 934 c 128,-1,14
 853 934 853 934 788 902 c 1,15,-1
 788 198 l 1,16,17
 846 168 846 168 924 168 c 0,18,19
 1025 168 1025 168 1087 284 c 128,-1,20
 1149 400 1149 400 1149 528.5 c 0,10,11
620 1312 m 1,21,-1
 788 1312 l 1,22,-1
 788 1039 l 1,23,24
 865 1070 865 1070 927 1070 c 0,25,26
 1043 1070 1043 1070 1134 1001.5 c 128,-1,27
 1225 933 1225 933 1274 817 c 128,-1,28
 1323 701 1323 701 1323 558.5 c 128,-1,29
 1323 416 1323 416 1274 296.5 c 128,-1,30
 1225 177 1225 177 1133.5 104.5 c 128,-1,31
 1042 32 1042 32 946 32 c 128,-1,32
 850 32 850 32 788 57 c 1,33,-1
 788 -195 l 1,34,-1
 620 -195 l 1,35,-1
 620 57 l 1,36,37
 558 32 558 32 461.5 32 c 128,-1,38
 365 32 365 32 274 104 c 128,-1,39
 183 176 183 176 134.5 296 c 128,-1,40
 86 416 86 416 86 558 c 0,41,42
 86 777 86 777 195.5 923.5 c 128,-1,43
 305 1070 305 1070 480 1070 c 0,44,45
 543 1070 543 1070 620 1039 c 1,46,-1
 620 1312 l 1,21,-1
EndSplineSet
EndChar

StartChar: afii10088
Encoding: 1094 1094 514
Width: 1106
GlyphClass: 2
Flags: HW
LayerCount: 2
Fore
SplineSet
913 0 m 1,0,-1
 128 0 l 1,1,-1
 128 1098 l 1,2,-1
 296 1098 l 1,3,-1
 296 134 l 1,4,-1
 789 134 l 1,5,-1
 789 1098 l 1,6,-1
 957 1098 l 1,7,-1
 957 136 l 1,8,-1
 1056 136 l 1,9,-1
 1056 -269 l 1,10,-1
 923 -269 l 1,11,-1
 913 0 l 1,0,-1
EndSplineSet
EndChar

StartChar: afii10089
Encoding: 1095 1095 515
Width: 1030
GlyphClass: 2
Flags: HW
LayerCount: 2
Fore
SplineSet
242 862 m 2,0,1
 242 686 242 686 301 612 c 128,-1,2
 360 538 360 538 488 538 c 0,3,4
 577 538 577 538 649.5 594 c 128,-1,5
 722 650 722 650 747 753 c 1,6,-1
 747 1098 l 1,7,-1
 915 1098 l 1,8,-1
 915 0 l 1,9,-1
 747 0 l 1,10,-1
 747 548 l 1,11,12
 712 476 712 476 633.5 435.5 c 128,-1,13
 555 395 555 395 457 395 c 0,14,15
 270 395 270 395 172 514 c 128,-1,16
 74 633 74 633 74 844 c 2,17,-1
 74 1098 l 1,18,-1
 242 1098 l 1,19,-1
 242 862 l 2,0,1
EndSplineSet
EndChar

StartChar: afii10090
Encoding: 1096 1096 516
Width: 1322
GlyphClass: 2
Flags: HW
LayerCount: 2
Fore
SplineSet
283 144 m 1,0,-1
 577 144 l 1,1,-1
 577 1098 l 1,2,-1
 745 1098 l 1,3,-1
 745 144 l 1,4,-1
 1039 144 l 1,5,-1
 1039 1098 l 1,6,-1
 1207 1098 l 1,7,-1
 1207 0 l 1,8,-1
 115 0 l 1,9,-1
 115 1098 l 1,10,-1
 283 1098 l 1,11,-1
 283 144 l 1,0,-1
EndSplineSet
EndChar

StartChar: afii10091
Encoding: 1097 1097 517
Width: 1372
GlyphClass: 2
Flags: HW
LayerCount: 2
Fore
SplineSet
1170 -238 m 1,0,-1
 1170 0 l 1,1,-1
 115 0 l 1,2,-1
 115 1098 l 1,3,-1
 283 1098 l 1,4,-1
 283 134 l 1,5,-1
 577 134 l 1,6,-1
 577 1098 l 1,7,-1
 745 1098 l 1,8,-1
 745 134 l 1,9,-1
 1039 134 l 1,10,-1
 1039 1098 l 1,11,-1
 1207 1098 l 1,12,-1
 1207 134 l 1,13,-1
 1307 134 l 1,14,-1
 1307 -238 l 1,15,-1
 1170 -238 l 1,0,-1
EndSplineSet
EndChar

StartChar: afii10092
Encoding: 1098 1098 518
Width: 1152
GlyphClass: 2
Flags: HW
LayerCount: 2
Fore
SplineSet
740 520 m 2,0,-1
 429 520 l 1,1,-1
 429 134 l 1,2,-1
 746 134 l 2,3,4
 838 134 838 134 888 196.5 c 128,-1,5
 938 259 938 259 938 333 c 128,-1,6
 938 407 938 407 885.5 463.5 c 128,-1,7
 833 520 833 520 740 520 c 2,0,-1
429 1098 m 1,8,-1
 429 656 l 1,9,-1
 719 656 l 2,10,11
 907 656 907 656 1003.5 563.5 c 128,-1,12
 1100 471 1100 471 1100 335.971264368 c 0,13,14
 1100 200.942528736 1100 200.942528736 1009.88659794 100.471264368 c 0,15,16
 919.773195876 -9.23705556488e-14 919.773195876 -9.23705556488e-14 725 0 c 2,17,-1
 261 0 l 1,18,-1
 261 956 l 1,19,-1
 27 956 l 1,20,-1
 27 1098 l 1,21,-1
 429 1098 l 1,8,-1
EndSplineSet
EndChar

StartChar: afii10093
Encoding: 1099 1099 519
Width: 1322
GlyphClass: 2
Flags: HW
LayerCount: 2
Fore
SplineSet
1207 1098 m 1,0,-1
 1207 0 l 1,1,-1
 1039 0 l 1,2,-1
 1039 1098 l 1,3,-1
 1207 1098 l 1,0,-1
532 562 m 2,4,-1
 283 562 l 1,5,-1
 283 134 l 1,6,-1
 539 134 l 2,7,8
 601 134 601 134 645 171 c 0,9,10
 725 238.272727273 725 238.272727273 725 361 c 0,11,12
 725 443 725 443 675 502.5 c 128,-1,13
 625 562 625 562 532 562 c 2,4,-1
283 1098 m 1,14,-1
 283 698 l 1,15,-1
 508 698 l 2,16,17
 787.168067227 698 787.168067227 698 865 487.5 c 0,18,19
 887 428 887 428 887 358 c 0,20,21
 887 214.790697674 887 214.790697674 798.192307692 107.395348837 c 128,-1,22
 709.384615385 -2.84217094304e-14 709.384615385 -2.84217094304e-14 515 0 c 2,23,-1
 115 0 l 1,24,-1
 115 1098 l 1,25,-1
 283 1098 l 1,14,-1
EndSplineSet
EndChar

StartChar: afii10094
Encoding: 1100 1100 520
Width: 952
GlyphClass: 2
Flags: HW
LayerCount: 2
Fore
SplineSet
532 562 m 2,0,-1
 283 562 l 1,1,-1
 283 134 l 1,2,-1
 539 134 l 2,3,4
 601 134 601 134 645 171 c 0,5,6
 725 238.272727273 725 238.272727273 725 361 c 0,7,8
 725 443 725 443 675 502.5 c 128,-1,9
 625 562 625 562 532 562 c 2,0,-1
283 1098 m 1,10,-1
 283 698 l 1,11,-1
 508 698 l 2,12,13
 787.168067227 698 787.168067227 698 865 487.5 c 0,14,15
 887 428 887 428 887 358 c 0,16,17
 887 214.790697674 887 214.790697674 798.192307692 107.395348837 c 128,-1,18
 709.384615385 -2.84217094304e-14 709.384615385 -2.84217094304e-14 515 0 c 2,19,-1
 115 0 l 1,20,-1
 115 1098 l 1,21,-1
 283 1098 l 1,10,-1
EndSplineSet
EndChar

StartChar: afii10095
Encoding: 1101 1101 521
Width: 1002
GlyphClass: 2
Flags: HW
LayerCount: 2
Fore
SplineSet
54 1024 m 1,0,1
 168.285714286 1124 168.285714286 1124 397.5 1124 c 0,2,3
 510 1124 510 1124 614.5 1077 c 128,-1,4
 719 1030 719 1030 783.5 949.5 c 0,5,6
 915 785.379844961 915 785.379844961 915 549.980620155 c 128,-1,7
 915 314.581395349 915 314.581395349 781.5 149 c 0,8,9
 717 69 717 69 613 22 c 128,-1,10
 509 -25 509 -25 393 -25 c 0,11,12
 162.666666667 -25 162.666666667 -25 55 70 c 1,13,-1
 101 195 l 1,14,15
 236 113 236 113 380 113 c 128,-1,16
 524 113 524 113 622.5 211.5 c 128,-1,17
 721 310 721 310 738 477 c 1,18,-1
 275 477 l 1,19,-1
 275 619 l 1,20,-1
 738 619 l 1,21,22
 721 790 721 790 627.5 888 c 128,-1,23
 534 986 534 986 382.5 986 c 128,-1,24
 231 986 231 986 100 902 c 1,25,-1
 54 1024 l 1,0,1
EndSplineSet
EndChar

StartChar: afii10096
Encoding: 1102 1102 522
Width: 1468
GlyphClass: 2
Flags: HW
LayerCount: 2
Fore
SplineSet
1145.31349206 240.418032787 m 128,-1,1
 1207 367.836065574 1207 367.836065574 1207 547 c 0,2,3
 1207 986 1207 986 923 986 c 0,4,5
 767.039370079 986 767.039370079 986 698.01968504 855.171641791 c 128,-1,6
 629 724.343283582 629 724.343283582 629 545.783582089 c 128,-1,7
 629 367.223880597 629 367.223880597 697.681451613 240.111940299 c 128,-1,8
 766.362903226 113 766.362903226 113 924.994943676 113 c 128,-1,0
 1083.62698413 113 1083.62698413 113 1145.31349206 240.418032787 c 128,-1,1
1276 149 m 0,9,10
 1223 68 1223 68 1132.5 21.5 c 128,-1,11
 1042 -25 1042 -25 926.5 -25 c 0,12,13
 698.376811594 -25 698.376811594 -25 585.2233296 116.956186502 c 128,-1,14
 472.069847605 258.912373004 472.069847605 258.912373004 458 478 c 1,15,-1
 283 478 l 1,16,-1
 283 0 l 1,17,-1
 115 0 l 1,18,-1
 115 1098 l 1,19,-1
 283 1098 l 1,20,-1
 283 618 l 1,21,-1
 458 618 l 1,22,23
 474.153019401 838.084889334 474.153019401 838.084889334 587.497938272 981.042444667 c 128,-1,24
 700.842857143 1124 700.842857143 1124 926 1124 c 0,25,26
 1207.59863946 1124 1207.59863946 1124 1317 887.5 c 0,27,28
 1381 749.147058824 1381 749.147058824 1381 529.309378469 c 128,-1,29
 1381 309.471698113 1381 309.471698113 1276 149 c 0,9,10
EndSplineSet
EndChar

StartChar: afii10097
Encoding: 1103 1103 523
Width: 1045
GlyphClass: 2
Flags: HW
LayerCount: 2
Fore
SplineSet
444 579 m 2,0,-1
 762 579 l 1,1,-1
 762 956 l 1,2,-1
 444 956 l 2,3,4
 350 956 350 956 294 896.5 c 128,-1,5
 238 837 238 837 238 765 c 128,-1,6
 238 693 238 693 294 636 c 128,-1,7
 350 579 350 579 444 579 c 2,0,-1
762 0 m 1,8,-1
 762 439 l 1,9,-1
 475 439 l 1,10,-1
 274 0 l 1,11,-1
 74 0 l 1,12,-1
 302 459 l 1,13,14
 191 493 191 493 132.5 576.5 c 128,-1,15
 74 660 74 660 74 744 c 0,16,17
 74 896.909090909 74 896.909090909 166.166666666 997.454545455 c 128,-1,18
 258.333333333 1098 258.333333333 1098 455 1098 c 2,19,-1
 930 1098 l 1,20,-1
 930 0 l 1,21,-1
 762 0 l 1,8,-1
EndSplineSet
EndChar

StartChar: afii10099
Encoding: 1106 1106 526
Width: 1113
GlyphClass: 2
Flags: HW
LayerCount: 2
Fore
SplineSet
283 495 m 1,0,-1
 283 0 l 1,1,-1
 115 0 l 1,2,-1
 115 1098 l 1,3,-1
 21 1098 l 1,4,-1
 21 1214 l 1,5,-1
 115 1214 l 1,6,-1
 115 1510 l 1,7,-1
 283 1510 l 1,8,-1
 283 1214 l 1,9,-1
 698 1214 l 1,10,-1
 698 1098 l 1,11,-1
 283 1098 l 1,12,-1
 283 713 l 1,13,14
 424 892 424 892 636 892 c 0,15,16
 1008 892 1008 892 1008 445 c 2,17,-1
 1008 158 l 2,18,19
 1008 -1 1008 -1 999 -50.5 c 128,-1,20
 990 -100 990 -100 981 -129 c 128,-1,21
 972 -158 972 -158 959.5 -177.5 c 128,-1,22
 947 -197 947 -197 929 -216 c 0,23,24
 865.526315789 -283 865.526315789 -283 688 -283 c 2,25,-1
 617 -283 l 1,26,-1
 605 -141 l 1,27,-1
 648 -141 l 2,28,29
 737.857142857 -141 737.857142857 -141 767.428571429 -127.5 c 128,-1,30
 797 -114 797 -114 808.5 -99 c 0,31,32
 840 -57.9130434783 840 -57.9130434783 840 104 c 2,33,-1
 840 368 l 2,34,35
 840 611.469387755 840 611.469387755 783.190909091 675.234693877 c 128,-1,36
 726.381818182 739 726.381818182 739 613.190909091 739 c 128,-1,37
 500 739 500 739 403 660.5 c 128,-1,38
 306 582 306 582 283 495 c 1,0,-1
EndSplineSet
EndChar

StartChar: afii10101
Encoding: 1108 1108 528
Width: 1002
GlyphClass: 2
Flags: HW
LayerCount: 2
Fore
SplineSet
914 70 m 1,0,1
 806.333333333 -25 806.333333333 -25 589 -25 c 0,2,3
 460 -25 460 -25 356 22 c 128,-1,4
 252 69 252 69 187.5 149 c 0,5,6
 54 314.581395349 54 314.581395349 54 549.980620155 c 0,7,8
 54 785.379844961 54 785.379844961 185.5 949.5 c 0,9,10
 250 1030 250 1030 354.5 1077 c 128,-1,11
 459 1124 459 1124 571.5 1124 c 0,12,13
 800.714285714 1124 800.714285714 1124 915 1024 c 1,14,-1
 869 902 l 1,15,16
 738 986 738 986 586.5 986 c 128,-1,17
 435 986 435 986 341.5 888 c 128,-1,18
 248 790 248 790 231 619 c 1,19,-1
 694 619 l 1,20,-1
 694 477 l 1,21,-1
 231 477 l 1,22,23
 248 310 248 310 346.5 211.5 c 128,-1,24
 445 113 445 113 589 113 c 128,-1,25
 733 113 733 113 868 195 c 1,26,-1
 914 70 l 1,0,1
EndSplineSet
EndChar

StartChar: afii10103
Encoding: 1110 1110 530
Width: 489
GlyphClass: 2
Flags: HW
LayerCount: 2
Fore
SplineSet
329 1490 m 1,0,-1
 329 1292 l 1,1,-1
 160 1292 l 1,2,-1
 160 1490 l 1,3,-1
 329 1490 l 1,0,-1
329 1098 m 1,4,-1
 329 0 l 1,5,-1
 160 0 l 1,6,-1
 160 1098 l 1,7,-1
 329 1098 l 1,4,-1
EndSplineSet
EndChar

StartChar: afii10106
Encoding: 1113 1113 533
Width: 952
GlyphClass: 2
Flags: HW
LayerCount: 2
Fore
SplineSet
316 409 m 2,0,-1
 316 1098 l 1,1,-1
 1123 1098 l 1,2,-1
 1123 698 l 1,3,-1
 1334 698 l 2,4,5
 1613.16806723 698 1613.16806723 698 1691 487.5 c 0,6,7
 1713 428 1713 428 1713 365 c 128,-1,8
 1713 302 1713 302 1700 251.5 c 0,9,10
 1671.76235855 141.807623585 1671.76235855 141.807623585 1584.17529692 70.9038117927 c 128,-1,11
 1496.58823529 1.20792265079e-13 1496.58823529 1.20792265079e-13 1341 0 c 2,12,-1
 955 0 l 1,13,-1
 955 956 l 1,14,-1
 484 956 l 1,15,-1
 484 419 l 2,16,17
 484 157.52 484 157.52 458.5 105.5 c 0,18,19
 417.059972106 20.9623430962 417.059972106 20.9623430962 369 4 c 0,20,21
 286.833333333 -25 286.833333333 -25 175 -25 c 2,22,-1
 138 -25 l 1,23,-1
 128 128 l 1,24,-1
 175 128 l 2,25,26
 233.111111111 128 233.111111111 128 252.055555556 139 c 128,-1,27
 271 150 271 150 280.5 157.5 c 128,-1,28
 290 165 290 165 297 185.5 c 0,29,30
 316 241.142857143 316 241.142857143 316 409 c 2,0,-1
1123 562 m 1,31,-1
 1123 134 l 1,32,-1
 1365 134 l 2,33,34
 1497.28571429 134 1497.28571429 134 1540 283.5 c 0,35,36
 1551 322 1551 322 1551 367.5 c 128,-1,37
 1551 413 1551 413 1531 457.5 c 128,-1,38
 1511 502 1511 502 1466 532 c 128,-1,39
 1421 562 1421 562 1358 562 c 2,40,-1
 1123 562 l 1,31,-1
EndSplineSet
EndChar

StartChar: afii10107
Encoding: 1114 1114 534
Width: 1621
GlyphClass: 2
Flags: HW
LayerCount: 2
Fore
SplineSet
115 1098 m 1,0,-1
 283 1098 l 1,1,-1
 283 653 l 1,2,-1
 765 653 l 1,3,-1
 765 1098 l 1,4,-1
 933 1098 l 1,5,-1
 933 698 l 1,6,-1
 1140 698 l 2,7,8
 1419.16806723 698 1419.16806723 698 1497 487.5 c 0,9,10
 1519 428 1519 428 1519 358 c 0,11,12
 1519 214.790697674 1519 214.790697674 1430.19230769 107.395348837 c 128,-1,13
 1341.38461538 1.06581410364e-13 1341.38461538 1.06581410364e-13 1147 0 c 2,14,-1
 765 0 l 1,15,-1
 765 518 l 1,16,-1
 283 518 l 1,17,-1
 283 0 l 1,18,-1
 115 0 l 1,19,-1
 115 1098 l 1,0,-1
933 562 m 1,20,-1
 933 134 l 1,21,-1
 1171 134 l 2,22,23
 1233 134 1233 134 1277 171 c 0,24,25
 1357 238.272727273 1357 238.272727273 1357 361 c 0,26,27
 1357 443 1357 443 1307 502.5 c 128,-1,28
 1257 562 1257 562 1164 562 c 2,29,-1
 933 562 l 1,20,-1
EndSplineSet
EndChar

StartChar: afii10108
Encoding: 1115 1115 535
Width: 1113
GlyphClass: 2
Flags: HW
LayerCount: 2
Fore
SplineSet
283 495 m 1,0,-1
 283 0 l 1,1,-1
 115 0 l 1,2,-1
 115 1099 l 1,3,-1
 21 1099 l 1,4,-1
 21 1215 l 1,5,-1
 115 1215 l 1,6,-1
 115 1510 l 1,7,-1
 283 1510 l 1,8,-1
 283 1215 l 1,9,-1
 698 1215 l 1,10,-1
 698 1099 l 1,11,-1
 283 1099 l 1,12,-1
 283 713 l 1,13,14
 424 892 424 892 636 892 c 0,15,16
 1008 892 1008 892 1008 445 c 2,17,-1
 1008 0 l 1,18,-1
 840 0 l 1,19,-1
 840 368 l 2,20,21
 840 611.469387755 840 611.469387755 783.190909091 675.234693877 c 0,22,23
 726.381818182 739 726.381818182 739 613.190909091 739 c 128,-1,24
 500 739 500 739 403 660.5 c 128,-1,25
 306 582 306 582 283 495 c 1,0,-1
EndSplineSet
EndChar

StartChar: afii10193
Encoding: 1119 1119 538
Width: 1106
GlyphClass: 2
Flags: HW
LayerCount: 2
Fore
SplineSet
488 0 m 1,0,-1
 115 0 l 1,1,-1
 115 1098 l 1,2,-1
 283 1098 l 1,3,-1
 283 134 l 1,4,-1
 789 134 l 1,5,-1
 789 1098 l 1,6,-1
 957 1098 l 1,7,-1
 957 0 l 1,8,-1
 636 0 l 1,9,-1
 629 -278 l 1,10,-1
 493 -278 l 1,11,-1
 488 0 l 1,0,-1
EndSplineSet
EndChar

StartChar: endash
Encoding: 8211 8211 565
Width: 1317
GlyphClass: 2
Flags: HW
LayerCount: 2
Fore
SplineSet
1186 675 m 1,0,-1
 1186 527 l 1,1,-1
 139 527 l 1,2,-1
 139 675 l 1,3,-1
 1186 675 l 1,0,-1
EndSplineSet
EndChar

StartChar: emdash
Encoding: 8212 8212 566
Width: 2427
GlyphClass: 2
Flags: HW
LayerCount: 2
Fore
SplineSet
2296 675 m 1,0,-1
 2296 527 l 1,1,-1
 139 527 l 1,2,-1
 139 675 l 1,3,-1
 2296 675 l 1,0,-1
EndSplineSet
EndChar

StartChar: quoteleft
Encoding: 8216 8216 567
Width: 510
GlyphClass: 2
Flags: HW
LayerCount: 2
Fore
SplineSet
382 1574 m 1,0,-1
 291 1102 l 1,1,-1
 129 1102 l 1,2,-1
 265 1574 l 1,3,-1
 382 1574 l 1,0,-1
EndSplineSet
EndChar

StartChar: quoteright
Encoding: 8217 8217 568
Width: 504
GlyphClass: 2
Flags: HW
LayerCount: 2
Fore
SplineSet
249 1102 m 1,0,-1
 133 1102 l 1,1,-1
 226 1574 l 1,2,-1
 383 1574 l 1,3,-1
 249 1102 l 1,0,-1
EndSplineSet
EndChar

StartChar: quotesinglbase
Encoding: 8218 8218 569
Width: 504
GlyphClass: 2
Flags: HW
LayerCount: 2
Fore
SplineSet
126 -256 m 1,0,-1
 218 216 l 1,1,-1
 379 216 l 1,2,-1
 245 -256 l 1,3,-1
 126 -256 l 1,0,-1
EndSplineSet
EndChar

StartChar: quotedblleft
Encoding: 8220 8220 570
Width: 818
GlyphClass: 2
Flags: HW
LayerCount: 2
Fore
SplineSet
129 1102 m 1,0,-1
 263 1574 l 1,1,-1
 383 1574 l 1,2,-1
 289 1102 l 1,3,-1
 129 1102 l 1,0,-1
438 1102 m 1,4,-1
 573 1574 l 1,5,-1
 690 1574 l 1,6,-1
 600 1102 l 1,7,-1
 438 1102 l 1,4,-1
EndSplineSet
EndChar

StartChar: quotedblright
Encoding: 8221 8221 571
Width: 795
GlyphClass: 2
Flags: HW
LayerCount: 2
Fore
SplineSet
420 1102 m 1,0,-1
 511 1574 l 1,1,-1
 674 1574 l 1,2,-1
 537 1102 l 1,3,-1
 420 1102 l 1,0,-1
133 1102 m 1,4,-1
 226 1574 l 1,5,-1
 385 1574 l 1,6,-1
 250 1102 l 1,7,-1
 133 1102 l 1,4,-1
EndSplineSet
EndChar

StartChar: quotedblbase
Encoding: 8222 8222 572
Width: 819
GlyphClass: 2
Flags: HW
LayerCount: 2
Fore
SplineSet
441 -256 m 1,0,-1
 532 216 l 1,1,-1
 694 216 l 1,2,-1
 559 -256 l 1,3,-1
 441 -256 l 1,0,-1
126 -256 m 1,4,-1
 216 216 l 1,5,-1
 377 216 l 1,6,-1
 244 -256 l 1,7,-1
 126 -256 l 1,4,-1
EndSplineSet
EndChar

StartChar: dagger
Encoding: 8224 8224 573
Width: 876
GlyphClass: 2
Flags: HW
LayerCount: 2
Fore
SplineSet
366 121 m 1,0,-1
 366 1007 l 1,1,-1
 71 1007 l 1,2,-1
 71 1149 l 1,3,-1
 366 1149 l 1,4,-1
 366 1561 l 1,5,-1
 496 1561 l 1,6,-1
 496 1149 l 1,7,-1
 806 1149 l 1,8,-1
 806 1007 l 1,9,-1
 478 1007 l 1,10,-1
 478 121 l 1,11,-1
 366 121 l 1,0,-1
EndSplineSet
EndChar

StartChar: daggerdbl
Encoding: 8225 8225 574
Width: 950
GlyphClass: 2
Flags: HW
LayerCount: 2
Fore
SplineSet
421 604 m 1,0,-1
 421 1059 l 1,1,-1
 112 1059 l 1,2,-1
 112 1199 l 1,3,-1
 428 1199 l 1,4,-1
 401 1561 l 1,5,-1
 538 1561 l 1,6,-1
 538 1199 l 1,7,-1
 850 1199 l 1,8,-1
 850 1059 l 1,9,-1
 530 1059 l 1,10,-1
 530 604 l 1,11,-1
 843 604 l 1,12,-1
 843 467 l 1,13,-1
 530 467 l 1,14,-1
 556 121 l 1,15,-1
 398 121 l 1,16,-1
 421 467 l 1,17,-1
 107 467 l 1,18,-1
 107 604 l 1,19,-1
 421 604 l 1,0,-1
EndSplineSet
EndChar

StartChar: bullet
Encoding: 8226 8226 575
Width: 867
GlyphClass: 2
Flags: HW
LayerCount: 2
Fore
SplineSet
644 987.5 m 128,-1,1
 731 889 731 889 731 752 c 128,-1,2
 731 615 731 615 642 515 c 128,-1,3
 553 415 553 415 431 415 c 128,-1,4
 309 415 309 415 223 513 c 128,-1,5
 137 611 137 611 137 747.5 c 128,-1,6
 137 884 137 884 227 985 c 128,-1,7
 317 1086 317 1086 437 1086 c 128,-1,0
 557 1086 557 1086 644 987.5 c 128,-1,1
EndSplineSet
EndChar

